<?xml version="1.0" encoding="utf-8"?>
<!-- Generator: Adobe Illustrator 18.1.0, SVG Export Plug-In . SVG Version: 6.00 Build 0)  -->
<!DOCTYPE svg PUBLIC "-//W3C//DTD SVG 1.1//EN" "http://www.w3.org/Graphics/SVG/1.1/DTD/svg11.dtd">
<svg version="1.1" id="Layer_1" xmlns="http://www.w3.org/2000/svg" xmlns:xlink="http://www.w3.org/1999/xlink" x="0px" y="0px"
	 width="930.5px" height="233.9px" viewBox="315 34.1 930.5 233.9" enable-background="new 315 34.1 930.5 233.9"
	 xml:space="preserve">
<symbol  id="Star" viewBox="-2 -1.2 4 2.4">
	<g>
		<path fill="#65C7C8" d="M1.2,0c0-0.7-0.5-1.2-1.2-1.2S-1.2-0.7-1.2,0S-0.7,1.2,0,1.2S1.2,0.7,1.2,0z"/>
		<path fill="#6DCACB" d="M1.2,0c0-0.7-0.5-1.2-1.2-1.2S-1.2-0.7-1.2,0S-0.7,1.2,0,1.2S1.2,0.7,1.2,0z"/>
		<path fill="#74CDCE" d="M1.2,0c0-0.6-0.5-1.2-1.2-1.2S-1.2-0.6-1.2,0S-0.6,1.2,0,1.2S1.2,0.6,1.2,0z"/>
		<path fill="#7CCFD0" d="M1.1,0c0-0.6-0.5-1.1-1.1-1.1S-1.1-0.6-1.1,0S-0.6,1.1,0,1.1S1.1,0.6,1.1,0z"/>
		<path fill="#84D2D3" d="M1.1,0c0-0.6-0.5-1.1-1.1-1.1S-1.1-0.6-1.1,0S-0.6,1.1,0,1.1S1.1,0.6,1.1,0z"/>
		<path fill="#8CD5D6" d="M1.1,0c0-0.6-0.5-1.1-1.1-1.1S-1.1-0.6-1.1,0S-0.6,1.1,0,1.1S1.1,0.6,1.1,0z"/>
		<path fill="#93D8D9" d="M1,0c0-0.6-0.5-1-1-1s-1,0.5-1,1s0.5,1,1,1S1,0.6,1,0z"/>
		<path fill="#9BDBDB" d="M1,0c0-0.6-0.5-1-1-1s-1,0.5-1,1s0.5,1,1,1S1,0.6,1,0z"/>
		<path fill="#A3DDDE" d="M1,0c0-0.6-0.4-1-1-1s-1,0.4-1,1s0.4,1,1,1S1,0.6,1,0z"/>
		<path fill="#AAE0E1" d="M1,0c0-0.5-0.4-1-1-1s-1,0.4-1,1s0.4,1,1,1S1,0.5,1,0z"/>
		<path fill="#B2E3E3" d="M0.9,0c0-0.5-0.4-0.9-0.9-0.9S-0.9-0.5-0.9,0S-0.5,0.9,0,0.9S0.9,0.5,0.9,0z"/>
		<path fill="#BAE6E6" d="M0.9,0c0-0.5-0.4-0.9-0.9-0.9S-0.9-0.5-0.9,0S-0.5,0.9,0,0.9S0.9,0.5,0.9,0z"/>
		<path fill="#C1E9E9" d="M0.9,0c0-0.5-0.4-0.9-0.9-0.9S-0.9-0.5-0.9,0S-0.5,0.9,0,0.9S0.9,0.5,0.9,0z"/>
		<path fill="#C9EBEC" d="M0.9,0c0-0.5-0.4-0.9-0.9-0.9S-0.9-0.5-0.9,0S-0.5,0.9,0,0.9S0.9,0.5,0.9,0z"/>
		<path fill="#D1EEEE" d="M0.8,0c0-0.5-0.4-0.8-0.8-0.8S-0.8-0.5-0.8,0S-0.5,0.8,0,0.8S0.8,0.5,0.8,0z"/>
		<path fill="#D8F1F1" d="M0.8,0c0-0.5-0.4-0.8-0.8-0.8S-0.8-0.5-0.8,0S-0.5,0.8,0,0.8S0.8,0.5,0.8,0z"/>
		<path fill="#E0F4F4" d="M0.8,0c0-0.4-0.4-0.8-0.8-0.8S-0.8-0.4-0.8,0S-0.4,0.8,0,0.8S0.8,0.4,0.8,0z"/>
		<path fill="#E8F7F7" d="M0.8,0c0-0.4-0.3-0.8-0.8-0.8S-0.8-0.4-0.8,0S-0.4,0.8,0,0.8S0.8,0.4,0.8,0z"/>
		<path fill="#F0F9F9" d="M0.7,0c0-0.4-0.3-0.7-0.7-0.7S-0.7-0.4-0.7,0S-0.4,0.7,0,0.7S0.7,0.4,0.7,0z"/>
		<path fill="#F7FCFC" d="M0.7,0c0-0.4-0.3-0.7-0.7-0.7S-0.7-0.4-0.7,0S-0.4,0.7,0,0.7S0.7,0.4,0.7,0z"/>
		<path fill="#FFFFFF" d="M0.7,0c0-0.4-0.3-0.7-0.7-0.7S-0.7-0.4-0.7,0S-0.4,0.7,0,0.7S0.7,0.4,0.7,0z"/>
	</g>
	<polygon display="none" fill="none" points="-2,1 2,1 2,-1 -2,-1 	"/>
</symbol>
<g>
	<defs>
		<circle id="SVGID_1_" cx="431.9" cy="151" r="116.9"/>
	</defs>
	<clipPath id="SVGID_2_">
		<use xlink:href="#SVGID_1_"  overflow="visible"/>
	</clipPath>
	
		<linearGradient id="SVGID_3_" gradientUnits="userSpaceOnUse" x1="516.0499" y1="-6.581" x2="320.3501" y2="332.381" gradientTransform="matrix(1 0 0 -1 0 304.2)">
		<stop  offset="0" style="stop-color:#170B24"/>
		<stop  offset="3.019186e-02" style="stop-color:#341F50"/>
		<stop  offset="6.879635e-02" style="stop-color:#563681"/>
		<stop  offset="0.1027" style="stop-color:#6E46A5"/>
		<stop  offset="0.1302" style="stop-color:#7D50BB"/>
		<stop  offset="0.148" style="stop-color:#8254C3"/>
		<stop  offset="0.3418" style="stop-color:#664FA2"/>
		<stop  offset="0.5" style="stop-color:#48368F"/>
		<stop  offset="0.5151" style="stop-color:#46348A"/>
		<stop  offset="0.6569" style="stop-color:#382060"/>
		<stop  offset="0.7296" style="stop-color:#331950"/>
		<stop  offset="0.8939" style="stop-color:#201032"/>
		<stop  offset="1" style="stop-color:#170B24"/>
	</linearGradient>
	<rect x="270.5" y="0.6" clip-path="url(#SVGID_2_)" fill="url(#SVGID_3_)" width="295.4" height="281.4"/>
</g>
<g>
	<defs>
		<circle id="SVGID_4_" cx="431.9" cy="151" r="116.9"/>
	</defs>
	<clipPath id="SVGID_5_">
		<use xlink:href="#SVGID_4_"  overflow="visible"/>
	</clipPath>
	<g clip-path="url(#SVGID_5_)">
		
			<linearGradient id="SVGID_6_" gradientUnits="userSpaceOnUse" x1="1310.2357" y1="-31.7554" x2="1112.8038" y2="310.2066" gradientTransform="matrix(0 -1 -1 0 557.9256 1343.8197)">
			<stop  offset="0" style="stop-color:#242408"/>
			<stop  offset="3.019186e-02" style="stop-color:#504F19"/>
			<stop  offset="6.879635e-02" style="stop-color:#817F2C"/>
			<stop  offset="0.1027" style="stop-color:#A5A23A"/>
			<stop  offset="0.1302" style="stop-color:#BBB743"/>
			<stop  offset="0.148" style="stop-color:#C3BF46"/>
			<stop  offset="0.3418" style="stop-color:#A29844"/>
			<stop  offset="0.5" style="stop-color:#8F812C"/>
			<stop  offset="0.5151" style="stop-color:#8A7D2A"/>
			<stop  offset="0.6569" style="stop-color:#605D19"/>
			<stop  offset="0.7296" style="stop-color:#505013"/>
			<stop  offset="0.8939" style="stop-color:#32320C"/>
			<stop  offset="1" style="stop-color:#242408"/>
		</linearGradient>
		<rect x="276" y="-15.4" opacity="0.4" fill="url(#SVGID_6_)" enable-background="new    " width="285.4" height="295.4"/>
	</g>
</g>
<circle fill="none" cx="431.9" cy="151" r="116.9"/>
<path fill="#FFFFFF" d="M360.8,145.3c0,0,0.1-0.1,0.3-0.3c0.1-0.1,0.2-0.2,0.3-0.4c0.1-0.2,0.3-0.3,0.5-0.5c0.7-0.8,1.8-1.8,3.3-3
	c1.5-1.2,3.4-2.5,5.5-3.9c1.1-0.7,2.3-1.4,3.5-2.1c0.6-0.4,1.2-0.7,1.9-1.1c0.3-0.2,0.6-0.4,1-0.6c0.3-0.2,0.7-0.4,1-0.6
	c2.8-1.5,5.8-3.2,9.2-4.7c0.8-0.4,1.7-0.8,2.5-1.2c0.4-0.2,0.8-0.4,1.3-0.6c0.4-0.2,0.9-0.4,1.3-0.5c1.8-0.7,3.6-1.4,5.4-2.2
	c3.7-1.3,7.6-2.7,11.6-3.8c1-0.3,2-0.6,3-0.9s2-0.5,3.1-0.7c1-0.2,2-0.5,3.1-0.7l1.5-0.4c0.5-0.1,1-0.2,1.6-0.3
	c2.1-0.4,4.1-0.7,6.2-1.1c2.1-0.3,4.1-0.5,6.2-0.8c0.5-0.1,1-0.1,1.5-0.2c0.5,0,1-0.1,1.5-0.1c1-0.1,2-0.1,3-0.2s2-0.2,3-0.2
	s2,0,3-0.1c1,0,2,0,2.9-0.1c0.5,0,1,0,1.4,0c0.5,0,1,0,1.4,0c1.9,0.1,3.7,0.1,5.5,0.2c0.2,0,0.4,0,0.7,0c0.2,0,0.4,0,0.7,0.1
	c0.4,0,0.9,0.1,1.3,0.1c0.9,0.1,1.7,0.1,2.6,0.2c0.8,0.1,1.7,0.1,2.5,0.2c0.4,0,0.8,0.1,1.2,0.1c0.4,0.1,0.8,0.1,1.2,0.2
	c1.6,0.2,3,0.4,4.5,0.6c0.4,0,0.7,0.1,1.1,0.1c0.3,0,0.7,0.1,1,0.2c0.7,0.1,1.3,0.3,1.9,0.4c2.5,0.5,4.7,0.8,6.5,1.3
	c3.6,0.9,5.6,1.4,5.6,1.4l-0.2,0.6c0,0-2-0.5-5.6-1.2c-1.8-0.4-4-0.7-6.5-1.2c-0.6-0.1-1.3-0.2-1.9-0.3c-0.3-0.1-0.7-0.1-1-0.2
	c-0.3,0-0.7-0.1-1-0.1c-1.4-0.2-2.9-0.3-4.4-0.5c-0.4,0-0.8-0.1-1.2-0.1s-0.8-0.1-1.2-0.1c-0.8,0-1.6-0.1-2.5-0.1
	c-0.8,0-1.7-0.1-2.6-0.1c-0.4,0-0.9-0.1-1.3-0.1c-0.2,0-0.4,0-0.7,0c-0.2,0-0.4,0-0.7,0c-1.8,0-3.6,0-5.5,0c-0.5,0-0.9,0-1.4,0
	s-0.9,0-1.4,0.1c-1,0-1.9,0.1-2.9,0.1s-2,0.1-2.9,0.1c-1,0.1-2,0.2-3,0.3c-1,0.1-2,0.2-3,0.3c-0.5,0-1,0.1-1.5,0.1
	c-0.5,0.1-1,0.1-1.5,0.2c-2,0.3-4.1,0.6-6.1,0.9c-2,0.4-4.1,0.8-6.1,1.2c-0.5,0.1-1,0.2-1.5,0.3l-1.5,0.4c-1,0.3-2,0.5-3,0.8
	s-2,0.5-3,0.8s-2,0.6-2.9,0.9c-3.9,1.1-7.7,2.6-11.3,4c-1.8,0.8-3.5,1.5-5.2,2.3c-0.4,0.2-0.9,0.4-1.3,0.5c-0.4,0.2-0.8,0.4-1.2,0.6
	c-0.8,0.4-1.6,0.8-2.4,1.2c-3.2,1.5-6.1,3.2-8.8,4.7c-0.3,0.2-0.7,0.4-1,0.6c-0.3,0.2-0.6,0.4-1,0.6c-0.6,0.4-1.2,0.8-1.9,1.2
	c-1.2,0.8-2.3,1.5-3.4,2.2c-2.1,1.4-3.8,2.7-5.1,3.8c-1.3,1.1-2.3,2.1-2.9,2.8c-0.1,0.2-0.3,0.3-0.4,0.4s-0.2,0.3-0.3,0.4
	c-0.2,0.2-0.2,0.3-0.2,0.3L360.8,145.3z"/>
<circle fill="none" cx="431.9" cy="151" r="116.9"/>
<circle fill="none" cx="431.9" cy="151" r="116.9"/>
<g>
	<defs>
		<circle id="SVGID_7_" cx="431.9" cy="151" r="116.9"/>
	</defs>
	<clipPath id="SVGID_8_">
		<use xlink:href="#SVGID_7_"  overflow="visible"/>
	</clipPath>
	<g clip-path="url(#SVGID_8_)">
		
			<use xlink:href="#Star"  width="4" height="2.4" x="-2" y="-1.2" transform="matrix(0.6428 0 0 -0.6428 366.0343 49.7134)" overflow="visible"/>
		
			<use xlink:href="#Star"  width="4" height="2.4" x="-2" y="-1.2" transform="matrix(0.596 0 0 -0.596 379.3853 20.6858)" overflow="visible"/>
		
			<use xlink:href="#Star"  width="4" height="2.4" x="-2" y="-1.2" transform="matrix(0.5136 0 0 -0.5136 397.723 16.7902)" overflow="visible"/>
		
			<use xlink:href="#Star"  width="4" height="2.4" x="-2" y="-1.2" transform="matrix(0.4998 0 0 -0.4998 383.165 80.1514)" overflow="visible"/>
		
			<use xlink:href="#Star"  width="4" height="2.4" x="-2" y="-1.2" transform="matrix(0.4998 0 0 -0.4998 305.3176 128.8109)" overflow="visible"/>
		
			<use xlink:href="#Star"  width="4" height="2.4" x="-2" y="-1.2" transform="matrix(0.4998 0 0 -0.4998 308.3446 124.3741)" overflow="visible"/>
		
			<use xlink:href="#Star"  width="4" height="2.4" x="-2" y="-1.2" transform="matrix(0.4998 0 0 -0.4998 454.2856 11.799)" overflow="visible"/>
		
			<use xlink:href="#Star"  width="4" height="2.4" x="-2" y="-1.2" transform="matrix(0.4998 0 0 -0.4998 467.5206 6.7616)" overflow="visible"/>
		
			<use xlink:href="#Star"  width="4" height="2.4" x="-2" y="-1.2" transform="matrix(0.4998 0 0 -0.4998 323.4945 147.9193)" overflow="visible"/>
		
			<use xlink:href="#Star"  width="4" height="2.4" x="-2" y="-1.2" transform="matrix(0.4998 0 0 -0.4998 256.1064 190.8406)" overflow="visible"/>
		
			<use xlink:href="#Star"  width="4" height="2.4" x="-2" y="-1.2" transform="matrix(0.4998 0 0 -0.4998 452.2019 70.479)" overflow="visible"/>
		
			<use xlink:href="#Star"  width="4" height="2.4" x="-2" y="-1.2" transform="matrix(0.4998 0 0 -0.4998 478.148 50.8156)" overflow="visible"/>
		
			<use xlink:href="#Star"  width="4" height="2.4" x="-2" y="-1.2" transform="matrix(0.6128 0 0 -0.6128 376.4526 191.3602)" overflow="visible"/>
		
			<use xlink:href="#Star"  width="4" height="2.4" x="-2" y="-1.2" transform="matrix(0.5236 0 0 -0.5236 336.4985 232.2299)" overflow="visible"/>
		
			<use xlink:href="#Star"  width="4" height="2.4" x="-2" y="-1.2" transform="matrix(0.5189 0 0 -0.5189 509.906 114.3851)" overflow="visible"/>
		
			<use xlink:href="#Star"  width="4" height="2.4" x="-2" y="-1.2" transform="matrix(0.5747 0 0 -0.5747 538.5473 99.2425)" overflow="visible"/>
		
			<use xlink:href="#Star"  width="4" height="2.4" x="-2" y="-1.2" transform="matrix(0.5202 0 0 -0.5202 421.6212 252.1849)" overflow="visible"/>
		
			<use xlink:href="#Star"  width="4" height="2.4" x="-2" y="-1.2" transform="matrix(0.5204 0 0 -0.5204 413.7511 257.4439)" overflow="visible"/>
		
			<use xlink:href="#Star"  width="4" height="2.4" x="-2" y="-1.2" transform="matrix(0.4998 0 0 -0.4998 556.9283 146.7295)" overflow="visible"/>
		
			<use xlink:href="#Star"  width="4" height="2.4" x="-2" y="-1.2" transform="matrix(0.4998 0 0 -0.4998 522.5682 212.0083)" overflow="visible"/>
		
			<use xlink:href="#Star"  width="4" height="2.4" x="-2" y="-1.2" transform="matrix(0.4998 0 0 -0.4998 486.9855 247.798)" overflow="visible"/>
		
			<use xlink:href="#Star"  width="4" height="2.4" x="-2" y="-1.2" transform="matrix(0.4998 0 0 -0.4998 508.2382 168.3001)" overflow="visible"/>
		
			<use xlink:href="#Star"  width="4" height="2.4" x="-2" y="-1.2" transform="matrix(0.6792 0 0 -0.6792 401.7553 209.1168)" overflow="visible"/>
		
			<use xlink:href="#Star"  width="4" height="2.4" x="-2" y="-1.2" transform="matrix(0.4998 0 0 -0.4998 435.9591 114.1876)" overflow="visible"/>
		
			<use xlink:href="#Star"  width="4" height="2.4" x="-2" y="-1.2" transform="matrix(0.4998 0 0 -0.4998 440.3631 115.1202)" overflow="visible"/>
		
			<use xlink:href="#Star"  width="4" height="2.4" x="-2" y="-1.2" transform="matrix(0.4998 0 0 -0.4998 410.7986 151.4449)" overflow="visible"/>
		
			<use xlink:href="#Star"  width="4" height="2.4" x="-2" y="-1.2" transform="matrix(0.4998 0 0 -0.4998 478.5803 85.895)" overflow="visible"/>
		
			<use xlink:href="#Star"  width="4" height="2.4" x="-2" y="-1.2" transform="matrix(0.5896 0 0 -0.5896 372.2509 188.6401)" overflow="visible"/>
		
			<use xlink:href="#Star"  width="4" height="2.4" x="-2" y="-1.2" transform="matrix(0.4998 0 0 -0.4998 393.3915 118.319)" overflow="visible"/>
		
			<use xlink:href="#Star"  width="4" height="2.4" x="-2" y="-1.2" transform="matrix(0.4998 0 0 -0.4998 404.0326 112.4767)" overflow="visible"/>
		
			<use xlink:href="#Star"  width="4" height="2.4" x="-2" y="-1.2" transform="matrix(0.5011 0 0 -0.5011 338.9463 184.7288)" overflow="visible"/>
		
			<use xlink:href="#Star"  width="4" height="2.4" x="-2" y="-1.2" transform="matrix(0.4998 0 0 -0.4998 375.8633 80.9238)" overflow="visible"/>
		
			<use xlink:href="#Star"  width="4" height="2.4" x="-2" y="-1.2" transform="matrix(0.4998 0 0 -0.4998 330.8951 109.6503)" overflow="visible"/>
		
			<use xlink:href="#Star"  width="4" height="2.4" x="-2" y="-1.2" transform="matrix(0.5584 0 0 -0.5584 342.2346 69.6441)" overflow="visible"/>
		
			<use xlink:href="#Star"  width="4" height="2.4" x="-2" y="-1.2" transform="matrix(0.5967 0 0 -0.5967 373.4647 13.2615)" overflow="visible"/>
		
			<use xlink:href="#Star"  width="4" height="2.4" x="-2" y="-1.2" transform="matrix(0.4998 0 0 -0.4998 319.7945 138.6341)" overflow="visible"/>
		
			<use xlink:href="#Star"  width="4" height="2.4" x="-2" y="-1.2" transform="matrix(0.4998 0 0 -0.4998 369.6414 82.9454)" overflow="visible"/>
		
			<use xlink:href="#Star"  width="4" height="2.4" x="-2" y="-1.2" transform="matrix(0.4998 0 0 -0.4998 384.8495 113.9274)" overflow="visible"/>
		
			<use xlink:href="#Star"  width="4" height="2.4" x="-2" y="-1.2" transform="matrix(0.4998 0 0 -0.4998 348.2026 173.5147)" overflow="visible"/>
		
			<use xlink:href="#Star"  width="4" height="2.4" x="-2" y="-1.2" transform="matrix(0.4998 0 0 -0.4998 463.1075 50.5743)" overflow="visible"/>
		
			<use xlink:href="#Star"  width="4" height="2.4" x="-2" y="-1.2" transform="matrix(0.5288 0 0 -0.5288 402.2791 179.8069)" overflow="visible"/>
		
			<use xlink:href="#Star"  width="4" height="2.4" x="-2" y="-1.2" transform="matrix(0.6266 0 0 -0.6266 393.1339 194.0671)" overflow="visible"/>
		
			<use xlink:href="#Star"  width="4" height="2.4" x="-2" y="-1.2" transform="matrix(0.6124 0 0 -0.6124 528.4873 64.1376)" overflow="visible"/>
		
			<use xlink:href="#Star"  width="4" height="2.4" x="-2" y="-1.2" transform="matrix(0.5297 0 0 -0.5297 425.5402 243.0488)" overflow="visible"/>
		
			<use xlink:href="#Star"  width="4" height="2.4" x="-2" y="-1.2" transform="matrix(0.4998 0 0 -0.4998 467.2587 153.7519)" overflow="visible"/>
		
			<use xlink:href="#Star"  width="4" height="2.4" x="-2" y="-1.2" transform="matrix(0.6025 0 0 -0.6025 535.8627 61.7829)" overflow="visible"/>
		
			<use xlink:href="#Star"  width="4" height="2.4" x="-2" y="-1.2" transform="matrix(0.501 0 0 -0.501 447.349 219.311)" overflow="visible"/>
		
			<use xlink:href="#Star"  width="4" height="2.4" x="-2" y="-1.2" transform="matrix(0.4998 0 0 -0.4998 512.0205 137.9768)" overflow="visible"/>
		
			<use xlink:href="#Star"  width="4" height="2.4" x="-2" y="-1.2" transform="matrix(0.4998 0 0 -0.4998 517.567 226.8326)" overflow="visible"/>
		
			<use xlink:href="#Star"  width="4" height="2.4" x="-2" y="-1.2" transform="matrix(0.4998 0 0 -0.4998 517.6109 252.9453)" overflow="visible"/>
		
			<use xlink:href="#Star"  width="4" height="2.4" x="-2" y="-1.2" transform="matrix(0.4998 0 0 -0.4998 439.7642 188.7088)" overflow="visible"/>
		
			<use xlink:href="#Star"  width="4" height="2.4" x="-2" y="-1.2" transform="matrix(0.4998 0 0 -0.4998 367.7809 147.4745)" overflow="visible"/>
		
			<use xlink:href="#Star"  width="4" height="2.4" x="-2" y="-1.2" transform="matrix(0.4998 0 0 -0.4998 362.3794 145.778)" overflow="visible"/>
		
			<use xlink:href="#Star"  width="4" height="2.4" x="-2" y="-1.2" transform="matrix(0.4998 0 0 -0.4998 322.3895 115.0902)" overflow="visible"/>
		
			<use xlink:href="#Star"  width="4" height="2.4" x="-2" y="-1.2" transform="matrix(0.4998 0 0 -0.4998 317.2288 107.073)" overflow="visible"/>
		
			<use xlink:href="#Star"  width="4" height="2.4" x="-2" y="-1.2" transform="matrix(0.4998 0 0 -0.4998 318.206 123.6381)" overflow="visible"/>
		
			<use xlink:href="#Star"  width="4" height="2.4" x="-2" y="-1.2" transform="matrix(0.5198 0 0 -0.5198 333.4608 212.2889)" overflow="visible"/>
		
			<use xlink:href="#Star"  width="4" height="2.4" x="-2" y="-1.2" transform="matrix(0.5553 0 0 -0.5553 342.9109 221.4574)" overflow="visible"/>
		
			<use xlink:href="#Star"  width="4" height="2.4" x="-2" y="-1.2" transform="matrix(0.6408 0 0 -0.6408 379.3181 244.9799)" overflow="visible"/>
		
			<use xlink:href="#Star"  width="4" height="2.4" x="-2" y="-1.2" transform="matrix(0.6143 0 0 -0.6143 385.4803 249.7238)" overflow="visible"/>
		
			<use xlink:href="#Star"  width="4" height="2.4" x="-2" y="-1.2" transform="matrix(0.5424 0 0 -0.5424 424.5743 204.7848)" overflow="visible"/>
		
			<use xlink:href="#Star"  width="4" height="2.4" x="-2" y="-1.2" transform="matrix(0.4998 0 0 -0.4998 426.0246 129.6598)" overflow="visible"/>
		
			<use xlink:href="#Star"  width="4" height="2.4" x="-2" y="-1.2" transform="matrix(0.4998 0 0 -0.4998 411.216 79.7381)" overflow="visible"/>
		
			<use xlink:href="#Star"  width="4" height="2.4" x="-2" y="-1.2" transform="matrix(0.4998 0 0 -0.4998 404.367 67.8429)" overflow="visible"/>
		
			<use xlink:href="#Star"  width="4" height="2.4" x="-2" y="-1.2" transform="matrix(0.4998 0 0 -0.4998 430.1108 42.2305)" overflow="visible"/>
		
			<use xlink:href="#Star"  width="4" height="2.4" x="-2" y="-1.2" transform="matrix(0.4998 0 0 -0.4998 450.1308 43.9049)" overflow="visible"/>
		
			<use xlink:href="#Star"  width="4" height="2.4" x="-2" y="-1.2" transform="matrix(0.4998 0 0 -0.4998 445.6708 86.7457)" overflow="visible"/>
		
			<use xlink:href="#Star"  width="4" height="2.4" x="-2" y="-1.2" transform="matrix(0.5017 0 0 -0.5017 486.137 52.4051)" overflow="visible"/>
		
			<use xlink:href="#Star"  width="4" height="2.4" x="-2" y="-1.2" transform="matrix(0.5409 0 0 -0.5409 506.71 49.4327)" overflow="visible"/>
		
			<use xlink:href="#Star"  width="4" height="2.4" x="-2" y="-1.2" transform="matrix(0.4998 0 0 -0.4998 518.93 134.7079)" overflow="visible"/>
		
			<use xlink:href="#Star"  width="4" height="2.4" x="-2" y="-1.2" transform="matrix(0.4998 0 0 -0.4998 503.9585 180.9546)" overflow="visible"/>
		
			<use xlink:href="#Star"  width="4" height="2.4" x="-2" y="-1.2" transform="matrix(0.4998 0 0 -0.4998 515.0308 178.196)" overflow="visible"/>
		
			<use xlink:href="#Star"  width="4" height="2.4" x="-2" y="-1.2" transform="matrix(0.4998 0 0 -0.4998 473.6482 237.5871)" overflow="visible"/>
		
			<use xlink:href="#Star"  width="4" height="2.4" x="-2" y="-1.2" transform="matrix(0.4998 0 0 -0.4998 467.6661 246.6701)" overflow="visible"/>
		
			<use xlink:href="#Star"  width="4" height="2.4" x="-2" y="-1.2" transform="matrix(0.4998 0 0 -0.4998 486.7899 234.9615)" overflow="visible"/>
		
			<use xlink:href="#Star"  width="4" height="2.4" x="-2" y="-1.2" transform="matrix(0.4998 0 0 -0.4998 478.7721 217.6749)" overflow="visible"/>
		
			<use xlink:href="#Star"  width="4" height="2.4" x="-2" y="-1.2" transform="matrix(0.4998 0 0 -0.4998 472.3694 172.8669)" overflow="visible"/>
		
			<use xlink:href="#Star"  width="4" height="2.4" x="-2" y="-1.2" transform="matrix(0.4998 0 0 -0.4998 472.9785 168.2149)" overflow="visible"/>
		
			<use xlink:href="#Star"  width="4" height="2.4" x="-2" y="-1.2" transform="matrix(0.4998 0 0 -0.4998 458.3697 161.6513)" overflow="visible"/>
		
			<use xlink:href="#Star"  width="4" height="2.4" x="-2" y="-1.2" transform="matrix(0.4998 0 0 -0.4998 427.047 148.4456)" overflow="visible"/>
		
			<use xlink:href="#Star"  width="4" height="2.4" x="-2" y="-1.2" transform="matrix(0.4998 0 0 -0.4998 312.2035 161.4462)" overflow="visible"/>
		
			<use xlink:href="#Star"  width="4" height="2.4" x="-2" y="-1.2" transform="matrix(0.4998 0 0 -0.4998 269.1926 174.5148)" overflow="visible"/>
		
			<use xlink:href="#Star"  width="4" height="2.4" x="-2" y="-1.2" transform="matrix(0.4998 0 0 -0.4998 310.8641 142.0372)" overflow="visible"/>
		
			<use xlink:href="#Star"  width="4" height="2.4" x="-2" y="-1.2" transform="matrix(0.4998 0 0 -0.4998 326.2594 132.1185)" overflow="visible"/>
		
			<use xlink:href="#Star"  width="4" height="2.4" x="-2" y="-1.2" transform="matrix(0.4998 0 0 -0.4998 251.6906 124.5166)" overflow="visible"/>
		
			<use xlink:href="#Star"  width="4" height="2.4" x="-2" y="-1.2" transform="matrix(0.4998 0 0 -0.4998 259.1002 101.8286)" overflow="visible"/>
		
			<use xlink:href="#Star"  width="4" height="2.4" x="-2" y="-1.2" transform="matrix(0.4998 0 0 -0.4998 281.4416 80.7981)" overflow="visible"/>
		
			<use xlink:href="#Star"  width="4" height="2.4" x="-2" y="-1.2" transform="matrix(0.4998 0 0 -0.4998 285.349 76.6977)" overflow="visible"/>
		
			<use xlink:href="#Star"  width="4" height="2.4" x="-2" y="-1.2" transform="matrix(0.4998 0 0 -0.4998 278.6475 109.7925)" overflow="visible"/>
		
			<use xlink:href="#Star"  width="4" height="2.4" x="-2" y="-1.2" transform="matrix(0.6692 0 0 -0.6692 340.3259 31.1444)" overflow="visible"/>
		
			<use xlink:href="#Star"  width="4" height="2.4" x="-2" y="-1.2" transform="matrix(0.6515 0 0 -0.6515 346.8476 18.761)" overflow="visible"/>
		
			<use xlink:href="#Star"  width="4" height="2.4" x="-2" y="-1.2" transform="matrix(0.5363 0 0 -0.5363 364.9502 74.9624)" overflow="visible"/>
		
			<use xlink:href="#Star"  width="4" height="2.4" x="-2" y="-1.2" transform="matrix(0.4998 0 0 -0.4998 347.3654 144.1773)" overflow="visible"/>
		
			<use xlink:href="#Star"  width="4" height="2.4" x="-2" y="-1.2" transform="matrix(0.4998 0 0 -0.4998 389.7284 125.9277)" overflow="visible"/>
		
			<use xlink:href="#Star"  width="4" height="2.4" x="-2" y="-1.2" transform="matrix(0.5566 0 0 -0.5566 501.5705 70.7223)" overflow="visible"/>
		
			<use xlink:href="#Star"  width="4" height="2.4" x="-2" y="-1.2" transform="matrix(0.5553 0 0 -0.5553 511.3745 100.7153)" overflow="visible"/>
		
			<use xlink:href="#Star"  width="4" height="2.4" x="-2" y="-1.2" transform="matrix(0.4998 0 0 -0.4998 508.8321 146.376)" overflow="visible"/>
		
			<use xlink:href="#Star"  width="4" height="2.4" x="-2" y="-1.2" transform="matrix(0.4998 0 0 -0.4998 540.8433 137.0746)" overflow="visible"/>
		
			<use xlink:href="#Star"  width="4" height="2.4" x="-2" y="-1.2" transform="matrix(0.4998 0 0 -0.4998 541.3959 167.1511)" overflow="visible"/>
		
			<use xlink:href="#Star"  width="4" height="2.4" x="-2" y="-1.2" transform="matrix(0.4998 0 0 -0.4998 418.7038 273.7999)" overflow="visible"/>
		
			<use xlink:href="#Star"  width="4" height="2.4" x="-2" y="-1.2" transform="matrix(0.4998 0 0 -0.4998 375.9582 290.0249)" overflow="visible"/>
		
			<use xlink:href="#Star"  width="4" height="2.4" x="-2" y="-1.2" transform="matrix(0.4998 0 0 -0.4998 365.07 280.0141)" overflow="visible"/>
		
			<use xlink:href="#Star"  width="4" height="2.4" x="-2" y="-1.2" transform="matrix(0.4998 0 0 -0.4998 314.2203 200.5337)" overflow="visible"/>
		
			<use xlink:href="#Star"  width="4" height="2.4" x="-2" y="-1.2" transform="matrix(0.4998 0 0 -0.4998 314.8715 197.3116)" overflow="visible"/>
		
			<use xlink:href="#Star"  width="4" height="2.4" x="-2" y="-1.2" transform="matrix(0.4998 0 0 -0.4998 308.8335 194.8997)" overflow="visible"/>
		
			<use xlink:href="#Star"  width="4" height="2.4" x="-2" y="-1.2" transform="matrix(0.4998 0 0 -0.4998 251.2382 115.4467)" overflow="visible"/>
		
			<use xlink:href="#Star"  width="4" height="2.4" x="-2" y="-1.2" transform="matrix(0.4998 0 0 -0.4998 251.0945 111.4641)" overflow="visible"/>
		
			<use xlink:href="#Star"  width="4" height="2.4" x="-2" y="-1.2" transform="matrix(0.4998 0 0 -0.4998 503.2189 127.8059)" overflow="visible"/>
		
			<use xlink:href="#Star"  width="4" height="2.4" x="-2" y="-1.2" transform="matrix(0.4998 0 0 -0.4998 498.2286 125.4866)" overflow="visible"/>
		
			<use xlink:href="#Star"  width="4" height="2.4" x="-2" y="-1.2" transform="matrix(0.4998 0 0 -0.4998 486.9483 122.8954)" overflow="visible"/>
		
			<use xlink:href="#Star"  width="4" height="2.4" x="-2" y="-1.2" transform="matrix(0.4998 0 0 -0.4998 474.9191 112.6677)" overflow="visible"/>
		
			<use xlink:href="#Star"  width="4" height="2.4" x="-2" y="-1.2" transform="matrix(0.4998 0 0 -0.4998 460.6174 93.3718)" overflow="visible"/>
		
			<use xlink:href="#Star"  width="4" height="2.4" x="-2" y="-1.2" transform="matrix(0.4998 0 0 -0.4998 438.7562 68.14)" overflow="visible"/>
		
			<use xlink:href="#Star"  width="4" height="2.4" x="-2" y="-1.2" transform="matrix(0.4998 0 0 -0.4998 427.0259 50.8215)" overflow="visible"/>
		
			<use xlink:href="#Star"  width="4" height="2.4" x="-2" y="-1.2" transform="matrix(0.4998 0 0 -0.4998 415.6799 38.4022)" overflow="visible"/>
		
			<use xlink:href="#Star"  width="4" height="2.4" x="-2" y="-1.2" transform="matrix(0.57 0 0 -0.57 387.0749 42.3563)" overflow="visible"/>
		
			<use xlink:href="#Star"  width="4" height="2.4" x="-2" y="-1.2" transform="matrix(0.5289 0 0 -0.5289 326.2246 68.3847)" overflow="visible"/>
		
			<use xlink:href="#Star"  width="4" height="2.4" x="-2" y="-1.2" transform="matrix(0.4998 0 0 -0.4998 276.8251 102.4789)" overflow="visible"/>
		
			<use xlink:href="#Star"  width="4" height="2.4" x="-2" y="-1.2" transform="matrix(0.4998 0 0 -0.4998 277.0071 144.1208)" overflow="visible"/>
		
			<use xlink:href="#Star"  width="4" height="2.4" x="-2" y="-1.2" transform="matrix(0.4998 0 0 -0.4998 382.7622 128.6224)" overflow="visible"/>
		
			<use xlink:href="#Star"  width="4" height="2.4" x="-2" y="-1.2" transform="matrix(0.4998 0 0 -0.4998 446.689 64.7819)" overflow="visible"/>
		
			<use xlink:href="#Star"  width="4" height="2.4" x="-2" y="-1.2" transform="matrix(0.4998 0 0 -0.4998 464.8609 12.6462)" overflow="visible"/>
		
			<use xlink:href="#Star"  width="4" height="2.4" x="-2" y="-1.2" transform="matrix(0.4998 0 0 -0.4998 478.2998 3.3382)" overflow="visible"/>
		
			<use xlink:href="#Star"  width="4" height="2.4" x="-2" y="-1.2" transform="matrix(0.4998 0 0 -0.4998 488.4391 5.4048)" overflow="visible"/>
		
			<use xlink:href="#Star"  width="4" height="2.4" x="-2" y="-1.2" transform="matrix(0.5023 0 0 -0.5023 509.1224 30.6352)" overflow="visible"/>
		
			<use xlink:href="#Star"  width="4" height="2.4" x="-2" y="-1.2" transform="matrix(0.5253 0 0 -0.5253 510.3425 39.8316)" overflow="visible"/>
		
			<use xlink:href="#Star"  width="4" height="2.4" x="-2" y="-1.2" transform="matrix(0.4998 0 0 -0.4998 503.1948 28.3449)" overflow="visible"/>
		
			<use xlink:href="#Star"  width="4" height="2.4" x="-2" y="-1.2" transform="matrix(0.4998 0 0 -0.4998 494.0013 12.3754)" overflow="visible"/>
		
			<use xlink:href="#Star"  width="4" height="2.4" x="-2" y="-1.2" transform="matrix(0.4998 0 0 -0.4998 490.9092 13.4023)" overflow="visible"/>
		
			<use xlink:href="#Star"  width="4" height="2.4" x="-2" y="-1.2" transform="matrix(0.4998 0 0 -0.4998 460.1338 43.466)" overflow="visible"/>
		
			<use xlink:href="#Star"  width="4" height="2.4" x="-2" y="-1.2" transform="matrix(0.4998 0 0 -0.4998 446.1389 50.7449)" overflow="visible"/>
		
			<use xlink:href="#Star"  width="4" height="2.4" x="-2" y="-1.2" transform="matrix(0.4998 0 0 -0.4998 424.5184 60.6881)" overflow="visible"/>
		
			<use xlink:href="#Star"  width="4" height="2.4" x="-2" y="-1.2" transform="matrix(0.4998 0 0 -0.4998 419.9361 65.6846)" overflow="visible"/>
		
			<use xlink:href="#Star"  width="4" height="2.4" x="-2" y="-1.2" transform="matrix(0.4998 0 0 -0.4998 464.9206 179.0347)" overflow="visible"/>
		
			<use xlink:href="#Star"  width="4" height="2.4" x="-2" y="-1.2" transform="matrix(0.4998 0 0 -0.4998 478.035 168.4591)" overflow="visible"/>
		
			<use xlink:href="#Star"  width="4" height="2.4" x="-2" y="-1.2" transform="matrix(0.4998 0 0 -0.4998 549.8278 130.6313)" overflow="visible"/>
		
			<use xlink:href="#Star"  width="4" height="2.4" x="-2" y="-1.2" transform="matrix(0.4998 0 0 -0.4998 554.8146 129.154)" overflow="visible"/>
		
			<use xlink:href="#Star"  width="4" height="2.4" x="-2" y="-1.2" transform="matrix(0.4998 0 0 -0.4998 413.0793 95.7922)" overflow="visible"/>
		
			<use xlink:href="#Star"  width="4" height="2.4" x="-2" y="-1.2" transform="matrix(0.4998 0 0 -0.4998 383.866 105.7169)" overflow="visible"/>
		
			<use xlink:href="#Star"  width="4" height="2.4" x="-2" y="-1.2" transform="matrix(0.4998 0 0 -0.4998 339.639 124.4453)" overflow="visible"/>
		
			<use xlink:href="#Star"  width="4" height="2.4" x="-2" y="-1.2" transform="matrix(0.4998 0 0 -0.4998 420.0607 165.7093)" overflow="visible"/>
		
			<use xlink:href="#Star"  width="4" height="2.4" x="-2" y="-1.2" transform="matrix(0.4998 0 0 -0.4998 457.3727 186.9961)" overflow="visible"/>
		
			<use xlink:href="#Star"  width="4" height="2.4" x="-2" y="-1.2" transform="matrix(0.5024 0 0 -0.5024 444.216 234.0478)" overflow="visible"/>
		
			<use xlink:href="#Star"  width="4" height="2.4" x="-2" y="-1.2" transform="matrix(0.5081 0 0 -0.5081 436.6197 242.5573)" overflow="visible"/>
		
			<use xlink:href="#Star"  width="4" height="2.4" x="-2" y="-1.2" transform="matrix(0.6114 0 0 -0.6114 405.9362 242.7577)" overflow="visible"/>
		
			<use xlink:href="#Star"  width="4" height="2.4" x="-2" y="-1.2" transform="matrix(0.6744 0 0 -0.6744 386.5713 240.2728)" overflow="visible"/>
		
			<use xlink:href="#Star"  width="4" height="2.4" x="-2" y="-1.2" transform="matrix(0.6454 0 0 -0.6454 375.5927 243.1417)" overflow="visible"/>
		
			<use xlink:href="#Star"  width="4" height="2.4" x="-2" y="-1.2" transform="matrix(0.5057 0 0 -0.5057 391.2866 85.8875)" overflow="visible"/>
		
			<use xlink:href="#Star"  width="4" height="2.4" x="-2" y="-1.2" transform="matrix(0.4998 0 0 -0.4998 451.5528 87.5883)" overflow="visible"/>
		
			<use xlink:href="#Star"  width="4" height="2.4" x="-2" y="-1.2" transform="matrix(0.4998 0 0 -0.4998 444.039 127.0613)" overflow="visible"/>
		
			<use xlink:href="#Star"  width="4" height="2.4" x="-2" y="-1.2" transform="matrix(0.5815 0 0 -0.5815 363.1654 207.3532)" overflow="visible"/>
		
			<use xlink:href="#Star"  width="4" height="2.4" x="-2" y="-1.2" transform="matrix(0.5509 0 0 -0.5509 359.7901 185.0991)" overflow="visible"/>
		
			<use xlink:href="#Star"  width="4" height="2.4" x="-2" y="-1.2" transform="matrix(0.5278 0 0 -0.5278 352.9751 76.6785)" overflow="visible"/>
		
			<use xlink:href="#Star"  width="4" height="2.4" x="-2" y="-1.2" transform="matrix(0.5759 0 0 -0.5759 353.9216 46.9109)" overflow="visible"/>
		
			<use xlink:href="#Star"  width="4" height="2.4" x="-2" y="-1.2" transform="matrix(0.5856 0 0 -0.5856 355.7866 38.592)" overflow="visible"/>
		
			<use xlink:href="#Star"  width="4" height="2.4" x="-2" y="-1.2" transform="matrix(0.5014 0 0 -0.5014 423.2895 66.4478)" overflow="visible"/>
		
			<use xlink:href="#Star"  width="4" height="2.4" x="-2" y="-1.2" transform="matrix(0.4999 0 0 -0.4999 433.2186 106.3258)" overflow="visible"/>
		
			<use xlink:href="#Star"  width="4" height="2.4" x="-2" y="-1.2" transform="matrix(0.5098 0 0 -0.5098 432.2518 171.1021)" overflow="visible"/>
		
			<use xlink:href="#Star"  width="4" height="2.4" x="-2" y="-1.2" transform="matrix(0.5014 0 0 -0.5014 470.4816 204.6541)" overflow="visible"/>
		
			<use xlink:href="#Star"  width="4" height="2.4" x="-2" y="-1.2" transform="matrix(0.5 0 0 -0.5 494.5219 225.6977)" overflow="visible"/>
		
			<use xlink:href="#Star"  width="4" height="2.4" x="-2" y="-1.2" transform="matrix(0.5001 0 0 -0.5001 481.8578 204.8227)" overflow="visible"/>
		
			<use xlink:href="#Star"  width="4" height="2.4" x="-2" y="-1.2" transform="matrix(0.5 0 0 -0.5 478.9478 161.3452)" overflow="visible"/>
		
			<use xlink:href="#Star"  width="4" height="2.4" x="-2" y="-1.2" transform="matrix(0.4999 0 0 -0.4999 440.0335 93.0024)" overflow="visible"/>
		
			<use xlink:href="#Star"  width="4" height="2.4" x="-2" y="-1.2" transform="matrix(0.525 0 0 -0.525 394.7243 50.6035)" overflow="visible"/>
		
			<use xlink:href="#Star"  width="4" height="2.4" x="-2" y="-1.2" transform="matrix(0.6271 0 0 -0.6271 328.5705 15.7618)" overflow="visible"/>
		
			<use xlink:href="#Star"  width="4" height="2.4" x="-2" y="-1.2" transform="matrix(0.6333 0 0 -0.6333 322.5444 10.5154)" overflow="visible"/>
		
			<use xlink:href="#Star"  width="4" height="2.4" x="-2" y="-1.2" transform="matrix(0.5727 0 0 -0.5727 369.5059 37.8616)" overflow="visible"/>
		
			<use xlink:href="#Star"  width="4" height="2.4" x="-2" y="-1.2" transform="matrix(0.5 0 0 -0.5 427.7268 102.5998)" overflow="visible"/>
		
			<use xlink:href="#Star"  width="4" height="2.4" x="-2" y="-1.2" transform="matrix(0.4998 0 0 -0.4998 442.841 119.6248)" overflow="visible"/>
		
			<use xlink:href="#Star"  width="4" height="2.4" x="-2" y="-1.2" transform="matrix(0.5001 0 0 -0.5001 468.8382 132.4497)" overflow="visible"/>
		
			<use xlink:href="#Star"  width="4" height="2.4" x="-2" y="-1.2" transform="matrix(0.5041 0 0 -0.5041 494.579 130.1803)" overflow="visible"/>
		
			<use xlink:href="#Star"  width="4" height="2.4" x="-2" y="-1.2" transform="matrix(0.5066 0 0 -0.5066 503.3507 123.3726)" overflow="visible"/>
		
			<use xlink:href="#Star"  width="4" height="2.4" x="-2" y="-1.2" transform="matrix(0.5097 0 0 -0.5097 512.2557 119.7231)" overflow="visible"/>
		
			<use xlink:href="#Star"  width="4" height="2.4" x="-2" y="-1.2" transform="matrix(0.5002 0 0 -0.5002 486.4905 163.2866)" overflow="visible"/>
		
			<use xlink:href="#Star"  width="4" height="2.4" x="-2" y="-1.2" transform="matrix(0.5081 0 0 -0.5081 444.3748 187.6936)" overflow="visible"/>
		
			<use xlink:href="#Star"  width="4" height="2.4" x="-2" y="-1.2" transform="matrix(0.5443 0 0 -0.5443 420.07 200.6773)" overflow="visible"/>
		
			<use xlink:href="#Star"  width="4" height="2.4" x="-2" y="-1.2" transform="matrix(0.5351 0 0 -0.5351 429.3005 204.8111)" overflow="visible"/>
		
			<use xlink:href="#Star"  width="4" height="2.4" x="-2" y="-1.2" transform="matrix(0.5001 0 0 -0.5001 491.6927 209.6257)" overflow="visible"/>
		
			<use xlink:href="#Star"  width="4" height="2.4" x="-2" y="-1.2" transform="matrix(0.5001 0 0 -0.5001 488.6597 230.566)" overflow="visible"/>
		
			<use xlink:href="#Star"  width="4" height="2.4" x="-2" y="-1.2" transform="matrix(0.5032 0 0 -0.5032 463.7982 250.957)" overflow="visible"/>
		
			<use xlink:href="#Star"  width="4" height="2.4" x="-2" y="-1.2" transform="matrix(0.5583 0 0 -0.5583 405.617 193.5747)" overflow="visible"/>
		
			<use xlink:href="#Star"  width="4" height="2.4" x="-2" y="-1.2" transform="matrix(0.5002 0 0 -0.5002 372.1171 136.5943)" overflow="visible"/>
		
			<use xlink:href="#Star"  width="4" height="2.4" x="-2" y="-1.2" transform="matrix(0.511 0 0 -0.511 334.8586 95.7917)" overflow="visible"/>
		
			<use xlink:href="#Star"  width="4" height="2.4" x="-2" y="-1.2" transform="matrix(0.5176 0 0 -0.5176 322.1216 80.9079)" overflow="visible"/>
		
			<use xlink:href="#Star"  width="4" height="2.4" x="-2" y="-1.2" transform="matrix(0.5304 0 0 -0.5304 314.1703 65.7172)" overflow="visible"/>
		
			<use xlink:href="#Star"  width="4" height="2.4" x="-2" y="-1.2" transform="matrix(0.5311 0 0 -0.5311 317.3447 67.4944)" overflow="visible"/>
		
			<use xlink:href="#Star"  width="4" height="2.4" x="-2" y="-1.2" transform="matrix(0.502 0 0 -0.502 362.433 116.7255)" overflow="visible"/>
		
			<use xlink:href="#Star"  width="4" height="2.4" x="-2" y="-1.2" transform="matrix(0.501 0 0 -0.501 365.8767 122.4063)" overflow="visible"/>
		
			<use xlink:href="#Star"  width="4" height="2.4" x="-2" y="-1.2" transform="matrix(0.5088 0 0 -0.5088 352.5719 98.1118)" overflow="visible"/>
		
			<use xlink:href="#Star"  width="4" height="2.4" x="-2" y="-1.2" transform="matrix(0.5146 0 0 -0.5146 348.7126 91.0952)" overflow="visible"/>
		
			<use xlink:href="#Star"  width="4" height="2.4" x="-2" y="-1.2" transform="matrix(0.5005 0 0 -0.5005 375.4621 137.2735)" overflow="visible"/>
		
			<use xlink:href="#Star"  width="4" height="2.4" x="-2" y="-1.2" transform="matrix(0.5004 0 0 -0.5004 412.6032 89.9504)" overflow="visible"/>
		
			<use xlink:href="#Star"  width="4" height="2.4" x="-2" y="-1.2" transform="matrix(0.5015 0 0 -0.5015 432.2319 51.2291)" overflow="visible"/>
		
			<use xlink:href="#Star"  width="4" height="2.4" x="-2" y="-1.2" transform="matrix(0.5005 0 0 -0.5005 438.6181 41.7389)" overflow="visible"/>
		
			<use xlink:href="#Star"  width="4" height="2.4" x="-2" y="-1.2" transform="matrix(0.5 0 0 -0.5 457.5396 29.4078)" overflow="visible"/>
		
			<use xlink:href="#Star"  width="4" height="2.4" x="-2" y="-1.2" transform="matrix(0.5016 0 0 -0.5016 471.9769 24.2533)" overflow="visible"/>
		
			<use xlink:href="#Star"  width="4" height="2.4" x="-2" y="-1.2" transform="matrix(0.5032 0 0 -0.5032 482.3725 24.6815)" overflow="visible"/>
		
			<use xlink:href="#Star"  width="4" height="2.4" x="-2" y="-1.2" transform="matrix(0.5033 0 0 -0.5033 485.369 22.5537)" overflow="visible"/>
		
			<use xlink:href="#Star"  width="4" height="2.4" x="-2" y="-1.2" transform="matrix(0.5023 0 0 -0.5023 477.9548 20.9446)" overflow="visible"/>
		
			<use xlink:href="#Star"  width="4" height="2.4" x="-2" y="-1.2" transform="matrix(0.5004 0 0 -0.5004 451.4535 19.4791)" overflow="visible"/>
		
			<use xlink:href="#Star"  width="4" height="2.4" x="-2" y="-1.2" transform="matrix(0.5036 0 0 -0.5036 428.0317 16.0865)" overflow="visible"/>
		
			<use xlink:href="#Star"  width="4" height="2.4" x="-2" y="-1.2" transform="matrix(0.5114 0 0 -0.5114 418.1514 13.6829)" overflow="visible"/>
		
			<use xlink:href="#Star"  width="4" height="2.4" x="-2" y="-1.2" transform="matrix(0.5114 0 0 -0.5114 417.5124 16.4949)" overflow="visible"/>
		
			<use xlink:href="#Star"  width="4" height="2.4" x="-2" y="-1.2" transform="matrix(0.5121 0 0 -0.5121 358.1008 156.3562)" overflow="visible"/>
		
			<use xlink:href="#Star"  width="4" height="2.4" x="-2" y="-1.2" transform="matrix(0.5125 0 0 -0.5125 361.5521 156.8191)" overflow="visible"/>
		
			<use xlink:href="#Star"  width="4" height="2.4" x="-2" y="-1.2" transform="matrix(0.5193 0 0 -0.5193 376.6576 159.9344)" overflow="visible"/>
		
			<use xlink:href="#Star"  width="4" height="2.4" x="-2" y="-1.2" transform="matrix(0.5213 0 0 -0.5213 391.8579 163.1529)" overflow="visible"/>
		
			<use xlink:href="#Star"  width="4" height="2.4" x="-2" y="-1.2" transform="matrix(0.5191 0 0 -0.5191 406.2166 162.5671)" overflow="visible"/>
		
			<use xlink:href="#Star"  width="4" height="2.4" x="-2" y="-1.2" transform="matrix(0.5119 0 0 -0.5119 419.7594 159.3694)" overflow="visible"/>
		
			<use xlink:href="#Star"  width="4" height="2.4" x="-2" y="-1.2" transform="matrix(0.5052 0 0 -0.5052 429.8974 153.819)" overflow="visible"/>
		
			<use xlink:href="#Star"  width="4" height="2.4" x="-2" y="-1.2" transform="matrix(0.5006 0 0 -0.5006 454.4981 131.678)" overflow="visible"/>
		
			<use xlink:href="#Star"  width="4" height="2.4" x="-2" y="-1.2" transform="matrix(0.5242 0 0 -0.5242 511.0363 94.9584)" overflow="visible"/>
		
			<use xlink:href="#Star"  width="4" height="2.4" x="-2" y="-1.2" transform="matrix(0.5172 0 0 -0.5172 503.0427 98.6294)" overflow="visible"/>
		
			<use xlink:href="#Star"  width="4" height="2.4" x="-2" y="-1.2" transform="matrix(0.5003 0 0 -0.5003 462.5924 123.03)" overflow="visible"/>
		
			<use xlink:href="#Star"  width="4" height="2.4" x="-2" y="-1.2" transform="matrix(0.5028 0 0 -0.5028 427.5871 140.2657)" overflow="visible"/>
		
			<use xlink:href="#Star"  width="4" height="2.4" x="-2" y="-1.2" transform="matrix(0.5077 0 0 -0.5077 405.5721 150.4437)" overflow="visible"/>
		
			<use xlink:href="#Star"  width="4" height="2.4" x="-2" y="-1.2" transform="matrix(0.5149 0 0 -0.5149 393.8752 156.6243)" overflow="visible"/>
		
			<use xlink:href="#Star"  width="4" height="2.4" x="-2" y="-1.2" transform="matrix(0.515 0 0 -0.515 390.5533 156.4113)" overflow="visible"/>
		
			<use xlink:href="#Star"  width="4" height="2.4" x="-2" y="-1.2" transform="matrix(0.5009 0 0 -0.5009 415.1888 114.1614)" overflow="visible"/>
		
			<use xlink:href="#Star"  width="4" height="2.4" x="-2" y="-1.2" transform="matrix(0.5003 0 0 -0.5003 421.6263 106.718)" overflow="visible"/>
		
			<use xlink:href="#Star"  width="4" height="2.4" x="-2" y="-1.2" transform="matrix(0.5001 0 0 -0.5001 432.0444 91.0501)" overflow="visible"/>
		
			<use xlink:href="#Star"  width="4" height="2.4" x="-2" y="-1.2" transform="matrix(0.5 0 0 -0.5 450.3844 74.5282)" overflow="visible"/>
		
			<use xlink:href="#Star"  width="4" height="2.4" x="-2" y="-1.2" transform="matrix(0.5008 0 0 -0.5008 459.5238 59.4627)" overflow="visible"/>
		
			<use xlink:href="#Star"  width="4" height="2.4" x="-2" y="-1.2" transform="matrix(0.5008 0 0 -0.5008 460.6397 62.5052)" overflow="visible"/>
		
			<use xlink:href="#Star"  width="4" height="2.4" x="-2" y="-1.2" transform="matrix(0.5027 0 0 -0.5027 415.7564 129.483)" overflow="visible"/>
		
			<use xlink:href="#Star"  width="4" height="2.4" x="-2" y="-1.2" transform="matrix(0.5032 0 0 -0.5032 412.5162 132.971)" overflow="visible"/>
		
			<use xlink:href="#Star"  width="4" height="2.4" x="-2" y="-1.2" transform="matrix(0.5041 0 0 -0.5041 405.5489 136.5618)" overflow="visible"/>
		
			<use xlink:href="#Star"  width="4" height="2.4" x="-2" y="-1.2" transform="matrix(0.5053 0 0 -0.5053 391.2347 140.7895)" overflow="visible"/>
		
			<use xlink:href="#Star"  width="4" height="2.4" x="-2" y="-1.2" transform="matrix(0.5301 0 0 -0.5301 359.6155 176.3484)" overflow="visible"/>
		
			<use xlink:href="#Star"  width="4" height="2.4" x="-2" y="-1.2" transform="matrix(0.514 0 0 -0.514 528.8408 113.8013)" overflow="visible"/>
		
			<use xlink:href="#Star"  width="4" height="2.4" x="-2" y="-1.2" transform="matrix(0.5252 0 0 -0.5252 512.2361 90.8106)" overflow="visible"/>
		
			<use xlink:href="#Star"  width="4" height="2.4" x="-2" y="-1.2" transform="matrix(0.5158 0 0 -0.5158 493.1941 66.9708)" overflow="visible"/>
		
			<use xlink:href="#Star"  width="4" height="2.4" x="-2" y="-1.2" transform="matrix(0.5081 0 0 -0.5081 486.8865 55.8922)" overflow="visible"/>
		
			<use xlink:href="#Star"  width="4" height="2.4" x="-2" y="-1.2" transform="matrix(0.5071 0 0 -0.5071 484.6317 49.7202)" overflow="visible"/>
		
			<use xlink:href="#Star"  width="4" height="2.4" x="-2" y="-1.2" transform="matrix(0.5137 0 0 -0.5137 490.2593 74.1154)" overflow="visible"/>
		
			<use xlink:href="#Star"  width="4" height="2.4" x="-2" y="-1.2" transform="matrix(0.5045 0 0 -0.5045 502.4992 139.0766)" overflow="visible"/>
		
			<use xlink:href="#Star"  width="4" height="2.4" x="-2" y="-1.2" transform="matrix(0.4998 0 0 -0.4998 526.4618 195.8847)" overflow="visible"/>
		
			<use xlink:href="#Star"  width="4" height="2.4" x="-2" y="-1.2" transform="matrix(0.4998 0 0 -0.4998 535.6631 220.1728)" overflow="visible"/>
	</g>
</g>
<linearGradient id="SVGID_9_" gradientUnits="userSpaceOnUse" x1="316.9391" y1="269.2747" x2="2037.3531" y2="-419.1908" gradientTransform="matrix(1 0 0 -1 0 304.2)">
	<stop  offset="0" style="stop-color:#754E80"/>
	<stop  offset="0.2404" style="stop-color:#8255BE"/>
	<stop  offset="0.6307" style="stop-color:#CCCCCC"/>
	<stop  offset="1" style="stop-color:#482A4D"/>
</linearGradient>
<path fill="url(#SVGID_9_)" d="M611.2,104.5l-35.3,92h22.2l5.7-16h39.1l5.6,16h22.2l-35.1-92C635.6,104.5,611.2,104.5,611.2,104.5z
	 M609.1,163.5l14.2-39.2l14.2,39.2H609.1z"/>
<linearGradient id="SVGID_10_" gradientUnits="userSpaceOnUse" x1="325.3438" y1="290.613" x2="2045.7577" y2="-397.8526" gradientTransform="matrix(1 0 0 -1 0 304.2)">
	<stop  offset="0" style="stop-color:#754E80"/>
	<stop  offset="0.2404" style="stop-color:#8255BE"/>
	<stop  offset="0.6307" style="stop-color:#CCCCCC"/>
	<stop  offset="1" style="stop-color:#482A4D"/>
</linearGradient>
<path fill="url(#SVGID_10_)" d="M691,149c0-3.7,4.1-6.6,10.4-6.6c8.1,0,15.6,3.4,19.6,7.7l7-11.9c-6.6-5.2-15.5-9-26.7-9
	c-17.4,0-27.1,9.7-27.1,20.8c0,26,39.2,17.1,39.2,28c0,4.1-3.6,7.1-11.1,7.1c-8.2,0-18.1-4.5-22.8-9l-7.5,12.2
	c7,6.4,18.1,10.3,29.5,10.3c18.3,0,28.6-9.2,28.6-21.2C730.1,150.6,691,158.8,691,149z"/>
<linearGradient id="SVGID_11_" gradientUnits="userSpaceOnUse" x1="337.1165" y1="317.3564" x2="2054.0264" y2="-369.7069" gradientTransform="matrix(1 0 0 -1 0 304.2)">
	<stop  offset="0" style="stop-color:#754E80"/>
	<stop  offset="0.2404" style="stop-color:#8255BE"/>
	<stop  offset="0.6307" style="stop-color:#CCCCCC"/>
	<stop  offset="1" style="stop-color:#482A4D"/>
</linearGradient>
<path fill="url(#SVGID_11_)" d="M768.1,183c-3.8,0-5.8-3.1-5.8-7.2v-29.2h13v-15h-13v-18h-18v18h-11v15h11v33.9
	c0,11.8,6.6,18.1,18.8,18.1c7.2,0,11.9-1.9,14.5-4.2l-3.6-13.3C773,182.1,770.7,183,768.1,183z"/>
<linearGradient id="SVGID_12_" gradientUnits="userSpaceOnUse" x1="341.2755" y1="326.1906" x2="2056.4282" y2="-360.1697" gradientTransform="matrix(1 0 0 -1 0 304.2)">
	<stop  offset="0" style="stop-color:#754E80"/>
	<stop  offset="0.2404" style="stop-color:#8255BE"/>
	<stop  offset="0.6307" style="stop-color:#CCCCCC"/>
	<stop  offset="1" style="stop-color:#482A4D"/>
</linearGradient>
<path fill="url(#SVGID_12_)" d="M802.3,139.8v-8.3h-17v66h17v-44.3c3-4.2,10.5-7.5,16.2-7.5c1.9,0,3.8,0.1,4.8,0.4v-17
	C815.3,129.1,807.3,133.9,802.3,139.8z"/>
<linearGradient id="SVGID_13_" gradientUnits="userSpaceOnUse" x1="347.6261" y1="346.2946" x2="2068.0403" y2="-342.1711" gradientTransform="matrix(1 0 0 -1 0 304.2)">
	<stop  offset="0" style="stop-color:#754E80"/>
	<stop  offset="0.2404" style="stop-color:#8255BE"/>
	<stop  offset="0.6307" style="stop-color:#CCCCCC"/>
	<stop  offset="1" style="stop-color:#482A4D"/>
</linearGradient>
<path fill="url(#SVGID_13_)" d="M862,129.1c-21.7,0-34.9,15.9-34.9,34.6c0,18.9,13.1,34.7,34.9,34.7c21.9,0,35-15.9,35-34.7
	C897,145,883.9,129.1,862,129.1z M862,183c-10.8,0-16.8-8.9-16.8-19.3c0-10.3,6-19.1,16.8-19.1s17,8.9,17,19.1
	C879,174.1,872.8,183,862,183z"/>
<linearGradient id="SVGID_14_" gradientUnits="userSpaceOnUse" x1="356.9098" y1="369.1339" x2="2077.3237" y2="-319.3316" gradientTransform="matrix(1 0 0 -1 0 304.2)">
	<stop  offset="0" style="stop-color:#754E80"/>
	<stop  offset="0.2404" style="stop-color:#8255BE"/>
	<stop  offset="0.6307" style="stop-color:#CCCCCC"/>
	<stop  offset="1" style="stop-color:#482A4D"/>
</linearGradient>
<path fill="url(#SVGID_14_)" d="M944.6,129.1c-10.8,0-19.3,5.2-23.3,10.3v-7.8h-17v66h17v-45.2c3-4,8.1-7.8,14.9-7.8
	c7.4,0,12.1,3.1,12.1,12.3v40.7h18v-47.4C966.3,137.3,959.1,129.1,944.6,129.1z"/>
<linearGradient id="SVGID_15_" gradientUnits="userSpaceOnUse" x1="367.7378" y1="396.5518" x2="2088.1516" y2="-291.9138" gradientTransform="matrix(1 0 0 -1 0 304.2)">
	<stop  offset="0" style="stop-color:#754E80"/>
	<stop  offset="0.2404" style="stop-color:#8255BE"/>
	<stop  offset="0.6307" style="stop-color:#CCCCCC"/>
	<stop  offset="1" style="stop-color:#482A4D"/>
</linearGradient>
<path fill="url(#SVGID_15_)" d="M1007.7,129.1c-21.7,0-34.9,15.9-34.9,34.6c0,18.9,13.1,34.7,34.9,34.7c21.9,0,35-15.9,35-34.7
	C1042.7,145,1029.6,129.1,1007.7,129.1z M1007.7,183c-10.8,0-16.8-8.9-16.8-19.3c0-10.3,6-19.1,16.8-19.1s17,8.9,17,19.1
	C1024.7,174.1,1018.5,183,1007.7,183z"/>
<linearGradient id="SVGID_16_" gradientUnits="userSpaceOnUse" x1="379.6421" y1="425.9399" x2="2100.0562" y2="-262.5258" gradientTransform="matrix(1 0 0 -1 0 304.2)">
	<stop  offset="0" style="stop-color:#754E80"/>
	<stop  offset="0.2404" style="stop-color:#8255BE"/>
	<stop  offset="0.6307" style="stop-color:#CCCCCC"/>
	<stop  offset="1" style="stop-color:#482A4D"/>
</linearGradient>
<path fill="url(#SVGID_16_)" d="M1129.7,129.1c-10.1,0-18.9,6-22.8,12c-2.5-7.5-8.5-12-18.2-12c-10.1,0-19.5,6.3-21.5,10.3v-7.8h-18
	v66h18v-45.2c2-3.7,7.4-7.8,13.4-7.8c7.1,0,9.6,4.4,9.6,10.5v42.4h18v-45.3c2-3.6,7.3-7.7,13.4-7.7c7.1,0,9.6,4.4,9.6,10.5v42.4h18
	v-48.3C1149.3,135.6,1141.9,129.1,1129.7,129.1z"/>
<linearGradient id="SVGID_17_" gradientUnits="userSpaceOnUse" x1="407.2139" y1="495.1991" x2="2127.6277" y2="-193.2665" gradientTransform="matrix(1 0 0 -1 0 304.2)">
	<stop  offset="0" style="stop-color:#754E80"/>
	<stop  offset="0.2404" style="stop-color:#8255BE"/>
	<stop  offset="0.6307" style="stop-color:#CCCCCC"/>
	<stop  offset="1" style="stop-color:#482A4D"/>
</linearGradient>
<path fill="url(#SVGID_17_)" d="M1167.7,103c-5.6,0-10.4,4.5-10.4,10.3c0,5.7,4.8,10.4,10.4,10.4c5.7,0,10.4-4.6,10.4-10.4
	C1178.1,107.5,1173.4,103,1167.7,103z"/>
<linearGradient id="SVGID_18_" gradientUnits="userSpaceOnUse" x1="389.7007" y1="451.0754" x2="2110.1147" y2="-237.3902" gradientTransform="matrix(1 0 0 -1 0 304.2)">
	<stop  offset="0" style="stop-color:#754E80"/>
	<stop  offset="0.2404" style="stop-color:#8255BE"/>
	<stop  offset="0.6307" style="stop-color:#CCCCCC"/>
	<stop  offset="1" style="stop-color:#482A4D"/>
</linearGradient>
<rect x="1159.3" y="131.5" fill="url(#SVGID_18_)" width="17" height="66"/>
<linearGradient id="SVGID_19_" gradientUnits="userSpaceOnUse" x1="396.9514" y1="469.5539" x2="2117.3652" y2="-218.9116" gradientTransform="matrix(1 0 0 -1 0 304.2)">
	<stop  offset="0" style="stop-color:#754E80"/>
	<stop  offset="0.2404" style="stop-color:#8255BE"/>
	<stop  offset="0.6307" style="stop-color:#CCCCCC"/>
	<stop  offset="1" style="stop-color:#482A4D"/>
</linearGradient>
<path fill="url(#SVGID_19_)" d="M1220.2,183c-10.5,0-17.9-7.8-17.9-19.3s7.4-19.1,17.9-19.1c6,0,10.8,2.5,13.9,7.1l11.4-10.7
	c-4.4-6-12.6-11.9-26.1-11.9c-20.4,0-35,14.4-35,34.6c0,20.4,14.6,34.7,35,34.7c13.5,0,21.7-5.9,26.1-12l-11.4-10.5
	C1231.1,180.3,1226.3,183,1220.2,183z"/>
</svg>
