<?xml version="1.0" encoding="utf-8"?>
<!-- Generator: Adobe Illustrator 18.1.1, SVG Export Plug-In . SVG Version: 6.00 Build 0)  -->
<!DOCTYPE svg PUBLIC "-//W3C//DTD SVG 1.1//EN" "http://www.w3.org/Graphics/SVG/1.1/DTD/svg11.dtd">
<svg version="1.1" id="Layer_1" xmlns="http://www.w3.org/2000/svg" xmlns:xlink="http://www.w3.org/1999/xlink" x="0px" y="0px"
	 width="150.3px" height="138.9px" viewBox="0 0 150.3 138.9" enable-background="new 0 0 150.3 138.9" xml:space="preserve">
<g>
	<path fill="#FFFFFF" d="M7,0C3.1,0,0,3.2,0,7v15.9c0,3.9,3.2,7,7,7h136.3c3.8,0,7-3.1,7-7V7c0-3.9-3.2-7-7-7H7z M144.3,16.9
		c0,3.9-3.2,7-7,7H13c-3.9,0-7-3.1-7-7V13c0-3.8,3.1-7,7-7h124.3c3.8,0,7,3.2,7,7V16.9z"/>
</g>
<g>
	<path fill="#FFFFFF" d="M31.8,55c-3.8,0-7,3.1-7,7v15.9c0,3.8,3.2,7,7,7h111.4c3.8,0,7-3.2,7-7V62c0-3.9-3.2-7-7-7H31.8z
		 M145.2,71.9c0,3.8-3.1,7-7,7H36.8c-3.9,0-7-3.2-7-7V68c0-3.8,3.1-7,7-7h101.4c3.9,0,7,3.1,7,7V71.9z"/>
</g>
<g>
	<path fill="#FFFFFF" d="M55.7,109c-3.8,0-7,3.2-7,7v15.9c0,3.8,3.2,7,7,7h87.6c3.8,0,7-3.2,7-7V116c0-3.8-3.2-7-7-7H55.7z
		 M146.2,125.9c0,3.8-3.1,7-7,7H59.8c-3.9,0-7-3.2-7-7V122c0-3.8,3.1-7,7-7h79.5c3.9,0,7,3.2,7,7V125.9z"/>
</g>
</svg>
