<?xml version="1.0" encoding="utf-8"?>
<!-- Generator: Adobe Illustrator 18.1.1, SVG Export Plug-In . SVG Version: 6.00 Build 0)  -->
<!DOCTYPE svg PUBLIC "-//W3C//DTD SVG 1.1//EN" "http://www.w3.org/Graphics/SVG/1.1/DTD/svg11.dtd">
<svg version="1.1" id="Layer_1" xmlns="http://www.w3.org/2000/svg" xmlns:xlink="http://www.w3.org/1999/xlink" x="0px" y="0px"
	 width="300px" height="225.6px" viewBox="0 0 300 225.6" enable-background="new 0 0 300 225.6" xml:space="preserve">
<path fill="#FFFFFF" d="M150,23.7C49,23.7,2.8,108.1,2.8,108.1s42.6,93.8,147.2,93.8s146.7-93.8,146.7-93.8S251,23.7,150,23.7z
	 M258,151.1c-30.1,29.8-66.4,44.8-108,44.8c-41.8,0-78.3-15.2-108.6-45.2c-18-17.8-28.3-35.7-31.8-42.4c3.9-6.2,14.8-22.3,33.2-38.2
	c30.9-26.8,67-40.4,107.2-40.4c40.4,0,76.5,13.7,107.2,40.7c18.1,15.9,28.8,31.8,32.6,37.9C286.4,115.1,276.1,133.2,258,151.1z"/>
<path fill="#FFFFFF" d="M150,75.7c-20.5,0-37.1,16.6-37.1,37.1c0,20.5,16.6,37.1,37.1,37.1s37.1-16.6,37.1-37.1
	C187.1,92.3,170.5,75.7,150,75.7z M150,143.9c-17.1,0-31.1-13.9-31.1-31.1s13.9-31.1,31.1-31.1s31.1,13.9,31.1,31.1
	S167.1,143.9,150,143.9z"/>
</svg>
