<?xml version="1.0" encoding="utf-8"?>
<!-- Generator: Adobe Illustrator 18.1.1, SVG Export Plug-In . SVG Version: 6.00 Build 0)  -->
<!DOCTYPE svg PUBLIC "-//W3C//DTD SVG 1.1//EN" "http://www.w3.org/Graphics/SVG/1.1/DTD/svg11.dtd">
<svg version="1.1" id="Layer_1" xmlns="http://www.w3.org/2000/svg" xmlns:xlink="http://www.w3.org/1999/xlink" x="0px" y="0px"
	 width="100px" height="100px" viewBox="-99 101 100 100" enable-background="new -99 101 100 100" xml:space="preserve">
<g id="Captions" display="none">
	<rect x="-227" y="98.4" display="inline" width="137" height="73.3"/>
	<rect x="-84.7" y="71.7" display="inline" width="74.1" height="22.2"/>
	<text transform="matrix(1 0 0 1 -35.8521 83.963)" display="inline" font-family="'Helvetica'" font-size="1.7778">http://thenounproject.com</text>
	<text transform="matrix(1 0 0 1 -79.4326 80.2597)" display="inline" font-family="'Helvetica-Bold'" font-size="4.5613">The Noun Project</text>
	<text transform="matrix(1 0 0 1 -78.6034 83.815)" display="inline" font-family="'Helvetica-Bold'" font-size="2.963">Icon Template</text>
	<text transform="matrix(1 0 0 1 -216.9629 106.1855)" display="inline" font-family="'Helvetica-Bold'" font-size="4.5613">Reminders</text>
	<line display="inline" fill="none" stroke="#FFFFFF" stroke-miterlimit="10" x1="-78.8" y1="87.7" x2="-71.4" y2="87.7"/>
	<line display="inline" fill="none" stroke="#FFFFFF" stroke-miterlimit="10" x1="-217.3" y1="110.6" x2="-204.7" y2="110.6"/>
	<g display="inline">
		<g>
			<g>
				<rect x="-211.3" y="121.6" width="6.5" height="6.4"/>
				<path d="M-206.6,129.7h3.5v-3.5h-3.5V129.7z M-202.7,130.1h-4.2v-4.1h4.2V130.1L-202.7,130.1z M-207.9,131h6.1V125h-6.1V131
					L-207.9,131z M-201.4,131.4h-6.8v-6.7h6.8V131.4L-201.4,131.4z"/>
				<polygon points="-207.8,131.1 -207.9,131 -201.8,124.9 -201.7,125 				"/>
			</g>
		</g>
	</g>
	<rect x="-217.3" y="141.4" display="inline" fill="none" width="25.9" height="24.1"/>
	<text transform="matrix(1 0 0 1 -217.3335 142.9483)" display="inline" font-family="'Helvetica-Bold'" font-size="2.2222">Strokes</text>
	<text transform="matrix(1 0 0 1 -217.3335 146.652)" display="inline" font-family="'Helvetica'" font-size="1.7778">Try to keep strokes at 4px</text>
	<text transform="matrix(1 0 0 1 -217.3335 150.3554)" display="inline" font-family="'Helvetica'" font-size="1.7778">Minimum stroke weight is 2px</text>
	<text transform="matrix(1 0 0 1 -217.3335 153.689)" display="inline" font-family="'Helvetica'" font-size="1.7778">For thicker strokes use even </text>
	<text transform="matrix(1 0 0 1 -217.3335 155.9111)" display="inline" font-family="'Helvetica'" font-size="1.7778">numbers: 6px, 8px etc.</text>
	<text transform="matrix(1 0 0 1 -217.3335 159.2446)" display="inline" font-family="'Helvetica-Bold'" font-size="1.7778">Remember to expand strokes </text>
	<text transform="matrix(1 0 0 1 -217.3335 161.4667)" display="inline" font-family="'Helvetica-Bold'" font-size="1.7778">before saving as an SVG </text>
	<rect x="-185.9" y="141.4" display="inline" fill="none" width="25.9" height="24.1"/>
	<text transform="matrix(1 0 0 1 -185.8521 142.9483)" display="inline" font-family="'Helvetica-Bold'" font-size="2.2222">Size</text>
	<text transform="matrix(1 0 0 1 -185.8521 146.652)" display="inline" font-family="'Helvetica'" font-size="1.7778">Cannot be wider or taller than </text>
	<text transform="matrix(1 0 0 1 -185.8521 149.2446)" display="inline" font-family="'Helvetica'" font-size="1.7778">100px (artboard size)</text>
	<text transform="matrix(1 0 0 1 -185.8521 152.9483)" display="inline" font-family="'Helvetica'" font-size="1.7778">Scale your icon to fill as much of </text>
	<text transform="matrix(1 0 0 1 -185.8521 155.1704)" display="inline" font-family="'Helvetica'" font-size="1.7778">the artboard as possible</text>
	<rect x="-154.4" y="141.4" display="inline" fill="none" width="25.9" height="24.1"/>
	<text transform="matrix(1 0 0 1 -154.3705 142.9483)" display="inline" font-family="'Helvetica-Bold'" font-size="2.2222">Ungroup</text>
	<text transform="matrix(1 0 0 1 -154.3705 146.652)" display="inline" font-family="'Helvetica'" font-size="1.7778">If your design has more than one </text>
	<text transform="matrix(1 0 0 1 -154.3705 148.874)" display="inline" font-family="'Helvetica'" font-size="1.7778">shape, make sure to ungroup</text>
	<rect x="-121.8" y="141.4" display="inline" fill="none" width="25.9" height="24.1"/>
	<text transform="matrix(1 0 0 1 -121.7783 142.9483)" display="inline" font-family="'Helvetica-Bold'" font-size="2.2222">Save as</text>
	<text transform="matrix(1 0 0 1 -121.7783 146.652)" display="inline" font-family="'Helvetica'" font-size="1.7778">Save as .SVG and make sure “Use </text>
	<text transform="matrix(1 0 0 1 -121.7783 148.874)" display="inline" font-family="'Helvetica'" font-size="1.7778">Artboards” is checked</text>
	<text transform="matrix(1.0074 0 0 1 -177.7345 121.0693)" display="inline" font-family="'Helvetica'" font-size="1.906">100px</text>
	<text transform="matrix(1.0074 0 0 1 -115.111 127.2968)" display="inline" font-family="'Helvetica-Bold'" font-size="3.812">.SVG</text>
	<rect x="-178.5" y="124.2" display="inline" width="7.6" height="7.5"/>
	<rect x="-178.4" y="121.9" display="inline" width="0.4" height="1.7"/>
	<rect x="-171.3" y="121.9" display="inline" width="0.4" height="1.7"/>
	<rect x="-178.8" y="122.4" display="inline" width="8.3" height="0.4"/>
	<g display="inline">
		<rect x="-146.8" y="123.5" width="7.6" height="7.5"/>
		<rect x="-141.6" y="119.7" width="2.5" height="2.4"/>
	</g>
	<rect x="-217" y="115.1" display="inline" stroke="#FFFFFF" stroke-miterlimit="10" width="22.2" height="22.2"/>
	<rect x="-185.9" y="115.1" display="inline" stroke="#FFFFFF" stroke-miterlimit="10" width="22.2" height="22.2"/>
	<rect x="-154" y="115.1" display="inline" stroke="#FFFFFF" stroke-miterlimit="10" width="22.2" height="22.2"/>
	<rect x="-121.4" y="115.1" display="inline" stroke="#FFFFFF" stroke-miterlimit="10" width="22.2" height="22.2"/>
</g>
<g id="Your_Icon">
	<path id="video" fill="#F4663B" d="M-5.6,118.4c-0.8,0-1.4,0.3-1.9,0.8l-17.1,17.1v-1.6h0v-5.4c0-6-4.9-10.9-10.9-10.9h-48.8
		c-6,0-10.9,4.9-10.9,10.9v43.4c0,6,4.9,10.9,10.9,10.9h48.8c6,0,10.9-4.9,10.9-10.9v-5.4h0v-1.6l17.1,17.1c0.5,0.5,1.2,0.8,1.9,0.8
		c1.5,0,2.7-1.2,2.7-2.7v-59.7C-2.9,119.7-4.1,118.4-5.6,118.4z M-25.4,157.2c-0.5-0.5-1.2-0.8-1.9-0.8c-1.5,0-2.7,1.2-2.7,2.7v8.1
		v2.7v2.7c0,3-2.4,5.4-5.4,5.4h-48.8c-3,0-5.4-2.4-5.4-5.4v-43.4c0-3,2.4-5.4,5.4-5.4h48.8c3,0,5.4,2.4,5.4,5.4v2.7v2.7v8.1
		c0,1.5,1.2,2.7,2.7,2.7c0.8,0,1.4-0.3,1.9-0.8l17.1-17.1v46.6L-25.4,157.2z"/>
</g>
</svg>
