<?xml version="1.0" encoding="utf-8"?>
<!-- Generator: Adobe Illustrator 18.1.1, SVG Export Plug-In . SVG Version: 6.00 Build 0)  -->
<!DOCTYPE svg PUBLIC "-//W3C//DTD SVG 1.1//EN" "http://www.w3.org/Graphics/SVG/1.1/DTD/svg11.dtd">
<svg version="1.1" id="Layer_1" xmlns="http://www.w3.org/2000/svg" xmlns:xlink="http://www.w3.org/1999/xlink" x="0px" y="0px"
	 width="300px" height="300px" viewBox="0 0 300 300" enable-background="new 0 0 300 300" xml:space="preserve">
<g>
	<g>
		<path fill="#FFFFFF" d="M281.6,1.3h-16.8L155.6,110.5c-1.2-1.2-2.7-1.7-4.2-1.7c-1.5,0-3,0.6-4.2,1.7l-29.4,29.4
			c-1.8,1.8-4.9,2.9-7.7,2.9c-0.8,0-1.5-0.1-2.2-0.3l-34.7-9.5c-0.7-0.2-1.5-0.3-2.2-0.3c-2.8,0-5.9,1.1-7.7,2.9L4.4,194.5
			c-2.3,2.3-2.9,6.6-1.4,9.4c0,0,16.3,30.7,39.2,53.6c22.9,22.9,53.5,39.2,53.5,39.2c1.1,0.6,2.3,0.8,3.6,0.8c2.2,0,4.4-0.8,5.9-2.2
			l58.8-58.8c2.3-2.3,3.5-6.8,2.6-9.9l-9.5-34.7c-0.9-3.2,0.3-7.6,2.6-9.9l29.4-29.4c2.3-2.3,2.3-6.1,0-8.4l-2.1-2.1l4.2-4.2
			l2.1,2.1l8.4-8.4v-4.2h4.2l8.4-8.4v-4.2h4.2L269,64.3v-4.2h4.2l25.2-25.2V18.1L281.6,1.3z M155.6,177.7
			c-3.9,3.8-5.6,10.5-4.2,15.7l9.5,34.7c0.3,1.1-0.3,3.3-1.1,4.1L101,291.1c-0.2,0.2-0.9,0.5-1.6,0.5c-0.4,0-0.7-0.1-0.8-0.1
			c-0.3-0.2-30.2-16.2-52.1-38.2c-21.9-21.9-38-51.8-38.2-52.1c-0.3-0.6-0.1-2,0.4-2.4l58.8-58.8c0.5-0.5,2-1.2,3.5-1.2
			c0.4,0,0.6,0.1,0.7,0.1l34.7,9.5c1.2,0.3,2.5,0.5,3.8,0.5c4.5,0,9-1.8,11.9-4.7l29.4-29.4l4.2,4.2L267.3,7.3h2.8L140.2,137.1
			l4.2,4.2l134-134h0.7l2.4,2.4L147.2,144.1l4.2,4.2L285.8,14l4.2,4.2L153.5,154.6l5.1,5.1h10.9l13.5-13.5l2.1,2.1L155.6,177.7z
			 M292.4,32.5l-21.7,21.7H263v7.7l-46.9,46.9h-7.7v7.7l-4.9,4.9h-7.7v7.7l-2.4,2.4l-2.1-2.1L178.7,142l0,0L167,153.7h-4.2
			L292.4,24.1V32.5z M109,152.1l-38.9-10.6l-58.6,58.6c0.1,0.2,0.2,0.4,0.4,0.6c6.7,11.5,19.2,33,36.7,50.5
			C66,268.6,87.5,281.1,99,287.9c0.2,0.1,0.4,0.2,0.6,0.4l58.6-58.6l-10.6-38.9L109,152.1z M98.7,280.8
			c-11.8-6.9-30.6-18.5-45.9-33.8c-15.3-15.3-26.9-34.1-33.8-45.9l52.9-52.9l34,9.3l36.4,36.4l9.3,34L98.7,280.8z M71.6,210.3
			c-4.6,0-9.1,1.7-12.6,5.2c-7,7-7,18.2,0,25.2c3.5,3.5,8,5.2,12.6,5.2c4.6,0,9.1-1.7,12.6-5.2c7-7,7-18.2,0-25.2
			C80.8,212,76.2,210.3,71.6,210.3z M80,236.5c-2.2,2.2-5.2,3.5-8.4,3.5c-3.2,0-6.1-1.2-8.4-3.5c-2.2-2.2-3.5-5.2-3.5-8.4
			c0-3.2,1.2-6.1,3.5-8.4c2.2-2.2,5.2-3.5,8.4-3.5c3.2,0,6.1,1.2,8.4,3.5c2.2,2.2,3.5,5.2,3.5,8.4S82.3,234.3,80,236.5z"/>
	</g>
</g>
</svg>
