<?xml version="1.0" encoding="utf-8"?>
<!-- Generator: Adobe Illustrator 18.1.1, SVG Export Plug-In . SVG Version: 6.00 Build 0)  -->
<!DOCTYPE svg PUBLIC "-//W3C//DTD SVG 1.1//EN" "http://www.w3.org/Graphics/SVG/1.1/DTD/svg11.dtd">
<svg version="1.1" id="Layer_1" xmlns="http://www.w3.org/2000/svg" xmlns:xlink="http://www.w3.org/1999/xlink" x="0px" y="0px"
	 width="300px" height="300px" viewBox="0 0 300 300" enable-background="new 0 0 300 300" xml:space="preserve">
<path fill="#FFFFFF" d="M150,12.5C74,12.5,12.5,74,12.5,150S74,287.5,150,287.5S287.5,226,287.5,150S226,12.5,150,12.5z M150,250.5
	c-55.5,0-100.5-45-100.5-100.5S94.5,49.5,150,49.5s100.5,45,100.5,100.5S205.5,250.5,150,250.5z"/>
<g>
	<path fill="#FFFFFF" d="M210.3,188.3c2.7,2.7,3,7.4,0.2,10.2L199,210c-2.8,2.8-7.5,2.6-10.2-0.2l-38.4-38.4L112,209.8
		c-2.7,2.7-7.4,3-10.2,0.2l-11.5-11.5c-2.8-2.8-2.6-7.5,0.2-10.2l38.4-38.4l-38.5-38.5c-2.7-2.7-2.7-7.2,0.1-10l11.5-11.5
		c2.7-2.7,7.1-2.9,9.9,0l38.5,38.5l38.6-38.6c2.7-2.7,7.2-2.7,10,0.1l11.5,11.5c2.7,2.7,2.9,7.1,0,9.9l-38.6,38.6L210.3,188.3z"/>
</g>
</svg>
