<?xml version="1.0" encoding="utf-8"?>
<!-- Generator: Adobe Illustrator 18.1.1, SVG Export Plug-In . SVG Version: 6.00 Build 0)  -->
<!DOCTYPE svg PUBLIC "-//W3C//DTD SVG 1.1//EN" "http://www.w3.org/Graphics/SVG/1.1/DTD/svg11.dtd">
<svg version="1.1" id="Layer_1" xmlns="http://www.w3.org/2000/svg" xmlns:xlink="http://www.w3.org/1999/xlink" x="0px" y="0px"
	 width="100px" height="100px" viewBox="-99 101 100 100" enable-background="new -99 101 100 100" xml:space="preserve">
<path fill="#FFFFFF" d="M-49,198.6c-3,0-6-0.3-8.9-0.8c-12.5-2.4-23.3-9.5-30.4-20s-9.8-23.2-7.4-35.6c4.3-22.4,23.9-38.7,46.7-38.7
	c3,0,6,0.3,8.9,0.8c12.5,2.4,23.3,9.5,30.4,20s9.8,23.2,7.4,35.6C-6.6,182.3-26.2,198.6-49,198.6z M-49.1,108.6
	c-20.3,0-37.8,14.5-41.6,34.5c-2.1,11.1,0.2,22.4,6.6,31.8c6.4,9.4,16,15.7,27.1,17.8c2.6,0.5,5.3,0.8,8,0.8
	c20.3,0,37.8-14.5,41.6-34.5c2.1-11.1-0.2-22.4-6.6-31.8s-16-15.7-27.1-17.8C-43.7,108.9-46.4,108.6-49.1,108.6z"/>
<path fill="#FFFFFF" d="M-64.4,158.5c-0.1,0-0.1,0-0.2,0c-13.2-0.9-28.3-13.4-27.3-27.5c0.1-1.4,1.3-2.5,2.8-2.4
	c1.4,0.1,2.5,1.3,2.4,2.8c-0.6,9.2,9.6,21.1,22.5,22c1.4,0.1,2.5,1.3,2.4,2.8C-61.9,157.5-63.1,158.5-64.4,158.5z"/>
<path fill="#FFFFFF" d="M-57.4,197.8c-1.2,0-2.2-0.8-2.5-2c-0.4-1.4,0.5-2.8,1.9-3.1c10.5-2.7,18.5-16.3,15.8-27
	c-0.4-1.4,0.5-2.8,1.9-3.1c1.4-0.4,2.8,0.5,3.1,1.9c3.4,13.4-6.3,29.9-19.5,33.3C-57,197.7-57.2,197.8-57.4,197.8z"/>
<path fill="#FFFFFF" d="M-45.8,137.4c-0.5,0-1-0.1-1.4-0.4c-1.2-0.8-1.6-2.4-0.8-3.6c3.7-5.9,10.7-10.4,18.7-12.1
	c7.3-1.5,14.4-0.4,19.5,3.1c1.2,0.8,1.5,2.4,0.7,3.6c-0.8,1.2-2.4,1.5-3.6,0.7c-3.9-2.7-9.6-3.5-15.5-2.3c-6.6,1.4-12.4,5-15.4,9.8
	C-44.1,137-44.9,137.4-45.8,137.4z"/>
<path fill="#FFFFFF" d="M-49,168.5c-1.1,0-2.2-0.1-3.3-0.3c-9.4-1.8-15.6-10.9-13.8-20.3c1.6-8.2,8.7-14.1,17-14.1
	c1.1,0,2.2,0.1,3.3,0.3c4.6,0.9,8.5,3.5,11.1,7.3c2.6,3.8,3.6,8.4,2.7,13C-33.5,162.6-40.7,168.5-49,168.5z M-49,139
	c-5.8,0-10.9,4.2-11.9,9.9c-1.3,6.6,3.1,13,9.7,14.2c0.8,0.1,1.5,0.2,2.3,0.2c5.8,0,10.9-4.2,11.9-9.9c0.6-3.2-0.1-6.4-1.9-9.1
	c-1.8-2.7-4.6-4.5-7.8-5.1C-47.5,139.1-48.3,139-49,139z"/>
</svg>
