<?xml version="1.0" encoding="utf-8"?>
<!-- Generator: Adobe Illustrator 18.1.1, SVG Export Plug-In . SVG Version: 6.00 Build 0)  -->
<!DOCTYPE svg PUBLIC "-//W3C//DTD SVG 1.1//EN" "http://www.w3.org/Graphics/SVG/1.1/DTD/svg11.dtd">
<svg version="1.1" id="Layer_1" xmlns="http://www.w3.org/2000/svg" xmlns:xlink="http://www.w3.org/1999/xlink" x="0px" y="0px"
	 width="185.5px" height="60px" viewBox="0 0 185.5 60" enable-background="new 0 0 185.5 60" xml:space="preserve">
<g>
	<g>
		<path fill="#5A4A6B" d="M39.1,9.9L22.8,0.5c0,0,0,0,0,0c-1.2-0.7-3.1-0.7-4.3,0c0,0,0,0,0,0L2.2,9.9C1,10.6,0,12.3,0,13.7v18.8
			c0,1.4,1,3.1,2.2,3.7l16.3,9.4c0,0,0,0,0,0c1.2,0.7,3.1,0.7,4.3,0c0,0,0,0,0,0l16.3-9.4c1.2-0.7,2.2-2.4,2.2-3.7V13.7
			C41.3,12.3,40.3,10.6,39.1,9.9z M18.9,41.9L3.5,33V15.2l15.4,8.9V41.9z M5.2,12.2l15.4-8.9L36,12.2l-15.4,8.9L5.2,12.2z M37.8,33
			l-15.4,8.9V24.1l15.4-8.9V33z"/>
		<g>
			<path fill="#5A4A6B" d="M23.4,48.1l-2.2,11.4c-0.1,0.6-1,0.6-1.1,0l-2.2-11.4c0.8,0.3,1.8,0.5,2.8,0.5
				C21.6,48.7,22.6,48.5,23.4,48.1z"/>
			<path fill="#5A4A6B" d="M29.6,44.6l-1.7,9.2c-0.1,0.6-1,0.6-1.1,0L25.5,47L29.6,44.6z"/>
			<path fill="#5A4A6B" d="M35.1,41.4l-1.3,7.3c-0.1,0.6-1,0.6-1.1,0l-1-5.3L35.1,41.4z"/>
			<path fill="#5A4A6B" d="M39.8,38.7l-0.9,5.5c-0.1,0.6-1,0.6-1.1,0l-0.7-3.9L39.8,38.7z"/>
			<path fill="#5A4A6B" d="M15.5,46.8l-1.3,7c-0.1,0.6-1,0.6-1.1,0l-1.8-9.4L15.5,46.8z"/>
			<path fill="#5A4A6B" d="M9.3,43.2l-1,5.5c-0.1,0.6-1,0.6-1.1,0l-1.3-7.4L9.3,43.2z"/>
			<path fill="#5A4A6B" d="M4.2,40.3l-0.7,3.9c-0.1,0.6-1,0.6-1.1,0l-0.9-5.5L4.2,40.3z"/>
		</g>
	</g>
	<g>
		<g>
			<path fill="#5A4A6B" d="M46.9,13.8c0-0.8,0.4-1.3,1.2-1.3h1.4c0.8,0,1.2,0.5,1.2,1.3v16.7h7.9c0.8,0,1.3,0.4,1.3,1.2v0.8
				c0,0.8-0.4,1.3-1.3,1.3H48.1c-0.8,0-1.2-0.4-1.2-1.3V13.8z"/>
			<path fill="#5A4A6B" d="M69.7,24.4h0.6v-0.4c0-2-1.3-2.7-2.9-2.7c-1.3,0-2.5,0.5-3.2,0.9c-0.8,0.3-1.3,0.2-1.7-0.5l-0.3-0.6
				c-0.4-0.7-0.2-1.3,0.5-1.7c1-0.5,2.7-1.3,5-1.3c4,0,6.3,2.2,6.3,6.1v8.3c0,0.8-0.4,1.3-1.3,1.3h-1c-0.8,0-1.2-0.4-1.2-1.3V32
				c0-0.4,0.1-0.7,0.1-0.7h-0.1c0,0-1.4,2.9-4.8,2.9c-2.8,0-5.1-1.8-5.1-4.6C60.8,25.2,66.3,24.4,69.7,24.4z M66.9,31.3
				c2.1,0,3.5-2.2,3.5-4v-0.6h-0.6c-1.9,0-5.2,0.3-5.2,2.6C64.6,30.3,65.3,31.3,66.9,31.3z"/>
			<path fill="#5A4A6B" d="M75.5,19.8c0-0.8,0.5-1.3,1.3-1.3H78c0.8,0,1.3,0.4,1.3,1.3v7.8c0,1.9,0.5,3.1,2.4,3.1
				c2.8,0,4.3-2.4,4.3-5.2v-5.8c0-0.8,0.4-1.3,1.3-1.3h1.3c0.8,0,1.3,0.4,1.3,1.3v12.8c0,0.8-0.4,1.3-1.3,1.3h-1.2
				c-0.8,0-1.2-0.4-1.2-1.3v-0.9c0-0.4,0.1-0.7,0.1-0.7h-0.1c-0.7,1.6-2.7,3.2-5.3,3.2c-3.3,0-5.3-1.6-5.3-5.8V19.8z"/>
			<path fill="#5A4A6B" d="M91.5,19.8c0-0.8,0.4-1.3,1.2-1.3h1.2c0.8,0,1.2,0.4,1.2,1.3v0.9c0,0.3-0.1,0.7-0.1,0.7h0.1
				c0.7-1.3,2.3-3.2,5.4-3.2c3.4,0,5.3,1.8,5.3,5.8v8.6c0,0.8-0.4,1.3-1.3,1.3h-1.3c-0.8,0-1.3-0.4-1.3-1.3v-7.8
				c0-1.9-0.5-3.1-2.4-3.1c-2.7,0-4.4,2.2-4.4,5v5.9c0,0.8-0.4,1.3-1.2,1.3h-1.3c-0.8,0-1.2-0.4-1.2-1.3V19.8z"/>
			<path fill="#5A4A6B" d="M115.8,18.2c2.5,0,4.1,0.9,5,1.5c0.6,0.4,0.7,1,0.2,1.7l-0.4,0.6c-0.5,0.7-1,0.7-1.7,0.3
				c-0.6-0.4-1.7-0.9-3-0.9c-2.8,0-4.6,2.1-4.6,4.7c0,2.6,1.8,4.8,4.8,4.8c1.5,0,2.7-0.7,3.4-1.2c0.8-0.4,1.3-0.3,1.7,0.4l0.3,0.6
				c0.4,0.7,0.3,1.3-0.3,1.7c-0.9,0.7-2.8,1.8-5.4,1.8c-5.1,0-8.3-3.6-8.3-8C107.5,21.9,110.8,18.2,115.8,18.2z"/>
			<path fill="#5A4A6B" d="M123.4,13.8c0-0.8,0.5-1.3,1.3-1.3h1.3c0.8,0,1.3,0.5,1.3,1.3V20c0,0.8-0.1,1.3-0.1,1.3h0.1
				c0.8-1.5,2.7-3.1,5.3-3.1c3.4,0,5.3,1.8,5.3,5.8v8.6c0,0.8-0.5,1.3-1.3,1.3h-1.3c-0.8,0-1.3-0.4-1.3-1.3v-7.8
				c0-1.9-0.5-3.1-2.4-3.1c-2.7,0-4.4,2.2-4.4,5.1v5.9c0,0.8-0.4,1.3-1.3,1.3h-1.3c-0.8,0-1.3-0.4-1.3-1.3V13.8z"/>
		</g>
		<g>
			<path fill="#5A4A6B" d="M139.8,13.8c0-0.8,0.4-1.3,1.2-1.3h6.4c3.8,0,6.6,2,6.6,5.5c0,2-1,3.7-2.6,4.6v0.1c2.3,0.7,3.4,2.8,3.4,5
				c0,4.3-3.4,6.2-7.3,6.2H141c-0.8,0-1.2-0.4-1.2-1.3V13.8z M147.4,21.3c1.7,0,2.6-1.2,2.6-2.7c0-1.5-0.9-2.6-2.7-2.6h-3.7v5.4
				H147.4z M147.7,30.5c2,0,3.1-1.3,3.1-3.1c0-1.8-1.1-3.1-3.1-3.1h-4.1v6.1H147.7z"/>
			<path fill="#5A4A6B" d="M164.3,18.2c4.6,0,8.4,3.3,8.4,8c0,4.7-3.8,8-8.4,8c-4.7,0-8.4-3.3-8.4-8
				C155.9,21.5,159.7,18.2,164.3,18.2z M164.3,31c2.5,0,4.6-1.9,4.6-4.8c0-2.8-2.1-4.8-4.6-4.8c-2.5,0-4.5,1.9-4.5,4.8
				C159.8,29.1,161.9,31,164.3,31z"/>
			<path fill="#5A4A6B" d="M176.6,26.1l-4-6.1c-0.6-0.8-0.2-1.5,0.8-1.5h1.5c0.7,0,1.1,0.3,1.5,0.9l1.9,3.3c0.2,0.4,0.5,1,0.5,1h0.1
				c0,0,0.3-0.6,0.5-1l1.9-3.3c0.3-0.6,0.8-0.9,1.5-0.9h1.5c1,0,1.4,0.7,0.8,1.5l-3.9,6.1l4.1,6.2c0.5,0.8,0.2,1.5-0.8,1.5H183
				c-0.7,0-1.1-0.3-1.5-0.9l-2.2-3.6c-0.2-0.3-0.4-0.8-0.4-0.8h-0.1c0,0-0.2,0.5-0.4,0.8l-2.2,3.6c-0.4,0.6-0.8,0.9-1.5,0.9h-1.5
				c-1,0-1.4-0.7-0.8-1.5L176.6,26.1z"/>
		</g>
	</g>
</g>
</svg>
