<?xml version="1.0" encoding="utf-8"?>
<!-- Generator: Adobe Illustrator 18.1.1, SVG Export Plug-In . SVG Version: 6.00 Build 0)  -->
<!DOCTYPE svg PUBLIC "-//W3C//DTD SVG 1.1//EN" "http://www.w3.org/Graphics/SVG/1.1/DTD/svg11.dtd">
<svg version="1.1" id="Layer_1" xmlns="http://www.w3.org/2000/svg" xmlns:xlink="http://www.w3.org/1999/xlink" x="0px" y="0px"
	 width="687.4px" height="140.7px" viewBox="194 80.3 687.4 140.7" enable-background="new 194 80.3 687.4 140.7"
	 xml:space="preserve">
<symbol  id="Star" viewBox="-2 -1.2 4 2.4">
	<g>
		<path fill="#65C7C8" d="M1.2,0c0-0.7-0.5-1.2-1.2-1.2S-1.2-0.7-1.2,0S-0.7,1.2,0,1.2S1.2,0.7,1.2,0z"/>
		<path fill="#6DCACB" d="M1.2,0c0-0.7-0.5-1.2-1.2-1.2S-1.2-0.7-1.2,0S-0.7,1.2,0,1.2S1.2,0.7,1.2,0z"/>
		<path fill="#74CDCE" d="M1.2,0c0-0.6-0.5-1.2-1.2-1.2S-1.2-0.6-1.2,0S-0.6,1.2,0,1.2S1.2,0.6,1.2,0z"/>
		<path fill="#7CCFD0" d="M1.1,0c0-0.6-0.5-1.1-1.1-1.1S-1.1-0.6-1.1,0S-0.6,1.1,0,1.1S1.1,0.6,1.1,0z"/>
		<path fill="#84D2D3" d="M1.1,0c0-0.6-0.5-1.1-1.1-1.1S-1.1-0.6-1.1,0S-0.6,1.1,0,1.1S1.1,0.6,1.1,0z"/>
		<path fill="#8CD5D6" d="M1.1,0c0-0.6-0.5-1.1-1.1-1.1S-1.1-0.6-1.1,0S-0.6,1.1,0,1.1S1.1,0.6,1.1,0z"/>
		<path fill="#93D8D9" d="M1,0c0-0.6-0.5-1-1-1s-1,0.5-1,1s0.5,1,1,1S1,0.6,1,0z"/>
		<path fill="#9BDBDB" d="M1,0c0-0.6-0.5-1-1-1s-1,0.5-1,1s0.5,1,1,1S1,0.6,1,0z"/>
		<path fill="#A3DDDE" d="M1,0c0-0.6-0.4-1-1-1s-1,0.4-1,1s0.4,1,1,1S1,0.6,1,0z"/>
		<path fill="#AAE0E1" d="M1,0c0-0.5-0.4-1-1-1s-1,0.4-1,1s0.4,1,1,1S1,0.5,1,0z"/>
		<path fill="#B2E3E3" d="M0.9,0c0-0.5-0.4-0.9-0.9-0.9S-0.9-0.5-0.9,0S-0.5,0.9,0,0.9S0.9,0.5,0.9,0z"/>
		<path fill="#BAE6E6" d="M0.9,0c0-0.5-0.4-0.9-0.9-0.9S-0.9-0.5-0.9,0S-0.5,0.9,0,0.9S0.9,0.5,0.9,0z"/>
		<path fill="#C1E9E9" d="M0.9,0c0-0.5-0.4-0.9-0.9-0.9S-0.9-0.5-0.9,0S-0.5,0.9,0,0.9S0.9,0.5,0.9,0z"/>
		<path fill="#C9EBEC" d="M0.9,0c0-0.5-0.4-0.9-0.9-0.9S-0.9-0.5-0.9,0S-0.5,0.9,0,0.9S0.9,0.5,0.9,0z"/>
		<path fill="#D1EEEE" d="M0.8,0c0-0.5-0.4-0.8-0.8-0.8S-0.8-0.5-0.8,0S-0.5,0.8,0,0.8S0.8,0.5,0.8,0z"/>
		<path fill="#D8F1F1" d="M0.8,0c0-0.5-0.4-0.8-0.8-0.8S-0.8-0.5-0.8,0S-0.5,0.8,0,0.8S0.8,0.5,0.8,0z"/>
		<path fill="#E0F4F4" d="M0.8,0c0-0.4-0.4-0.8-0.8-0.8S-0.8-0.4-0.8,0S-0.4,0.8,0,0.8S0.8,0.4,0.8,0z"/>
		<path fill="#E8F7F7" d="M0.8,0c0-0.4-0.3-0.8-0.8-0.8S-0.8-0.4-0.8,0S-0.4,0.8,0,0.8S0.8,0.4,0.8,0z"/>
		<path fill="#F0F9F9" d="M0.7,0c0-0.4-0.3-0.7-0.7-0.7S-0.7-0.4-0.7,0S-0.4,0.7,0,0.7S0.7,0.4,0.7,0z"/>
		<path fill="#F7FCFC" d="M0.7,0c0-0.4-0.3-0.7-0.7-0.7S-0.7-0.4-0.7,0S-0.4,0.7,0,0.7S0.7,0.4,0.7,0z"/>
		<path fill="#FFFFFF" d="M0.7,0c0-0.4-0.3-0.7-0.7-0.7S-0.7-0.4-0.7,0S-0.4,0.7,0,0.7S0.7,0.4,0.7,0z"/>
	</g>
	<polygon display="none" fill="none" points="-2,1 2,1 2,-1 -2,-1 	"/>
</symbol>
<g>
	<g>
		<g>
			<g>
				<defs>
					<circle id="SVGID_1_" cx="263.8" cy="150.6" r="68.7"/>
				</defs>
				<clipPath id="SVGID_2_">
					<use xlink:href="#SVGID_1_"  overflow="visible"/>
				</clipPath>
				
					<linearGradient id="SVGID_3_" gradientUnits="userSpaceOnUse" x1="313.3008" y1="62.2395" x2="198.2805" y2="261.4605" gradientTransform="matrix(1 0 0 -1 0 306.8)">
					<stop  offset="0" style="stop-color:#170B24"/>
					<stop  offset="3.019186e-02" style="stop-color:#341F50"/>
					<stop  offset="6.879635e-02" style="stop-color:#563681"/>
					<stop  offset="0.1027" style="stop-color:#6E46A5"/>
					<stop  offset="0.1302" style="stop-color:#7D50BB"/>
					<stop  offset="0.148" style="stop-color:#8254C3"/>
					<stop  offset="0.3418" style="stop-color:#664FA2"/>
					<stop  offset="0.5" style="stop-color:#48368F"/>
					<stop  offset="0.5151" style="stop-color:#46348A"/>
					<stop  offset="0.6569" style="stop-color:#382060"/>
					<stop  offset="0.7296" style="stop-color:#331950"/>
					<stop  offset="0.8939" style="stop-color:#201032"/>
					<stop  offset="1" style="stop-color:#170B24"/>
				</linearGradient>
				<rect x="169" y="62.2" clip-path="url(#SVGID_2_)" fill="url(#SVGID_3_)" width="173.6" height="165.4"/>
			</g>
		</g>
	</g>
	<g>
		<g>
			<g>
				<defs>
					<circle id="SVGID_4_" cx="263.8" cy="150.6" r="68.7"/>
				</defs>
				<clipPath id="SVGID_5_">
					<use xlink:href="#SVGID_4_"  overflow="visible"/>
				</clipPath>
				<g clip-path="url(#SVGID_5_)">
					
						<linearGradient id="SVGID_6_" gradientUnits="userSpaceOnUse" x1="2283.5779" y1="1218.6119" x2="2167.5615" y2="1419.558" gradientTransform="matrix(0 -1 -1 0 1575.1256 2365.2197)">
						<stop  offset="0" style="stop-color:#242408"/>
						<stop  offset="3.019186e-02" style="stop-color:#504F19"/>
						<stop  offset="6.879635e-02" style="stop-color:#817F2C"/>
						<stop  offset="0.1027" style="stop-color:#A5A23A"/>
						<stop  offset="0.1302" style="stop-color:#BBB743"/>
						<stop  offset="0.148" style="stop-color:#C3BF46"/>
						<stop  offset="0.3418" style="stop-color:#A29844"/>
						<stop  offset="0.5" style="stop-color:#8F812C"/>
						<stop  offset="0.5151" style="stop-color:#8A7D2A"/>
						<stop  offset="0.6569" style="stop-color:#605D19"/>
						<stop  offset="0.7296" style="stop-color:#505013"/>
						<stop  offset="0.8939" style="stop-color:#32320C"/>
						<stop  offset="1" style="stop-color:#242408"/>
					</linearGradient>
					<rect x="172.2" y="52.8" opacity="0.4" fill="url(#SVGID_6_)" enable-background="new    " width="167.7" height="173.6"/>
				</g>
			</g>
		</g>
	</g>
	<circle fill="none" cx="263.8" cy="150.6" r="68.7"/>
	<path fill="#FFFFFF" d="M222.1,147.2c0,0,0.1-0.1,0.2-0.2s0.1-0.1,0.2-0.2c0.1-0.1,0.2-0.2,0.3-0.3c0.4-0.5,1.1-1.1,1.9-1.8
		c0.9-0.7,2-1.5,3.2-2.3c0.6-0.4,1.4-0.8,2.1-1.2c0.4-0.2,0.7-0.4,1.1-0.6c0.2-0.1,0.4-0.2,0.6-0.4c0.2-0.1,0.4-0.2,0.6-0.4
		c1.6-0.9,3.4-1.9,5.4-2.8c0.5-0.2,1-0.5,1.5-0.7c0.2-0.1,0.5-0.2,0.8-0.4c0.2-0.1,0.5-0.2,0.8-0.3c1.1-0.4,2.1-0.8,3.2-1.3
		c2.2-0.8,4.5-1.6,6.8-2.2c0.6-0.2,1.2-0.4,1.8-0.5c0.6-0.2,1.2-0.3,1.8-0.4c0.6-0.1,1.2-0.3,1.8-0.4l0.9-0.2
		c0.3-0.1,0.6-0.1,0.9-0.2c1.2-0.2,2.4-0.4,3.6-0.6s2.4-0.3,3.6-0.5c0.3-0.1,0.6-0.1,0.9-0.1s0.6-0.1,0.9-0.1
		c0.6-0.1,1.2-0.1,1.8-0.1s1.2-0.1,1.8-0.1c0.6,0,1.2,0,1.8-0.1c0.6,0,1.2,0,1.7-0.1c0.3,0,0.6,0,0.8,0c0.3,0,0.6,0,0.8,0
		c1.1,0.1,2.2,0.1,3.2,0.1c0.1,0,0.2,0,0.4,0c0.1,0,0.2,0,0.4,0.1c0.2,0,0.5,0.1,0.8,0.1c0.5,0.1,1,0.1,1.5,0.1
		c0.5,0.1,1,0.1,1.5,0.1c0.2,0,0.5,0.1,0.7,0.1c0.2,0.1,0.5,0.1,0.7,0.1c0.9,0.1,1.8,0.2,2.6,0.4c0.2,0,0.4,0.1,0.6,0.1
		s0.4,0.1,0.6,0.1c0.4,0.1,0.8,0.2,1.1,0.2c1.5,0.3,2.8,0.5,3.8,0.8c2.1,0.5,3.3,0.8,3.3,0.8l-0.1,0.4c0,0-1.2-0.3-3.3-0.7
		c-1.1-0.2-2.4-0.4-3.8-0.7c-0.4-0.1-0.8-0.1-1.1-0.2c-0.2-0.1-0.4-0.1-0.6-0.1s-0.4-0.1-0.6-0.1c-0.8-0.1-1.7-0.2-2.6-0.3
		c-0.2,0-0.5-0.1-0.7-0.1s-0.5-0.1-0.7-0.1c-0.5,0-0.9-0.1-1.5-0.1c-0.5,0-1-0.1-1.5-0.1c-0.2,0-0.5-0.1-0.8-0.1c-0.1,0-0.2,0-0.4,0
		c-0.1,0-0.2,0-0.4,0c-1.1,0-2.1,0-3.2,0c-0.3,0-0.5,0-0.8,0s-0.5,0-0.8,0.1c-0.6,0-1.1,0.1-1.7,0.1s-1.2,0.1-1.7,0.1
		c-0.6,0.1-1.2,0.1-1.8,0.2c-0.6,0.1-1.2,0.1-1.8,0.2c-0.3,0-0.6,0.1-0.9,0.1c-0.3,0.1-0.6,0.1-0.9,0.1c-1.2,0.2-2.4,0.4-3.6,0.5
		c-1.2,0.2-2.4,0.5-3.6,0.7c-0.3,0.1-0.6,0.1-0.9,0.2l-0.9,0.2c-0.6,0.2-1.2,0.3-1.8,0.5c-0.6,0.2-1.2,0.3-1.8,0.5
		c-0.6,0.2-1.2,0.4-1.7,0.5c-2.3,0.6-4.5,1.5-6.6,2.4c-1.1,0.5-2.1,0.9-3.1,1.4c-0.2,0.1-0.5,0.2-0.8,0.3c-0.2,0.1-0.5,0.2-0.7,0.4
		c-0.5,0.2-0.9,0.5-1.4,0.7c-1.9,0.9-3.6,1.9-5.2,2.8c-0.2,0.1-0.4,0.2-0.6,0.4c-0.2,0.1-0.4,0.2-0.6,0.4c-0.4,0.2-0.7,0.5-1.1,0.7
		c-0.7,0.5-1.4,0.9-2,1.3c-1.2,0.8-2.2,1.6-3,2.2c-0.8,0.6-1.4,1.2-1.7,1.6c-0.1,0.1-0.2,0.2-0.2,0.2c-0.1,0.1-0.1,0.2-0.2,0.2
		c-0.1,0.1-0.1,0.2-0.1,0.2L222.1,147.2z"/>
	<circle fill="none" cx="263.8" cy="150.6" r="68.7"/>
	<circle fill="none" cx="263.8" cy="150.6" r="68.7"/>
	<g>
		<g>
			<g>
				<defs>
					<circle id="SVGID_7_" cx="263.8" cy="150.6" r="68.7"/>
				</defs>
				<clipPath id="SVGID_8_">
					<use xlink:href="#SVGID_7_"  overflow="visible"/>
				</clipPath>
				<g clip-path="url(#SVGID_8_)">
					
						<use xlink:href="#Star"  width="4" height="2.4" x="-2" y="-1.2" transform="matrix(0.3777 0 0 -0.3777 225.118 91.0822)" overflow="visible"/>
					
						<use xlink:href="#Star"  width="4" height="2.4" x="-2" y="-1.2" transform="matrix(0.3502 0 0 -0.3502 232.9633 74.0249)" overflow="visible"/>
					
						<use xlink:href="#Star"  width="4" height="2.4" x="-2" y="-1.2" transform="matrix(0.3018 0 0 -0.3018 243.7389 71.7358)" overflow="visible"/>
					
						<use xlink:href="#Star"  width="4" height="2.4" x="-2" y="-1.2" transform="matrix(0.2937 0 0 -0.2937 235.1843 108.9682)" overflow="visible"/>
					
						<use xlink:href="#Star"  width="4" height="2.4" x="-2" y="-1.2" transform="matrix(0.2937 0 0 -0.2937 189.4395 137.5615)" overflow="visible"/>
					
						<use xlink:href="#Star"  width="4" height="2.4" x="-2" y="-1.2" transform="matrix(0.2937 0 0 -0.2937 191.2183 134.9544)" overflow="visible"/>
					
						<use xlink:href="#Star"  width="4" height="2.4" x="-2" y="-1.2" transform="matrix(0.2937 0 0 -0.2937 276.9763 68.8028)" overflow="visible"/>
					
						<use xlink:href="#Star"  width="4" height="2.4" x="-2" y="-1.2" transform="matrix(0.2937 0 0 -0.2937 284.7535 65.8428)" overflow="visible"/>
					
						<use xlink:href="#Star"  width="4" height="2.4" x="-2" y="-1.2" transform="matrix(0.2937 0 0 -0.2937 200.1207 148.79)" overflow="visible"/>
					
						<use xlink:href="#Star"  width="4" height="2.4" x="-2" y="-1.2" transform="matrix(0.2937 0 0 -0.2937 160.522 174.0115)" overflow="visible"/>
					
						<use xlink:href="#Star"  width="4" height="2.4" x="-2" y="-1.2" transform="matrix(0.2937 0 0 -0.2937 275.7519 103.2845)" overflow="visible"/>
					
						<use xlink:href="#Star"  width="4" height="2.4" x="-2" y="-1.2" transform="matrix(0.2937 0 0 -0.2937 290.9984 91.7298)" overflow="visible"/>
					
						<use xlink:href="#Star"  width="4" height="2.4" x="-2" y="-1.2" transform="matrix(0.3601 0 0 -0.3601 231.24 174.3168)" overflow="visible"/>
					
						<use xlink:href="#Star"  width="4" height="2.4" x="-2" y="-1.2" transform="matrix(0.3077 0 0 -0.3077 207.7621 198.3327)" overflow="visible"/>
					
						<use xlink:href="#Star"  width="4" height="2.4" x="-2" y="-1.2" transform="matrix(0.3049 0 0 -0.3049 309.66 129.0846)" overflow="visible"/>
					
						<use xlink:href="#Star"  width="4" height="2.4" x="-2" y="-1.2" transform="matrix(0.3377 0 0 -0.3377 326.4903 120.1865)" overflow="visible"/>
					
						<use xlink:href="#Star"  width="4" height="2.4" x="-2" y="-1.2" transform="matrix(0.3057 0 0 -0.3057 257.782 210.0587)" overflow="visible"/>
					
						<use xlink:href="#Star"  width="4" height="2.4" x="-2" y="-1.2" transform="matrix(0.3058 0 0 -0.3058 253.1574 213.149)" overflow="visible"/>
					
						<use xlink:href="#Star"  width="4" height="2.4" x="-2" y="-1.2" transform="matrix(0.2937 0 0 -0.2937 337.2913 148.0909)" overflow="visible"/>
					
						<use xlink:href="#Star"  width="4" height="2.4" x="-2" y="-1.2" transform="matrix(0.2937 0 0 -0.2937 317.1006 186.4501)" overflow="visible"/>
					
						<use xlink:href="#Star"  width="4" height="2.4" x="-2" y="-1.2" transform="matrix(0.2937 0 0 -0.2937 296.1914 207.4809)" overflow="visible"/>
					
						<use xlink:href="#Star"  width="4" height="2.4" x="-2" y="-1.2" transform="matrix(0.2937 0 0 -0.2937 308.6801 160.7662)" overflow="visible"/>
					
						<use xlink:href="#Star"  width="4" height="2.4" x="-2" y="-1.2" transform="matrix(0.3991 0 0 -0.3991 246.1084 184.751)" overflow="visible"/>
					
						<use xlink:href="#Star"  width="4" height="2.4" x="-2" y="-1.2" transform="matrix(0.2937 0 0 -0.2937 266.2073 128.9686)" overflow="visible"/>
					
						<use xlink:href="#Star"  width="4" height="2.4" x="-2" y="-1.2" transform="matrix(0.2937 0 0 -0.2937 268.7951 129.5166)" overflow="visible"/>
					
						<use xlink:href="#Star"  width="4" height="2.4" x="-2" y="-1.2" transform="matrix(0.2937 0 0 -0.2937 251.4224 150.8617)" overflow="visible"/>
					
						<use xlink:href="#Star"  width="4" height="2.4" x="-2" y="-1.2" transform="matrix(0.2937 0 0 -0.2937 291.2524 112.3432)" overflow="visible"/>
					
						<use xlink:href="#Star"  width="4" height="2.4" x="-2" y="-1.2" transform="matrix(0.3465 0 0 -0.3465 228.7709 172.7184)" overflow="visible"/>
					
						<use xlink:href="#Star"  width="4" height="2.4" x="-2" y="-1.2" transform="matrix(0.2937 0 0 -0.2937 241.1936 131.3963)" overflow="visible"/>
					
						<use xlink:href="#Star"  width="4" height="2.4" x="-2" y="-1.2" transform="matrix(0.2937 0 0 -0.2937 247.4466 127.9632)" overflow="visible"/>
					
						<use xlink:href="#Star"  width="4" height="2.4" x="-2" y="-1.2" transform="matrix(0.2945 0 0 -0.2945 209.2005 170.4201)" overflow="visible"/>
					
						<use xlink:href="#Star"  width="4" height="2.4" x="-2" y="-1.2" transform="matrix(0.2937 0 0 -0.2937 230.8937 109.422)" overflow="visible"/>
					
						<use xlink:href="#Star"  width="4" height="2.4" x="-2" y="-1.2" transform="matrix(0.2937 0 0 -0.2937 204.4694 126.3023)" overflow="visible"/>
					
						<use xlink:href="#Star"  width="4" height="2.4" x="-2" y="-1.2" transform="matrix(0.3281 0 0 -0.3281 211.1327 102.7939)" overflow="visible"/>
					
						<use xlink:href="#Star"  width="4" height="2.4" x="-2" y="-1.2" transform="matrix(0.3506 0 0 -0.3506 229.4842 69.6622)" overflow="visible"/>
					
						<use xlink:href="#Star"  width="4" height="2.4" x="-2" y="-1.2" transform="matrix(0.2937 0 0 -0.2937 197.9464 143.3338)" overflow="visible"/>
					
						<use xlink:href="#Star"  width="4" height="2.4" x="-2" y="-1.2" transform="matrix(0.2937 0 0 -0.2937 227.2376 110.61)" overflow="visible"/>
					
						<use xlink:href="#Star"  width="4" height="2.4" x="-2" y="-1.2" transform="matrix(0.2937 0 0 -0.2937 236.1742 128.8157)" overflow="visible"/>
					
						<use xlink:href="#Star"  width="4" height="2.4" x="-2" y="-1.2" transform="matrix(0.2937 0 0 -0.2937 214.6397 163.8304)" overflow="visible"/>
					
						<use xlink:href="#Star"  width="4" height="2.4" x="-2" y="-1.2" transform="matrix(0.2937 0 0 -0.2937 282.1602 91.588)" overflow="visible"/>
					
						<use xlink:href="#Star"  width="4" height="2.4" x="-2" y="-1.2" transform="matrix(0.3107 0 0 -0.3107 246.4162 167.5279)" overflow="visible"/>
					
						<use xlink:href="#Star"  width="4" height="2.4" x="-2" y="-1.2" transform="matrix(0.3682 0 0 -0.3682 241.0423 175.9074)" overflow="visible"/>
					
						<use xlink:href="#Star"  width="4" height="2.4" x="-2" y="-1.2" transform="matrix(0.3599 0 0 -0.3599 320.5788 99.5581)" overflow="visible"/>
					
						<use xlink:href="#Star"  width="4" height="2.4" x="-2" y="-1.2" transform="matrix(0.3113 0 0 -0.3113 260.0849 204.6901)" overflow="visible"/>
					
						<use xlink:href="#Star"  width="4" height="2.4" x="-2" y="-1.2" transform="matrix(0.2937 0 0 -0.2937 284.5996 152.2174)" overflow="visible"/>
					
						<use xlink:href="#Star"  width="4" height="2.4" x="-2" y="-1.2" transform="matrix(0.354 0 0 -0.354 324.9127 98.1745)" overflow="visible"/>
					
						<use xlink:href="#Star"  width="4" height="2.4" x="-2" y="-1.2" transform="matrix(0.2944 0 0 -0.2944 272.9002 190.7413)" overflow="visible"/>
					
						<use xlink:href="#Star"  width="4" height="2.4" x="-2" y="-1.2" transform="matrix(0.2937 0 0 -0.2937 310.9026 142.9476)" overflow="visible"/>
					
						<use xlink:href="#Star"  width="4" height="2.4" x="-2" y="-1.2" transform="matrix(0.2937 0 0 -0.2937 314.1618 195.1611)" overflow="visible"/>
					
						<use xlink:href="#Star"  width="4" height="2.4" x="-2" y="-1.2" transform="matrix(0.2937 0 0 -0.2937 314.1876 210.5055)" overflow="visible"/>
					
						<use xlink:href="#Star"  width="4" height="2.4" x="-2" y="-1.2" transform="matrix(0.2937 0 0 -0.2937 268.4432 172.7588)" overflow="visible"/>
					
						<use xlink:href="#Star"  width="4" height="2.4" x="-2" y="-1.2" transform="matrix(0.2937 0 0 -0.2937 226.1443 148.5287)" overflow="visible"/>
					
						<use xlink:href="#Star"  width="4" height="2.4" x="-2" y="-1.2" transform="matrix(0.2937 0 0 -0.2937 222.9703 147.5318)" overflow="visible"/>
					
						<use xlink:href="#Star"  width="4" height="2.4" x="-2" y="-1.2" transform="matrix(0.2937 0 0 -0.2937 199.4713 129.499)" overflow="visible"/>
					
						<use xlink:href="#Star"  width="4" height="2.4" x="-2" y="-1.2" transform="matrix(0.2937 0 0 -0.2937 196.4388 124.7879)" overflow="visible"/>
					
						<use xlink:href="#Star"  width="4" height="2.4" x="-2" y="-1.2" transform="matrix(0.2937 0 0 -0.2937 197.013 134.5219)" overflow="visible"/>
					
						<use xlink:href="#Star"  width="4" height="2.4" x="-2" y="-1.2" transform="matrix(0.3054 0 0 -0.3054 205.9771 186.615)" overflow="visible"/>
					
						<use xlink:href="#Star"  width="4" height="2.4" x="-2" y="-1.2" transform="matrix(0.3263 0 0 -0.3263 211.5302 192.0026)" overflow="visible"/>
					
						<use xlink:href="#Star"  width="4" height="2.4" x="-2" y="-1.2" transform="matrix(0.3765 0 0 -0.3765 232.9238 205.8249)" overflow="visible"/>
					
						<use xlink:href="#Star"  width="4" height="2.4" x="-2" y="-1.2" transform="matrix(0.361 0 0 -0.361 236.5448 208.6125)" overflow="visible"/>
					
						<use xlink:href="#Star"  width="4" height="2.4" x="-2" y="-1.2" transform="matrix(0.3187 0 0 -0.3187 259.5173 182.2054)" overflow="visible"/>
					
						<use xlink:href="#Star"  width="4" height="2.4" x="-2" y="-1.2" transform="matrix(0.2937 0 0 -0.2937 260.3695 138.0604)" overflow="visible"/>
					
						<use xlink:href="#Star"  width="4" height="2.4" x="-2" y="-1.2" transform="matrix(0.2937 0 0 -0.2937 251.6677 108.7253)" overflow="visible"/>
					
						<use xlink:href="#Star"  width="4" height="2.4" x="-2" y="-1.2" transform="matrix(0.2937 0 0 -0.2937 247.6431 101.7354)" overflow="visible"/>
					
						<use xlink:href="#Star"  width="4" height="2.4" x="-2" y="-1.2" transform="matrix(0.2937 0 0 -0.2937 262.7707 86.685)" overflow="visible"/>
					
						<use xlink:href="#Star"  width="4" height="2.4" x="-2" y="-1.2" transform="matrix(0.2937 0 0 -0.2937 274.5348 87.6689)" overflow="visible"/>
					
						<use xlink:href="#Star"  width="4" height="2.4" x="-2" y="-1.2" transform="matrix(0.2937 0 0 -0.2937 271.9141 112.8431)" overflow="visible"/>
					
						<use xlink:href="#Star"  width="4" height="2.4" x="-2" y="-1.2" transform="matrix(0.2948 0 0 -0.2948 295.6928 92.6639)" overflow="visible"/>
					
						<use xlink:href="#Star"  width="4" height="2.4" x="-2" y="-1.2" transform="matrix(0.3178 0 0 -0.3178 307.782 90.9172)" overflow="visible"/>
					
						<use xlink:href="#Star"  width="4" height="2.4" x="-2" y="-1.2" transform="matrix(0.2937 0 0 -0.2937 314.9627 141.0267)" overflow="visible"/>
					
						<use xlink:href="#Star"  width="4" height="2.4" x="-2" y="-1.2" transform="matrix(0.2937 0 0 -0.2937 306.1651 168.2023)" overflow="visible"/>
					
						<use xlink:href="#Star"  width="4" height="2.4" x="-2" y="-1.2" transform="matrix(0.2937 0 0 -0.2937 312.6715 166.5812)" overflow="visible"/>
					
						<use xlink:href="#Star"  width="4" height="2.4" x="-2" y="-1.2" transform="matrix(0.2937 0 0 -0.2937 288.3542 201.4807)" overflow="visible"/>
					
						<use xlink:href="#Star"  width="4" height="2.4" x="-2" y="-1.2" transform="matrix(0.2937 0 0 -0.2937 284.839 206.8181)" overflow="visible"/>
					
						<use xlink:href="#Star"  width="4" height="2.4" x="-2" y="-1.2" transform="matrix(0.2937 0 0 -0.2937 296.0765 199.9379)" overflow="visible"/>
					
						<use xlink:href="#Star"  width="4" height="2.4" x="-2" y="-1.2" transform="matrix(0.2937 0 0 -0.2937 291.3651 189.7799)" overflow="visible"/>
					
						<use xlink:href="#Star"  width="4" height="2.4" x="-2" y="-1.2" transform="matrix(0.2937 0 0 -0.2937 287.6027 163.4498)" overflow="visible"/>
					
						<use xlink:href="#Star"  width="4" height="2.4" x="-2" y="-1.2" transform="matrix(0.2937 0 0 -0.2937 287.9606 160.7162)" overflow="visible"/>
					
						<use xlink:href="#Star"  width="4" height="2.4" x="-2" y="-1.2" transform="matrix(0.2937 0 0 -0.2937 279.3762 156.8592)" overflow="visible"/>
					
						<use xlink:href="#Star"  width="4" height="2.4" x="-2" y="-1.2" transform="matrix(0.2937 0 0 -0.2937 260.9703 149.0993)" overflow="visible"/>
					
						<use xlink:href="#Star"  width="4" height="2.4" x="-2" y="-1.2" transform="matrix(0.2937 0 0 -0.2937 193.4858 156.7387)" overflow="visible"/>
					
						<use xlink:href="#Star"  width="4" height="2.4" x="-2" y="-1.2" transform="matrix(0.2937 0 0 -0.2937 168.2117 164.4181)" overflow="visible"/>
					
						<use xlink:href="#Star"  width="4" height="2.4" x="-2" y="-1.2" transform="matrix(0.2937 0 0 -0.2937 192.6988 145.3336)" overflow="visible"/>
					
						<use xlink:href="#Star"  width="4" height="2.4" x="-2" y="-1.2" transform="matrix(0.2937 0 0 -0.2937 201.7454 139.5051)" overflow="visible"/>
					
						<use xlink:href="#Star"  width="4" height="2.4" x="-2" y="-1.2" transform="matrix(0.2937 0 0 -0.2937 157.9272 135.0381)" overflow="visible"/>
					
						<use xlink:href="#Star"  width="4" height="2.4" x="-2" y="-1.2" transform="matrix(0.2937 0 0 -0.2937 162.2812 121.7062)" overflow="visible"/>
					
						<use xlink:href="#Star"  width="4" height="2.4" x="-2" y="-1.2" transform="matrix(0.2937 0 0 -0.2937 175.4095 109.3482)" overflow="visible"/>
					
						<use xlink:href="#Star"  width="4" height="2.4" x="-2" y="-1.2" transform="matrix(0.2937 0 0 -0.2937 177.7056 106.9387)" overflow="visible"/>
					
						<use xlink:href="#Star"  width="4" height="2.4" x="-2" y="-1.2" transform="matrix(0.2937 0 0 -0.2937 173.7676 126.3859)" overflow="visible"/>
					
						<use xlink:href="#Star"  width="4" height="2.4" x="-2" y="-1.2" transform="matrix(0.3932 0 0 -0.3932 210.0111 80.1706)" overflow="visible"/>
					
						<use xlink:href="#Star"  width="4" height="2.4" x="-2" y="-1.2" transform="matrix(0.3828 0 0 -0.3828 213.8435 72.8939)" overflow="visible"/>
					
						<use xlink:href="#Star"  width="4" height="2.4" x="-2" y="-1.2" transform="matrix(0.3151 0 0 -0.3151 224.4809 105.919)" overflow="visible"/>
					
						<use xlink:href="#Star"  width="4" height="2.4" x="-2" y="-1.2" transform="matrix(0.2937 0 0 -0.2937 214.1477 146.5912)" overflow="visible"/>
					
						<use xlink:href="#Star"  width="4" height="2.4" x="-2" y="-1.2" transform="matrix(0.2937 0 0 -0.2937 239.0411 135.8673)" overflow="visible"/>
					
						<use xlink:href="#Star"  width="4" height="2.4" x="-2" y="-1.2" transform="matrix(0.3271 0 0 -0.3271 304.7619 103.4274)" overflow="visible"/>
					
						<use xlink:href="#Star"  width="4" height="2.4" x="-2" y="-1.2" transform="matrix(0.3263 0 0 -0.3263 310.5229 121.052)" overflow="visible"/>
					
						<use xlink:href="#Star"  width="4" height="2.4" x="-2" y="-1.2" transform="matrix(0.2937 0 0 -0.2937 309.0291 147.8831)" overflow="visible"/>
					
						<use xlink:href="#Star"  width="4" height="2.4" x="-2" y="-1.2" transform="matrix(0.2937 0 0 -0.2937 327.8395 142.4174)" overflow="visible"/>
					
						<use xlink:href="#Star"  width="4" height="2.4" x="-2" y="-1.2" transform="matrix(0.2937 0 0 -0.2937 328.1642 160.091)" overflow="visible"/>
					
						<use xlink:href="#Star"  width="4" height="2.4" x="-2" y="-1.2" transform="matrix(0.2937 0 0 -0.2937 256.0677 222.7601)" overflow="visible"/>
					
						<use xlink:href="#Star"  width="4" height="2.4" x="-2" y="-1.2" transform="matrix(0.2937 0 0 -0.2937 230.9494 232.2943)" overflow="visible"/>
					
						<use xlink:href="#Star"  width="4" height="2.4" x="-2" y="-1.2" transform="matrix(0.2937 0 0 -0.2937 224.5513 226.4117)" overflow="visible"/>
					
						<use xlink:href="#Star"  width="4" height="2.4" x="-2" y="-1.2" transform="matrix(0.2937 0 0 -0.2937 194.6709 179.7074)" overflow="visible"/>
					
						<use xlink:href="#Star"  width="4" height="2.4" x="-2" y="-1.2" transform="matrix(0.2937 0 0 -0.2937 195.0536 177.814)" overflow="visible"/>
					
						<use xlink:href="#Star"  width="4" height="2.4" x="-2" y="-1.2" transform="matrix(0.2937 0 0 -0.2937 191.5056 176.3967)" overflow="visible"/>
					
						<use xlink:href="#Star"  width="4" height="2.4" x="-2" y="-1.2" transform="matrix(0.2937 0 0 -0.2937 157.6613 129.7084)" overflow="visible"/>
					
						<use xlink:href="#Star"  width="4" height="2.4" x="-2" y="-1.2" transform="matrix(0.2937 0 0 -0.2937 157.5769 127.3682)" overflow="visible"/>
					
						<use xlink:href="#Star"  width="4" height="2.4" x="-2" y="-1.2" transform="matrix(0.2937 0 0 -0.2937 305.7305 136.971)" overflow="visible"/>
					
						<use xlink:href="#Star"  width="4" height="2.4" x="-2" y="-1.2" transform="matrix(0.2937 0 0 -0.2937 302.7981 135.6081)" overflow="visible"/>
					
						<use xlink:href="#Star"  width="4" height="2.4" x="-2" y="-1.2" transform="matrix(0.2937 0 0 -0.2937 296.1696 134.0854)" overflow="visible"/>
					
						<use xlink:href="#Star"  width="4" height="2.4" x="-2" y="-1.2" transform="matrix(0.2937 0 0 -0.2937 289.101 128.0754)" overflow="visible"/>
					
						<use xlink:href="#Star"  width="4" height="2.4" x="-2" y="-1.2" transform="matrix(0.2937 0 0 -0.2937 280.697 116.7368)" overflow="visible"/>
					
						<use xlink:href="#Star"  width="4" height="2.4" x="-2" y="-1.2" transform="matrix(0.2937 0 0 -0.2937 267.8509 101.91)" overflow="visible"/>
					
						<use xlink:href="#Star"  width="4" height="2.4" x="-2" y="-1.2" transform="matrix(0.2937 0 0 -0.2937 260.9579 91.7333)" overflow="visible"/>
					
						<use xlink:href="#Star"  width="4" height="2.4" x="-2" y="-1.2" transform="matrix(0.2937 0 0 -0.2937 254.2907 84.4355)" overflow="visible"/>
					
						<use xlink:href="#Star"  width="4" height="2.4" x="-2" y="-1.2" transform="matrix(0.3349 0 0 -0.3349 237.4818 86.759)" overflow="visible"/>
					
						<use xlink:href="#Star"  width="4" height="2.4" x="-2" y="-1.2" transform="matrix(0.3108 0 0 -0.3108 201.7249 102.0538)" overflow="visible"/>
					
						<use xlink:href="#Star"  width="4" height="2.4" x="-2" y="-1.2" transform="matrix(0.2937 0 0 -0.2937 172.6967 122.0883)" overflow="visible"/>
					
						<use xlink:href="#Star"  width="4" height="2.4" x="-2" y="-1.2" transform="matrix(0.2937 0 0 -0.2937 172.8037 146.5579)" overflow="visible"/>
					
						<use xlink:href="#Star"  width="4" height="2.4" x="-2" y="-1.2" transform="matrix(0.2937 0 0 -0.2937 234.9476 137.4508)" overflow="visible"/>
					
						<use xlink:href="#Star"  width="4" height="2.4" x="-2" y="-1.2" transform="matrix(0.2937 0 0 -0.2937 272.5124 99.9367)" overflow="visible"/>
					
						<use xlink:href="#Star"  width="4" height="2.4" x="-2" y="-1.2" transform="matrix(0.2937 0 0 -0.2937 283.1906 69.3007)" overflow="visible"/>
					
						<use xlink:href="#Star"  width="4" height="2.4" x="-2" y="-1.2" transform="matrix(0.2937 0 0 -0.2937 291.0875 63.8311)" overflow="visible"/>
					
						<use xlink:href="#Star"  width="4" height="2.4" x="-2" y="-1.2" transform="matrix(0.2937 0 0 -0.2937 297.0456 65.0455)" overflow="visible"/>
					
						<use xlink:href="#Star"  width="4" height="2.4" x="-2" y="-1.2" transform="matrix(0.2952 0 0 -0.2952 309.1996 79.8714)" overflow="visible"/>
					
						<use xlink:href="#Star"  width="4" height="2.4" x="-2" y="-1.2" transform="matrix(0.3087 0 0 -0.3087 309.9165 85.2754)" overflow="visible"/>
					
						<use xlink:href="#Star"  width="4" height="2.4" x="-2" y="-1.2" transform="matrix(0.2937 0 0 -0.2937 305.7163 78.5256)" overflow="visible"/>
					
						<use xlink:href="#Star"  width="4" height="2.4" x="-2" y="-1.2" transform="matrix(0.2937 0 0 -0.2937 300.3141 69.1415)" overflow="visible"/>
					
						<use xlink:href="#Star"  width="4" height="2.4" x="-2" y="-1.2" transform="matrix(0.2937 0 0 -0.2937 298.4971 69.745)" overflow="visible"/>
					
						<use xlink:href="#Star"  width="4" height="2.4" x="-2" y="-1.2" transform="matrix(0.2937 0 0 -0.2937 280.4128 87.411)" overflow="visible"/>
					
						<use xlink:href="#Star"  width="4" height="2.4" x="-2" y="-1.2" transform="matrix(0.2937 0 0 -0.2937 272.1891 91.6883)" overflow="visible"/>
					
						<use xlink:href="#Star"  width="4" height="2.4" x="-2" y="-1.2" transform="matrix(0.2937 0 0 -0.2937 259.4844 97.5311)" overflow="visible"/>
					
						<use xlink:href="#Star"  width="4" height="2.4" x="-2" y="-1.2" transform="matrix(0.2937 0 0 -0.2937 256.7918 100.4672)" overflow="visible"/>
					
						<use xlink:href="#Star"  width="4" height="2.4" x="-2" y="-1.2" transform="matrix(0.2937 0 0 -0.2937 283.2256 167.0741)" overflow="visible"/>
					
						<use xlink:href="#Star"  width="4" height="2.4" x="-2" y="-1.2" transform="matrix(0.2937 0 0 -0.2937 290.932 160.8596)" overflow="visible"/>
					
						<use xlink:href="#Star"  width="4" height="2.4" x="-2" y="-1.2" transform="matrix(0.2937 0 0 -0.2937 333.1189 138.6312)" overflow="visible"/>
					
						<use xlink:href="#Star"  width="4" height="2.4" x="-2" y="-1.2" transform="matrix(0.2937 0 0 -0.2937 336.0493 137.7631)" overflow="visible"/>
					
						<use xlink:href="#Star"  width="4" height="2.4" x="-2" y="-1.2" transform="matrix(0.2937 0 0 -0.2937 252.7626 118.159)" overflow="visible"/>
					
						<use xlink:href="#Star"  width="4" height="2.4" x="-2" y="-1.2" transform="matrix(0.2937 0 0 -0.2937 235.5962 123.991)" overflow="visible"/>
					
						<use xlink:href="#Star"  width="4" height="2.4" x="-2" y="-1.2" transform="matrix(0.2937 0 0 -0.2937 209.6075 134.9962)" overflow="visible"/>
					
						<use xlink:href="#Star"  width="4" height="2.4" x="-2" y="-1.2" transform="matrix(0.2937 0 0 -0.2937 256.865 159.2438)" overflow="visible"/>
					
						<use xlink:href="#Star"  width="4" height="2.4" x="-2" y="-1.2" transform="matrix(0.2937 0 0 -0.2937 278.7903 171.7524)" overflow="visible"/>
					
						<use xlink:href="#Star"  width="4" height="2.4" x="-2" y="-1.2" transform="matrix(0.2952 0 0 -0.2952 271.0592 199.401)" overflow="visible"/>
					
						<use xlink:href="#Star"  width="4" height="2.4" x="-2" y="-1.2" transform="matrix(0.2986 0 0 -0.2986 266.5954 204.4013)" overflow="visible"/>
					
						<use xlink:href="#Star"  width="4" height="2.4" x="-2" y="-1.2" transform="matrix(0.3593 0 0 -0.3593 248.5652 204.5191)" overflow="visible"/>
					
						<use xlink:href="#Star"  width="4" height="2.4" x="-2" y="-1.2" transform="matrix(0.3963 0 0 -0.3963 237.1859 203.0589)" overflow="visible"/>
					
						<use xlink:href="#Star"  width="4" height="2.4" x="-2" y="-1.2" transform="matrix(0.3793 0 0 -0.3793 230.7347 204.7447)" overflow="visible"/>
					
						<use xlink:href="#Star"  width="4" height="2.4" x="-2" y="-1.2" transform="matrix(0.2972 0 0 -0.2972 239.9567 112.3388)" overflow="visible"/>
					
						<use xlink:href="#Star"  width="4" height="2.4" x="-2" y="-1.2" transform="matrix(0.2937 0 0 -0.2937 275.3704 113.3382)" overflow="visible"/>
					
						<use xlink:href="#Star"  width="4" height="2.4" x="-2" y="-1.2" transform="matrix(0.2937 0 0 -0.2937 270.9552 136.5334)" overflow="visible"/>
					
						<use xlink:href="#Star"  width="4" height="2.4" x="-2" y="-1.2" transform="matrix(0.3417 0 0 -0.3417 223.4321 183.7146)" overflow="visible"/>
					
						<use xlink:href="#Star"  width="4" height="2.4" x="-2" y="-1.2" transform="matrix(0.3237 0 0 -0.3237 221.4487 170.6377)" overflow="visible"/>
					
						<use xlink:href="#Star"  width="4" height="2.4" x="-2" y="-1.2" transform="matrix(0.3101 0 0 -0.3101 217.4441 106.9274)" overflow="visible"/>
					
						<use xlink:href="#Star"  width="4" height="2.4" x="-2" y="-1.2" transform="matrix(0.3384 0 0 -0.3384 218.0003 89.4353)" overflow="visible"/>
					
						<use xlink:href="#Star"  width="4" height="2.4" x="-2" y="-1.2" transform="matrix(0.3441 0 0 -0.3441 219.0962 84.547)" overflow="visible"/>
					
						<use xlink:href="#Star"  width="4" height="2.4" x="-2" y="-1.2" transform="matrix(0.2946 0 0 -0.2946 258.7623 100.9156)" overflow="visible"/>
					
						<use xlink:href="#Star"  width="4" height="2.4" x="-2" y="-1.2" transform="matrix(0.2938 0 0 -0.2938 264.5969 124.3488)" overflow="visible"/>
					
						<use xlink:href="#Star"  width="4" height="2.4" x="-2" y="-1.2" transform="matrix(0.2996 0 0 -0.2996 264.0288 162.4127)" overflow="visible"/>
					
						<use xlink:href="#Star"  width="4" height="2.4" x="-2" y="-1.2" transform="matrix(0.2946 0 0 -0.2946 286.4934 182.1286)" overflow="visible"/>
					
						<use xlink:href="#Star"  width="4" height="2.4" x="-2" y="-1.2" transform="matrix(0.2938 0 0 -0.2938 300.62 194.4943)" overflow="visible"/>
					
						<use xlink:href="#Star"  width="4" height="2.4" x="-2" y="-1.2" transform="matrix(0.2939 0 0 -0.2939 293.1783 182.2277)" overflow="visible"/>
					
						<use xlink:href="#Star"  width="4" height="2.4" x="-2" y="-1.2" transform="matrix(0.2938 0 0 -0.2938 291.4683 156.6794)" overflow="visible"/>
					
						<use xlink:href="#Star"  width="4" height="2.4" x="-2" y="-1.2" transform="matrix(0.2938 0 0 -0.2938 268.6014 116.5197)" overflow="visible"/>
					
						<use xlink:href="#Star"  width="4" height="2.4" x="-2" y="-1.2" transform="matrix(0.3085 0 0 -0.3085 241.9768 91.6052)" overflow="visible"/>
					
						<use xlink:href="#Star"  width="4" height="2.4" x="-2" y="-1.2" transform="matrix(0.3685 0 0 -0.3685 203.1034 71.1315)" overflow="visible"/>
					
						<use xlink:href="#Star"  width="4" height="2.4" x="-2" y="-1.2" transform="matrix(0.3721 0 0 -0.3721 199.5624 68.0486)" overflow="visible"/>
					
						<use xlink:href="#Star"  width="4" height="2.4" x="-2" y="-1.2" transform="matrix(0.3365 0 0 -0.3365 227.1579 84.1178)" overflow="visible"/>
					
						<use xlink:href="#Star"  width="4" height="2.4" x="-2" y="-1.2" transform="matrix(0.2938 0 0 -0.2938 261.3698 122.1593)" overflow="visible"/>
					
						<use xlink:href="#Star"  width="4" height="2.4" x="-2" y="-1.2" transform="matrix(0.2937 0 0 -0.2937 270.2512 132.1636)" overflow="visible"/>
					
						<use xlink:href="#Star"  width="4" height="2.4" x="-2" y="-1.2" transform="matrix(0.2939 0 0 -0.2939 285.5277 139.6998)" overflow="visible"/>
					
						<use xlink:href="#Star"  width="4" height="2.4" x="-2" y="-1.2" transform="matrix(0.2962 0 0 -0.2962 300.6535 138.3662)" overflow="visible"/>
					
						<use xlink:href="#Star"  width="4" height="2.4" x="-2" y="-1.2" transform="matrix(0.2977 0 0 -0.2977 305.808 134.3659)" overflow="visible"/>
					
						<use xlink:href="#Star"  width="4" height="2.4" x="-2" y="-1.2" transform="matrix(0.2995 0 0 -0.2995 311.0407 132.2213)" overflow="visible"/>
					
						<use xlink:href="#Star"  width="4" height="2.4" x="-2" y="-1.2" transform="matrix(0.2939 0 0 -0.2939 295.9006 157.8202)" overflow="visible"/>
					
						<use xlink:href="#Star"  width="4" height="2.4" x="-2" y="-1.2" transform="matrix(0.2986 0 0 -0.2986 271.1525 172.1622)" overflow="visible"/>
					
						<use xlink:href="#Star"  width="4" height="2.4" x="-2" y="-1.2" transform="matrix(0.3198 0 0 -0.3198 256.8705 179.7917)" overflow="visible"/>
					
						<use xlink:href="#Star"  width="4" height="2.4" x="-2" y="-1.2" transform="matrix(0.3144 0 0 -0.3144 262.2945 182.2209)" overflow="visible"/>
					
						<use xlink:href="#Star"  width="4" height="2.4" x="-2" y="-1.2" transform="matrix(0.2939 0 0 -0.2939 298.9575 185.05)" overflow="visible"/>
					
						<use xlink:href="#Star"  width="4" height="2.4" x="-2" y="-1.2" transform="matrix(0.2939 0 0 -0.2939 297.1752 197.355)" overflow="visible"/>
					
						<use xlink:href="#Star"  width="4" height="2.4" x="-2" y="-1.2" transform="matrix(0.2957 0 0 -0.2957 282.5661 209.3372)" overflow="visible"/>
					
						<use xlink:href="#Star"  width="4" height="2.4" x="-2" y="-1.2" transform="matrix(0.3281 0 0 -0.3281 248.3776 175.6181)" overflow="visible"/>
					
						<use xlink:href="#Star"  width="4" height="2.4" x="-2" y="-1.2" transform="matrix(0.2939 0 0 -0.2939 228.6923 142.1352)" overflow="visible"/>
					
						<use xlink:href="#Star"  width="4" height="2.4" x="-2" y="-1.2" transform="matrix(0.3003 0 0 -0.3003 206.7985 118.1587)" overflow="visible"/>
					
						<use xlink:href="#Star"  width="4" height="2.4" x="-2" y="-1.2" transform="matrix(0.3042 0 0 -0.3042 199.3139 109.4127)" overflow="visible"/>
					
						<use xlink:href="#Star"  width="4" height="2.4" x="-2" y="-1.2" transform="matrix(0.3117 0 0 -0.3117 194.6415 100.4863)" overflow="visible"/>
					
						<use xlink:href="#Star"  width="4" height="2.4" x="-2" y="-1.2" transform="matrix(0.3121 0 0 -0.3121 196.5069 101.5306)" overflow="visible"/>
					
						<use xlink:href="#Star"  width="4" height="2.4" x="-2" y="-1.2" transform="matrix(0.295 0 0 -0.295 223.0017 130.4599)" overflow="visible"/>
					
						<use xlink:href="#Star"  width="4" height="2.4" x="-2" y="-1.2" transform="matrix(0.2944 0 0 -0.2944 225.0253 133.798)" overflow="visible"/>
					
						<use xlink:href="#Star"  width="4" height="2.4" x="-2" y="-1.2" transform="matrix(0.299 0 0 -0.299 217.2072 119.5221)" overflow="visible"/>
					
						<use xlink:href="#Star"  width="4" height="2.4" x="-2" y="-1.2" transform="matrix(0.3024 0 0 -0.3024 214.9393 115.399)" overflow="visible"/>
					
						<use xlink:href="#Star"  width="4" height="2.4" x="-2" y="-1.2" transform="matrix(0.2941 0 0 -0.2941 230.6579 142.5343)" overflow="visible"/>
					
						<use xlink:href="#Star"  width="4" height="2.4" x="-2" y="-1.2" transform="matrix(0.294 0 0 -0.294 252.4828 114.7263)" overflow="visible"/>
					
						<use xlink:href="#Star"  width="4" height="2.4" x="-2" y="-1.2" transform="matrix(0.2947 0 0 -0.2947 264.0171 91.9728)" overflow="visible"/>
					
						<use xlink:href="#Star"  width="4" height="2.4" x="-2" y="-1.2" transform="matrix(0.2941 0 0 -0.2941 267.7697 86.3962)" overflow="visible"/>
					
						<use xlink:href="#Star"  width="4" height="2.4" x="-2" y="-1.2" transform="matrix(0.2938 0 0 -0.2938 278.8884 79.1502)" overflow="visible"/>
					
						<use xlink:href="#Star"  width="4" height="2.4" x="-2" y="-1.2" transform="matrix(0.2948 0 0 -0.2948 287.3721 76.1213)" overflow="visible"/>
					
						<use xlink:href="#Star"  width="4" height="2.4" x="-2" y="-1.2" transform="matrix(0.2957 0 0 -0.2957 293.4807 76.3729)" overflow="visible"/>
					
						<use xlink:href="#Star"  width="4" height="2.4" x="-2" y="-1.2" transform="matrix(0.2957 0 0 -0.2957 295.2416 75.1225)" overflow="visible"/>
					
						<use xlink:href="#Star"  width="4" height="2.4" x="-2" y="-1.2" transform="matrix(0.2952 0 0 -0.2952 290.8848 74.177)" overflow="visible"/>
					
						<use xlink:href="#Star"  width="4" height="2.4" x="-2" y="-1.2" transform="matrix(0.294 0 0 -0.294 275.3121 73.3158)" overflow="visible"/>
					
						<use xlink:href="#Star"  width="4" height="2.4" x="-2" y="-1.2" transform="matrix(0.2959 0 0 -0.2959 261.549 71.3223)" overflow="visible"/>
					
						<use xlink:href="#Star"  width="4" height="2.4" x="-2" y="-1.2" transform="matrix(0.3005 0 0 -0.3005 255.7431 69.9099)" overflow="visible"/>
					
						<use xlink:href="#Star"  width="4" height="2.4" x="-2" y="-1.2" transform="matrix(0.3005 0 0 -0.3005 255.3676 71.5623)" overflow="visible"/>
					
						<use xlink:href="#Star"  width="4" height="2.4" x="-2" y="-1.2" transform="matrix(0.3009 0 0 -0.3009 220.4561 153.7477)" overflow="visible"/>
					
						<use xlink:href="#Star"  width="4" height="2.4" x="-2" y="-1.2" transform="matrix(0.3012 0 0 -0.3012 222.4841 154.0197)" overflow="visible"/>
					
						<use xlink:href="#Star"  width="4" height="2.4" x="-2" y="-1.2" transform="matrix(0.3052 0 0 -0.3052 231.3604 155.8504)" overflow="visible"/>
					
						<use xlink:href="#Star"  width="4" height="2.4" x="-2" y="-1.2" transform="matrix(0.3063 0 0 -0.3063 240.2925 157.7416)" overflow="visible"/>
					
						<use xlink:href="#Star"  width="4" height="2.4" x="-2" y="-1.2" transform="matrix(0.305 0 0 -0.305 248.7299 157.3974)" overflow="visible"/>
					
						<use xlink:href="#Star"  width="4" height="2.4" x="-2" y="-1.2" transform="matrix(0.3008 0 0 -0.3008 256.688 155.5183)" overflow="visible"/>
					
						<use xlink:href="#Star"  width="4" height="2.4" x="-2" y="-1.2" transform="matrix(0.2969 0 0 -0.2969 262.6453 152.2568)" overflow="visible"/>
					
						<use xlink:href="#Star"  width="4" height="2.4" x="-2" y="-1.2" transform="matrix(0.2942 0 0 -0.2942 277.1012 139.2463)" overflow="visible"/>
					
						<use xlink:href="#Star"  width="4" height="2.4" x="-2" y="-1.2" transform="matrix(0.308 0 0 -0.308 310.3242 117.6691)" overflow="visible"/>
					
						<use xlink:href="#Star"  width="4" height="2.4" x="-2" y="-1.2" transform="matrix(0.3039 0 0 -0.3039 305.627 119.8262)" overflow="visible"/>
					
						<use xlink:href="#Star"  width="4" height="2.4" x="-2" y="-1.2" transform="matrix(0.294 0 0 -0.294 281.8575 134.1645)" overflow="visible"/>
					
						<use xlink:href="#Star"  width="4" height="2.4" x="-2" y="-1.2" transform="matrix(0.2955 0 0 -0.2955 261.2877 144.2926)" overflow="visible"/>
					
						<use xlink:href="#Star"  width="4" height="2.4" x="-2" y="-1.2" transform="matrix(0.2983 0 0 -0.2983 248.3512 150.2734)" overflow="visible"/>
					
						<use xlink:href="#Star"  width="4" height="2.4" x="-2" y="-1.2" transform="matrix(0.3026 0 0 -0.3026 241.4778 153.9053)" overflow="visible"/>
					
						<use xlink:href="#Star"  width="4" height="2.4" x="-2" y="-1.2" transform="matrix(0.3026 0 0 -0.3026 239.5259 153.7801)" overflow="visible"/>
					
						<use xlink:href="#Star"  width="4" height="2.4" x="-2" y="-1.2" transform="matrix(0.2943 0 0 -0.2943 254.0022 128.9532)" overflow="visible"/>
					
						<use xlink:href="#Star"  width="4" height="2.4" x="-2" y="-1.2" transform="matrix(0.294 0 0 -0.294 257.785 124.5793)" overflow="visible"/>
					
						<use xlink:href="#Star"  width="4" height="2.4" x="-2" y="-1.2" transform="matrix(0.2939 0 0 -0.2939 263.9069 115.3725)" overflow="visible"/>
					
						<use xlink:href="#Star"  width="4" height="2.4" x="-2" y="-1.2" transform="matrix(0.2938 0 0 -0.2938 274.6839 105.6639)" overflow="visible"/>
					
						<use xlink:href="#Star"  width="4" height="2.4" x="-2" y="-1.2" transform="matrix(0.2943 0 0 -0.2943 280.0544 96.811)" overflow="visible"/>
					
						<use xlink:href="#Star"  width="4" height="2.4" x="-2" y="-1.2" transform="matrix(0.2943 0 0 -0.2943 280.7101 98.5989)" overflow="visible"/>
					
						<use xlink:href="#Star"  width="4" height="2.4" x="-2" y="-1.2" transform="matrix(0.2954 0 0 -0.2954 254.3357 137.9565)" overflow="visible"/>
					
						<use xlink:href="#Star"  width="4" height="2.4" x="-2" y="-1.2" transform="matrix(0.2957 0 0 -0.2957 252.4317 140.0061)" overflow="visible"/>
					
						<use xlink:href="#Star"  width="4" height="2.4" x="-2" y="-1.2" transform="matrix(0.2962 0 0 -0.2962 248.3376 142.1161)" overflow="visible"/>
					
						<use xlink:href="#Star"  width="4" height="2.4" x="-2" y="-1.2" transform="matrix(0.2969 0 0 -0.2969 239.9262 144.6004)" overflow="visible"/>
					
						<use xlink:href="#Star"  width="4" height="2.4" x="-2" y="-1.2" transform="matrix(0.3115 0 0 -0.3115 221.3461 165.4956)" overflow="visible"/>
					
						<use xlink:href="#Star"  width="4" height="2.4" x="-2" y="-1.2" transform="matrix(0.302 0 0 -0.302 320.7865 128.7416)" overflow="visible"/>
					
						<use xlink:href="#Star"  width="4" height="2.4" x="-2" y="-1.2" transform="matrix(0.3086 0 0 -0.3086 311.0292 115.2317)" overflow="visible"/>
					
						<use xlink:href="#Star"  width="4" height="2.4" x="-2" y="-1.2" transform="matrix(0.3031 0 0 -0.3031 299.8398 101.223)" overflow="visible"/>
					
						<use xlink:href="#Star"  width="4" height="2.4" x="-2" y="-1.2" transform="matrix(0.2986 0 0 -0.2986 296.1333 94.7129)" overflow="visible"/>
					
						<use xlink:href="#Star"  width="4" height="2.4" x="-2" y="-1.2" transform="matrix(0.298 0 0 -0.298 294.8083 91.0861)" overflow="visible"/>
					
						<use xlink:href="#Star"  width="4" height="2.4" x="-2" y="-1.2" transform="matrix(0.3019 0 0 -0.3019 298.1152 105.4213)" overflow="visible"/>
					
						<use xlink:href="#Star"  width="4" height="2.4" x="-2" y="-1.2" transform="matrix(0.2965 0 0 -0.2965 305.3077 143.5939)" overflow="visible"/>
					
						<use xlink:href="#Star"  width="4" height="2.4" x="-2" y="-1.2" transform="matrix(0.2937 0 0 -0.2937 319.3885 176.9755)" overflow="visible"/>
					
						<use xlink:href="#Star"  width="4" height="2.4" x="-2" y="-1.2" transform="matrix(0.2937 0 0 -0.2937 324.7954 191.2477)" overflow="visible"/>
				</g>
			</g>
		</g>
	</g>
</g>
<text transform="matrix(1 0 0 1 368.0017 183.9469)" fill="#FFFFFF" font-family="'MuseoSansRounded-100'" font-size="93">Astronomic</text>
</svg>
