<?xml version="1.0" encoding="utf-8"?>
<!-- Generator: Adobe Illustrator 18.1.1, SVG Export Plug-In . SVG Version: 6.00 Build 0)  -->
<!DOCTYPE svg PUBLIC "-//W3C//DTD SVG 1.1//EN" "http://www.w3.org/Graphics/SVG/1.1/DTD/svg11.dtd">
<svg version="1.1" id="Layer_1" xmlns="http://www.w3.org/2000/svg" xmlns:xlink="http://www.w3.org/1999/xlink" x="0px" y="0px"
	 width="100px" height="100px" viewBox="-99 101 100 100" enable-background="new -99 101 100 100" xml:space="preserve">
<path fill="#5C4B70" d="M-25,130.4c0.1-0.3,0.1-0.6,0.1-0.9c-0.2-2.8-1-4.9-1.7-6.3c-5-9.6-19-10.8-20-11c0,0,0,0-0.1,0
	c-1.1-0.2-13.7-3.8-21.5,3.1c-1.9,1.7-3.2,3.8-3.9,5.5c-0.1,0.3-0.3,0.8-0.3,1.1l-7,54.3l0,0l-1.8,6.5c0.1,0.6,0.5,0.6,0.7,0.8
	c1.4,1.6,4.6,1.9,5.6,2c0.2,0,0.4,0.1,0.6,0c1,0.2,3.9,0.8,5.8-0.1c0.5-0.3,0.7-0.3,1-0.6l0.3-3c0-2,1.9-3,4-2.6l8.9,1.7
	c2.2,0.4,3.6,2,3,4l-0.9,3.1c0.1,0.6,0.5,0.6,0.7,0.9c1.4,1.6,4.6,1.9,5.6,2c0.2,0,0.4,0.1,0.6,0.1c1,0.2,3.9,0.8,5.8-0.1
	c0.5-0.3,0.7-0.3,1-0.6c0.2-2.3,0.5-4.7,0.7-7L-25,130.4z M-52.9,147.6c-7.4-1.4-12.3-8.5-11-15.9s8.5-12.2,15.9-10.9
	s12.3,8.5,11,15.9C-38.3,144-45.5,148.9-52.9,147.6z M-49,126.3c-4.4-0.8-8.7,2-9.5,6.4c-0.8,4.4,2.2,8.6,6.5,9.4
	c4.4,0.8,8.7-2,9.5-6.4C-41.6,131.3-44.6,127.1-49,126.3z M-48.4,140.5c-0.7-0.1-1.2-0.8-1.1-1.5c0.1-0.7,0.8-1.1,1.6-1
	c0.7,0.1,1.2,0.8,1.1,1.5S-47.6,140.6-48.4,140.5z M-47.4,135.4c-1.6-0.3-2.7-1.9-2.4-3.4c0.3-1.6,1.9-2.6,3.5-2.3
	c1.6,0.3,2.7,1.9,2.4,3.4C-44.2,134.7-45.8,135.7-47.4,135.4z M-58.9,145.5c-0.3-0.3-0.7-0.5-1.3-0.6c-0.9-0.2-1.9,0-2.7,0.2
	c-1.3,0.3-2.2,1.3-3.2,2.2c-0.6,0.7-1.2,1.4-2,1.8c-0.2,0.2-0.5,0.3-0.7,0.5l0,0c-1.5,1.1-2.7,2.7-3.7,4.1c-1,1.4-2.2,2.8-3.6,4
	c-1.9,1.4-3.5,3.2-5.1,4.9c-1.6,1.8-3.2,3.5-5.2,5.1c-2.9,2.1-6.1,3.6-9.3,4.3c-0.9,0.2-1.5,0.8-1.6,1.6c-0.1,0.8,0.2,1.5,0.9,1.9
	c1.5,0.9,3,1.4,4.6,1.7c0.2,0,0.4,0.1,0.6,0.1c2.5,0.4,7.2,0.6,10.3-1.9c0.4-0.3,1-0.8,1.8-1.2c0.9-0.6,1.8-1.2,2.3-1.6
	c3.5-2.9,6.5-3.9,10.3-4.6c0.8-0.1,1.4-0.8,1.6-1.6C-63.8,159.6-61.4,151.1-58.9,145.5z M-90.6,176.1c-1.3-0.1-2.2-0.7-2.2-1.5
	c0-0.7,1.1-1.3,2.4-1.1s2.2,0.7,2.2,1.5C-88.4,175.7-89.4,176.2-90.6,176.1z M-83.7,175.2c-1.5,0.2-2.8-0.3-2.9-1.2s0.9-1.8,2.4-2
	c1.5-0.2,2.8,0.3,2.9,1.2C-81.1,174-82.1,175-83.7,175.2z M-77.1,172c-0.7,0.7-1.9,0.6-2.6-0.1s-0.7-1.9,0-2.6
	c0.7-0.7,1.9-0.6,2.6,0.1S-76.4,171.3-77.1,172z M-2.8,144.6c-2.5-1.4-4.8-2.1-7.1-2.3c-3.4-0.2-6.7,0.8-8.7,3
	c-1,1.2-1.8,2.5-2.4,3.9c-0.5,1.1-1.1,2.3-1.8,3.2c-1.1,1.5-2.6,2.6-4.3,3.4c-1.7,0.8-3.6,1-5.4,0.8c-0.2,0-0.4-0.1-0.6-0.1
	c-1.6-0.3-3.2-1-4.5-2c-1.5-1.2-2.6-2.7-3.3-4.3c-2.3,2.7-4.6,5.4-6.8,8.1c-0.5,0.6-1,1.2-1.3,1.9c-0.5,1.3-0.5,3.3,1.1,5.3
	c1,1.2,2.3,2.2,4.2,3.3c2.7,1.5,5.7,2.8,9.1,4c3.1,1.1,6.5,2,9.6,0.8c3.3-1.3,5.3-4.5,7.1-8.1c1.7-3.2,3.4-6.5,5.1-9.6
	c2-3.9,4.6-8.1,8.8-9.1c0.2-0.1,0.4-0.1,0.6-0.2c0.1,0,0.2-0.1,0.3,0c0.5-0.1,0.8-0.4,0.9-0.9C-2.3,145.1-2.4,144.8-2.8,144.6z
	 M-30.5,172c-1.6-0.1-2.9-1-2.8-2c0.1-1,1.4-1.8,3.1-1.7c1.6,0.1,2.9,1,2.8,2C-27.5,171.3-28.8,172.1-30.5,172z M-23.1,169.6
	c-0.7,0.7-1.8,0.7-2.5-0.1s-0.6-1.9,0-2.6c0.7-0.7,1.8-0.7,2.5,0.1C-22.5,167.7-22.5,168.8-23.1,169.6z M-19.1,165.2
	c-0.8,1.1-2.1,1.7-2.9,1c-0.8-0.5-0.8-2,0-3.2c0.8-1.1,2.1-1.7,2.9-1C-18.3,162.6-18.2,164-19.1,165.2z M-15.1,158.6
	c-0.5,1.3-1.8,2-2.7,1.6c-0.9-0.5-1.1-1.8-0.5-3.1c0.5-1.3,1.8-2,2.7-1.6C-14.8,155.9-14.5,157.4-15.1,158.6z M-14.1,153.6
	c-0.9-0.1-1.6-0.7-1.6-1.5c0-0.7,0.8-1.2,1.8-1.1c0.9,0.1,1.6,0.7,1.6,1.5C-12.5,153.1-13.3,153.6-14.1,153.6z M-9.8,148.7
	c-1.2,0.9-2.6,0.9-3.2,0.1s0.1-2.1,1.3-2.8c1.2-0.8,2.6-0.9,3.2-0.1C-7.9,146.5-8.5,147.8-9.8,148.7z"/>
</svg>
