<?xml version="1.0" encoding="utf-8"?>
<!-- Generator: Adobe Illustrator 18.1.1, SVG Export Plug-In . SVG Version: 6.00 Build 0)  -->
<!DOCTYPE svg PUBLIC "-//W3C//DTD SVG 1.1//EN" "http://www.w3.org/Graphics/SVG/1.1/DTD/svg11.dtd">
<svg version="1.1" id="Your_Icon" xmlns="http://www.w3.org/2000/svg" xmlns:xlink="http://www.w3.org/1999/xlink" x="0px" y="0px"
	 width="106px" height="108px" viewBox="-102 97 106 108" enable-background="new -102 97 106 108" xml:space="preserve">
<g>
	<circle fill="#5C4B70" cx="-59.1" cy="126" r="3.2"/>
	<path fill="#5C4B70" d="M-0.9,156.2c0.5,0.8-0.1,1.5-0.8,1.9c-0.6,0.3-2.4,1.6-3-0.8c0.5,0.6,1.3,0.9,2,0.4
		c1.3-0.8,1.8-2.1,1.1-2.9c0,0.7-0.1,1.6-1.1,2c-0.8,0.3-1.7,0.8-2.1-1c0.2,0.5,0.5,0.7,0.9,0.6c0.7-0.2,1.8-1,1.4-1.9
		c-0.2,1.2-0.6,1.1-1.1,1.2c-0.4,0.1-0.9-0.2-1.1-1.5c-0.8-11.8-6-26-13-36.4c0-1.6-0.3-3.3-0.9-4.9c-3.8-11.2-18.7-16.4-33.4-11.4
		c-3.7,1.2-7.1,3-10,5.2c-1.1,0.3-2.2,0.6-3.3,1c-3.3,1.1-6.3,2.6-8.9,4.4c-1.2,0.3-2.4,0.6-3.5,1c-15.1,5.1-24.2,18.5-20.4,30
		c1.1,3.2,3,5.8,5.5,8c2.4,13.2,9.3,28.2,17.8,37.1l0,0c0,0,0,0,0,0c0.5,0.5,1,1,1.5,1.5c1.8,1.5,3.3,0.1,3.7-1.7
		c0.4-1.8-0.7-1.8-1.4-2.1c0.9,0.4,0.8,1.2,0.5,2c-0.3,0.6-0.9,2.7-2.9,1.2c0.8,0.2,1.6-0.1,1.9-0.9c0.5-1.4,0.1-2.8-1-2.9
		c0.4,0.5,1,1.3,0.4,2.2c-0.5,0.7-0.8,1.7-2.2,0.5c0.4,0.2,0.8,0.2,1.1-0.1c0.4-0.6,0.8-1.9-0.1-2.3c0.6,1,0.2,1.3-0.1,1.6
		c-0.3,0.3-1,0.5-2.2-0.9c-8.2-12.2-12.3-24-14.3-33.3c6.8,4.1,16.5,5,26.1,1.8c0.5-0.2,0.9-0.3,1.4-0.5c3.3,4.3,10,6,16.7,4.1
		c0.8,3.6,2,12,5.8,22.9c4,11.7,3.6,14.5,0.6,17.2c1.1-0.4,4.6-1.4,7.2-2.4c-6.3-12-11.6-30-12.9-37.9c0.1,0,0.2,0,0.2-0.1
		c0.6-0.2,1.2-0.5,1.8-0.7c3.7,7.1,10.3,24.7,12.5,38.1c2.7-0.7,6.1-2.1,7.2-2.4c-4.1-0.3-6.1-2.3-9.9-14
		c-3.6-11.1-7.7-18.6-9.2-21.9c6.9-3.3,10.7-10,8.8-15.9c-0.1-0.2-0.2-0.5-0.3-0.7c8.8-4.3,14.8-11.6,16.1-19.2
		c4.9,7.9,9.9,18.6,12.5,32.4c0,0,0,0,0,0c0,0.7,0.1,1.3,0.1,2l0,0c0,0,0,0,0,0c0.1,0.7,0.1,1.4,0.2,2.1c0.5,2.3,2.5,2.1,4,1
		C0.3,157.6-0.6,156.9-0.9,156.2z M-57.9,112c-2.8-1-10.9,0.5-13.6,6.6C-70.6,111.7-60.8,109.5-57.9,112z M-62.3,116.5
		c5.3-1.8,10.9,1.1,12.7,6.3c1.8,5.3-1.1,10.9-6.3,12.7c-5.3,1.8-10.9-1.1-12.7-6.3C-70.4,123.9-67.5,118.3-62.3,116.5z
		 M-64.5,149.3c0.8-0.2,1.6-0.4,2.4-0.6c-0.4-1.6,0-2.7,0.6-3.7c1.3,0.6,1.9,2,2.2,2.8c0.3-0.1,0.7-0.3,1.1-0.4c0-1,0.4-1.8,1-2.5
		c0.7,0.3,1.1,0.9,1.4,1.4c0.6-0.3,1.2-0.6,1.8-0.9c0.1-0.6,0.4-1.1,0.7-1.6c0.4,0.2,0.7,0.4,1,0.7c0.7-0.3,1.4-0.7,2-1
		c0.1-0.3,0.2-0.6,0.3-0.8c0.2,0.1,0.4,0.2,0.6,0.3c1.4-0.8,2.9-1.6,4.2-2.4c0-0.3,0-0.6,0.1-0.8c0.4,0,0.7,0.1,1,0.2
		c0.6-0.4,1.2-0.7,1.7-1.1c-0.2-0.4-0.2-0.9-0.2-1.5c0.7,0,1.4,0,2,0.3c0.2-0.1,0.4-0.3,0.6-0.4c-0.5-0.7-1.2-1.9-0.9-3.3
		c1.2,0.1,2.3,0.4,3.3,1.6c0.6-0.5,1.1-0.9,1.4-1.2C-38.5,146-58.3,150.4-64.5,149.3z"/>
</g>
</svg>
