<?xml version="1.0" encoding="utf-8"?>
<!-- Generator: Adobe Illustrator 18.1.0, SVG Export Plug-In . SVG Version: 6.00 Build 0)  -->
<!DOCTYPE svg PUBLIC "-//W3C//DTD SVG 1.1//EN" "http://www.w3.org/Graphics/SVG/1.1/DTD/svg11.dtd">
<svg version="1.1" id="Layer_1" xmlns="http://www.w3.org/2000/svg" xmlns:xlink="http://www.w3.org/1999/xlink" x="0px" y="0px"
	 width="930.5px" height="233.9px" viewBox="0 0 930.5 233.9" enable-background="new 0 0 930.5 233.9" xml:space="preserve">
<symbol  id="Star" viewBox="-2 -1.2 4 2.4">
	<g>
		<path fill="#65C7C8" d="M1.2,0c0-0.7-0.5-1.2-1.2-1.2S-1.2-0.7-1.2,0S-0.7,1.2,0,1.2S1.2,0.7,1.2,0z"/>
		<path fill="#6DCACB" d="M1.2,0c0-0.7-0.5-1.2-1.2-1.2S-1.2-0.7-1.2,0S-0.7,1.2,0,1.2S1.2,0.7,1.2,0z"/>
		<path fill="#74CDCE" d="M1.2,0c0-0.6-0.5-1.2-1.2-1.2S-1.2-0.6-1.2,0S-0.6,1.2,0,1.2S1.2,0.6,1.2,0z"/>
		<path fill="#7CCFD0" d="M1.1,0c0-0.6-0.5-1.1-1.1-1.1S-1.1-0.6-1.1,0S-0.6,1.1,0,1.1S1.1,0.6,1.1,0z"/>
		<path fill="#84D2D3" d="M1.1,0c0-0.6-0.5-1.1-1.1-1.1S-1.1-0.6-1.1,0S-0.6,1.1,0,1.1S1.1,0.6,1.1,0z"/>
		<path fill="#8CD5D6" d="M1.1,0c0-0.6-0.5-1.1-1.1-1.1S-1.1-0.6-1.1,0S-0.6,1.1,0,1.1S1.1,0.6,1.1,0z"/>
		<path fill="#93D8D9" d="M1,0c0-0.6-0.5-1-1-1s-1,0.5-1,1s0.5,1,1,1S1,0.6,1,0z"/>
		<path fill="#9BDBDB" d="M1,0c0-0.6-0.5-1-1-1s-1,0.5-1,1s0.5,1,1,1S1,0.6,1,0z"/>
		<path fill="#A3DDDE" d="M1,0c0-0.6-0.4-1-1-1s-1,0.4-1,1s0.4,1,1,1S1,0.6,1,0z"/>
		<path fill="#AAE0E1" d="M1,0c0-0.5-0.4-1-1-1s-1,0.4-1,1s0.4,1,1,1S1,0.5,1,0z"/>
		<path fill="#B2E3E3" d="M0.9,0c0-0.5-0.4-0.9-0.9-0.9S-0.9-0.5-0.9,0S-0.5,0.9,0,0.9S0.9,0.5,0.9,0z"/>
		<path fill="#BAE6E6" d="M0.9,0c0-0.5-0.4-0.9-0.9-0.9S-0.9-0.5-0.9,0S-0.5,0.9,0,0.9S0.9,0.5,0.9,0z"/>
		<path fill="#C1E9E9" d="M0.9,0c0-0.5-0.4-0.9-0.9-0.9S-0.9-0.5-0.9,0S-0.5,0.9,0,0.9S0.9,0.5,0.9,0z"/>
		<path fill="#C9EBEC" d="M0.9,0c0-0.5-0.4-0.9-0.9-0.9S-0.9-0.5-0.9,0S-0.5,0.9,0,0.9S0.9,0.5,0.9,0z"/>
		<path fill="#D1EEEE" d="M0.8,0c0-0.5-0.4-0.8-0.8-0.8S-0.8-0.5-0.8,0S-0.5,0.8,0,0.8S0.8,0.5,0.8,0z"/>
		<path fill="#D8F1F1" d="M0.8,0c0-0.5-0.4-0.8-0.8-0.8S-0.8-0.5-0.8,0S-0.5,0.8,0,0.8S0.8,0.5,0.8,0z"/>
		<path fill="#E0F4F4" d="M0.8,0c0-0.4-0.4-0.8-0.8-0.8S-0.8-0.4-0.8,0S-0.4,0.8,0,0.8S0.8,0.4,0.8,0z"/>
		<path fill="#E8F7F7" d="M0.8,0c0-0.4-0.3-0.8-0.8-0.8S-0.8-0.4-0.8,0S-0.4,0.8,0,0.8S0.8,0.4,0.8,0z"/>
		<path fill="#F0F9F9" d="M0.7,0c0-0.4-0.3-0.7-0.7-0.7S-0.7-0.4-0.7,0S-0.4,0.7,0,0.7S0.7,0.4,0.7,0z"/>
		<path fill="#F7FCFC" d="M0.7,0c0-0.4-0.3-0.7-0.7-0.7S-0.7-0.4-0.7,0S-0.4,0.7,0,0.7S0.7,0.4,0.7,0z"/>
		<path fill="#FFFFFF" d="M0.7,0c0-0.4-0.3-0.7-0.7-0.7S-0.7-0.4-0.7,0S-0.4,0.7,0,0.7S0.7,0.4,0.7,0z"/>
	</g>
	<polygon display="none" fill="none" points="-2,1 2,1 2,-1 -2,-1 	"/>
</symbol>
<g>
	<g>
		<defs>
			<circle id="SVGID_1_" cx="116.9" cy="116.9" r="116.9"/>
		</defs>
		<clipPath id="SVGID_2_">
			<use xlink:href="#SVGID_1_"  overflow="visible"/>
		</clipPath>
		<linearGradient id="SVGID_3_" gradientUnits="userSpaceOnUse" x1="201.043" y1="276.6648" x2="5.3635" y2="-62.2619">
			<stop  offset="0" style="stop-color:#170B24"/>
			<stop  offset="3.019186e-02" style="stop-color:#341F50"/>
			<stop  offset="6.879635e-02" style="stop-color:#563681"/>
			<stop  offset="0.1027" style="stop-color:#6E46A5"/>
			<stop  offset="0.1302" style="stop-color:#7D50BB"/>
			<stop  offset="0.148" style="stop-color:#8254C3"/>
			<stop  offset="0.3418" style="stop-color:#664FA2"/>
			<stop  offset="0.5" style="stop-color:#48368F"/>
			<stop  offset="0.5151" style="stop-color:#46348A"/>
			<stop  offset="0.6569" style="stop-color:#382060"/>
			<stop  offset="0.7296" style="stop-color:#331950"/>
			<stop  offset="0.8939" style="stop-color:#201032"/>
			<stop  offset="1" style="stop-color:#170B24"/>
		</linearGradient>
		<rect x="-44.5" y="-33.5" clip-path="url(#SVGID_2_)" fill="url(#SVGID_3_)" width="295.4" height="281.4"/>
		<g clip-path="url(#SVGID_2_)">
			
				<linearGradient id="SVGID_4_" gradientUnits="userSpaceOnUse" x1="712.2195" y1="648.8401" x2="514.8088" y2="306.9148" gradientTransform="matrix(0 -1 1 0 -374.1744 711.7197)">
				<stop  offset="0" style="stop-color:#242408"/>
				<stop  offset="3.019186e-02" style="stop-color:#504F19"/>
				<stop  offset="6.879635e-02" style="stop-color:#817F2C"/>
				<stop  offset="0.1027" style="stop-color:#A5A23A"/>
				<stop  offset="0.1302" style="stop-color:#BBB743"/>
				<stop  offset="0.148" style="stop-color:#C3BF46"/>
				<stop  offset="0.3418" style="stop-color:#A29844"/>
				<stop  offset="0.5" style="stop-color:#8F812C"/>
				<stop  offset="0.5151" style="stop-color:#8A7D2A"/>
				<stop  offset="0.6569" style="stop-color:#605D19"/>
				<stop  offset="0.7296" style="stop-color:#505013"/>
				<stop  offset="0.8939" style="stop-color:#32320C"/>
				<stop  offset="1" style="stop-color:#242408"/>
			</linearGradient>
			<rect x="-39" y="-49.5" opacity="0.4" fill="url(#SVGID_4_)" width="285.4" height="295.4"/>
		</g>
		
			<path clip-path="url(#SVGID_2_)" fill="#FFFFFF" stroke="#8254C3" stroke-width="1.421" stroke-linecap="round" stroke-linejoin="round" stroke-miterlimit="10" d="
			M45.8,111.2c0,0,0.1-0.1,0.3-0.3c0.1-0.1,0.2-0.2,0.3-0.4c0.1-0.2,0.3-0.3,0.5-0.5c0.7-0.8,1.8-1.8,3.3-3c1.5-1.2,3.4-2.5,5.5-3.9
			c1.1-0.7,2.3-1.4,3.5-2.1c0.6-0.4,1.2-0.7,1.9-1.1c0.3-0.2,0.6-0.4,1-0.6c0.3-0.2,0.7-0.4,1-0.6c2.8-1.5,5.8-3.2,9.2-4.7
			c0.8-0.4,1.7-0.8,2.5-1.2c0.4-0.2,0.8-0.4,1.3-0.6c0.4-0.2,0.9-0.4,1.3-0.5c1.8-0.7,3.6-1.4,5.4-2.2c3.7-1.3,7.6-2.7,11.6-3.8
			c1-0.3,2-0.6,3-0.9c1-0.3,2-0.5,3.1-0.7c1-0.2,2-0.5,3.1-0.7l1.5-0.4c0.5-0.1,1-0.2,1.6-0.3c2.1-0.4,4.1-0.7,6.2-1.1
			c2.1-0.3,4.1-0.5,6.2-0.8c0.5-0.1,1-0.1,1.5-0.2c0.5,0,1-0.1,1.5-0.1c1-0.1,2-0.1,3-0.2c1-0.1,2-0.2,3-0.2c1,0,2,0,3-0.1
			c1,0,2,0,2.9-0.1c0.5,0,1,0,1.4,0c0.5,0,1,0,1.4,0c1.9,0.1,3.7,0.1,5.5,0.2c0.2,0,0.4,0,0.7,0c0.2,0,0.4,0,0.7,0.1
			c0.4,0,0.9,0.1,1.3,0.1c0.9,0.1,1.7,0.1,2.6,0.2c0.8,0.1,1.7,0.1,2.5,0.2c0.4,0,0.8,0.1,1.2,0.1c0.4,0.1,0.8,0.1,1.2,0.2
			c1.6,0.2,3,0.4,4.5,0.6c0.4,0,0.7,0.1,1.1,0.1c0.3,0,0.7,0.1,1,0.2c0.7,0.1,1.3,0.3,1.9,0.4c2.5,0.5,4.7,0.8,6.5,1.3
			c3.6,0.9,5.6,1.4,5.6,1.4l-0.2,0.6c0,0-2-0.5-5.6-1.2c-1.8-0.4-4-0.7-6.5-1.2c-0.6-0.1-1.3-0.2-1.9-0.3c-0.3-0.1-0.7-0.1-1-0.2
			c-0.3,0-0.7-0.1-1-0.1c-1.4-0.2-2.9-0.3-4.4-0.5c-0.4,0-0.8-0.1-1.2-0.1c-0.4,0-0.8-0.1-1.2-0.1c-0.8,0-1.6-0.1-2.5-0.1
			c-0.8,0-1.7-0.1-2.6-0.1c-0.4,0-0.9-0.1-1.3-0.1c-0.2,0-0.4,0-0.7,0c-0.2,0-0.4,0-0.7,0c-1.8,0-3.6,0-5.5,0c-0.5,0-0.9,0-1.4,0
			c-0.5,0-0.9,0-1.4,0.1c-1,0-1.9,0.1-2.9,0.1c-1,0-2,0.1-2.9,0.1c-1,0.1-2,0.2-3,0.3c-1,0.1-2,0.2-3,0.3c-0.5,0-1,0.1-1.5,0.1
			c-0.5,0.1-1,0.1-1.5,0.2c-2,0.3-4.1,0.6-6.1,0.9c-2,0.4-4.1,0.8-6.1,1.2c-0.5,0.1-1,0.2-1.5,0.3l-1.5,0.4c-1,0.3-2,0.5-3,0.8
			c-1,0.3-2,0.5-3,0.8c-1,0.3-2,0.6-2.9,0.9c-3.9,1.1-7.7,2.6-11.3,4c-1.8,0.8-3.5,1.5-5.2,2.3c-0.4,0.2-0.9,0.4-1.3,0.5
			c-0.4,0.2-0.8,0.4-1.2,0.6c-0.8,0.4-1.6,0.8-2.4,1.2c-3.2,1.5-6.1,3.2-8.8,4.7c-0.3,0.2-0.7,0.4-1,0.6c-0.3,0.2-0.6,0.4-1,0.6
			c-0.6,0.4-1.2,0.8-1.9,1.2c-1.2,0.8-2.3,1.5-3.4,2.2c-2.1,1.4-3.8,2.7-5.1,3.8c-1.3,1.1-2.3,2.1-2.9,2.8c-0.1,0.2-0.3,0.3-0.4,0.4
			c-0.1,0.1-0.2,0.3-0.3,0.4c-0.2,0.2-0.2,0.3-0.2,0.3L45.8,111.2z"/>
		<g clip-path="url(#SVGID_2_)">
			<polygon fill="#8254C3" fill-opacity="0.74" points="53.6,108.7 50.7,111.1 53.8,113.3 50,113.3 51,117 48.1,114.6 46.4,118 
				45.8,114.3 42.3,115.8 44.2,112.5 40.6,111.5 44.1,110.2 42,107.1 45.5,108.4 45.9,104.6 47.8,107.9 50.5,105.2 49.9,109 			"/>
			<polygon fill="#8A5FC7" fill-opacity="0.7563" points="53.4,108.8 50.6,111.1 53.5,113.2 49.9,113.2 50.8,116.8 48,114.4 
				46.5,117.7 45.8,114.1 42.5,115.6 44.3,112.5 40.8,111.5 44.2,110.3 42.2,107.3 45.6,108.5 45.9,104.9 47.8,108 50.4,105.5 
				49.7,109.1 			"/>
			<polygon fill="#9269CB" fill-opacity="0.7725" points="53.1,108.9 50.4,111.1 53.3,113.2 49.8,113.2 50.6,116.5 48,114.3 
				46.5,117.4 45.9,114 42.7,115.4 44.4,112.4 41.1,111.5 44.4,110.3 42.4,107.4 45.7,108.6 46,105.2 47.7,108.2 50.2,105.7 
				49.6,109.2 			"/>
			<polygon fill="#9974CE" fill-opacity="0.7887" points="52.8,109 50.3,111.1 53,113.1 49.7,113.1 50.5,116.3 47.9,114.2 
				46.5,117.2 45.9,113.9 42.9,115.3 44.6,112.4 41.4,111.5 44.5,110.4 42.6,107.6 45.7,108.7 46.1,105.4 47.7,108.3 50.1,106 
				49.5,109.3 			"/>
			<polygon fill="#A17FD2" fill-opacity="0.805" points="52.6,109.1 50.1,111.1 52.7,113 49.6,113 50.3,116.1 47.9,114 46.5,116.9 
				46,113.8 43.1,115.1 44.7,112.3 41.7,111.5 44.6,110.4 42.8,107.8 45.8,108.9 46.1,105.7 47.7,108.5 49.9,106.2 49.4,109.4 			
				"/>
			<polygon fill="#A989D6" fill-opacity="0.8213" points="52.3,109.2 50,111.2 52.4,112.9 49.4,112.9 50.2,115.8 47.9,113.9 
				46.6,116.6 46.1,113.6 43.3,114.9 44.8,112.3 41.9,111.5 44.7,110.4 43,108 45.9,109 46.2,106 47.7,108.6 49.8,106.5 49.3,109.5 
							"/>
			<polygon fill="#B194DA" fill-opacity="0.8375" points="52,109.3 49.8,111.2 52.2,112.8 49.3,112.8 50,115.6 47.8,113.8 
				46.6,116.3 46.1,113.5 43.5,114.7 44.9,112.2 42.2,111.5 44.9,110.5 43.3,108.1 45.9,109.1 46.2,106.3 47.6,108.7 49.7,106.7 
				49.2,109.5 			"/>
			<polygon fill="#B99FDD" fill-opacity="0.8537" points="51.8,109.4 49.7,111.2 51.9,112.7 49.2,112.7 49.9,115.3 47.8,113.6 
				46.6,116 46.2,113.4 43.7,114.5 45.1,112.2 42.5,111.5 45,110.5 43.5,108.3 46,109.2 46.3,106.6 47.6,108.9 49.5,107 49.1,109.6 
							"/>
			<polygon fill="#C1AAE1" fill-opacity="0.87" points="51.5,109.5 49.6,111.2 51.6,112.7 49.1,112.7 49.7,115.1 47.8,113.5 
				46.7,115.8 46.2,113.3 43.9,114.3 45.2,112.1 42.7,111.4 45.1,110.6 43.7,108.5 46.1,109.3 46.3,106.8 47.6,109 49.4,107.3 
				49,109.7 			"/>
			<polygon fill="#C8B4E5" fill-opacity="0.8863" points="51.2,109.7 49.4,111.2 51.3,112.6 49,112.6 49.6,114.9 47.7,113.4 
				46.7,115.5 46.3,113.2 44.1,114.1 45.3,112.1 43,111.4 45.3,110.6 43.9,108.7 46.1,109.5 46.4,107.1 47.6,109.2 49.3,107.5 
				48.9,109.8 			"/>
			<polygon fill="#D0BFE9" fill-opacity="0.9025" points="51,109.8 49.3,111.2 51.1,112.5 48.8,112.5 49.4,114.6 47.7,113.2 
				46.7,115.2 46.3,113 44.3,113.9 45.4,112 43.3,111.4 45.4,110.7 44.1,108.8 46.2,109.6 46.4,107.4 47.5,109.3 49.1,107.8 
				48.7,109.9 			"/>
			<polygon fill="#D8CAEC" fill-opacity="0.9187" points="50.7,109.9 49.1,111.2 50.8,112.4 48.7,112.4 49.2,114.4 47.7,113.1 
				46.8,114.9 46.4,112.9 44.5,113.8 45.6,112 43.6,111.4 45.5,110.7 44.3,109 46.3,109.7 46.5,107.7 47.5,109.4 49,108 48.6,110 
							"/>
			<polygon fill="#E0D4F0" fill-opacity="0.935" points="50.4,110 49,111.2 50.5,112.3 48.6,112.3 49.1,114.2 47.6,112.9 
				46.8,114.7 46.5,112.8 44.7,113.6 45.7,111.9 43.8,111.4 45.6,110.8 44.6,109.2 46.3,109.8 46.5,107.9 47.5,109.6 48.8,108.3 
				48.5,110.1 			"/>
			<polygon fill="#E8DFF4" fill-opacity="0.9513" points="50.2,110.1 48.8,111.2 50.2,112.2 48.5,112.2 48.9,113.9 47.6,112.8 
				46.8,114.4 46.5,112.7 44.9,113.4 45.8,111.9 44.1,111.4 45.8,110.8 44.8,109.4 46.4,110 46.6,108.2 47.5,109.7 48.7,108.5 
				48.4,110.2 			"/>
			<polygon fill="#EFEAF8" fill-opacity="0.9675" points="49.9,110.2 48.7,111.2 50,112.1 48.4,112.2 48.8,113.7 47.5,112.7 
				46.9,114.1 46.6,112.5 45.1,113.2 45.9,111.8 44.4,111.4 45.9,110.8 45,109.5 46.5,110.1 46.6,108.5 47.4,109.9 48.6,108.8 
				48.3,110.3 			"/>
			<polygon fill="#F7F4FB" fill-opacity="0.9837" points="49.6,110.3 48.5,111.2 49.7,112.1 48.3,112.1 48.6,113.5 47.5,112.5 
				46.9,113.8 46.6,112.4 45.3,113 46,111.8 44.7,111.4 46,110.9 45.2,109.7 46.6,110.2 46.7,108.8 47.4,110 48.4,109 48.2,110.4 
							"/>
			<polygon fill="#FFFFFF" points="49.4,110.4 48.4,111.2 49.4,112 48.1,112 48.5,113.2 47.5,112.4 46.9,113.6 46.7,112.3 
				45.5,112.8 46.2,111.7 44.9,111.4 46.1,110.9 45.4,109.9 46.6,110.3 46.7,109 47.4,110.1 48.3,109.3 48.1,110.5 			"/>
		</g>
		<g clip-path="url(#SVGID_2_)">
			<polygon fill="#8254C3" fill-opacity="0.74" points="56.6,107.5 52.4,111 56.8,114.2 51.4,114.2 52.7,119.5 48.5,116 46.2,120.9 
				45.2,115.6 40.2,117.8 43,113.1 37.7,111.6 42.8,109.7 39.7,105.2 44.9,107.1 45.4,101.7 48.2,106.4 52.1,102.6 51.1,107.9 			
				"/>
			<polygon fill="#8A5FC7" fill-opacity="0.7563" points="56.2,107.7 52.2,111.1 56.4,114.1 51.2,114.1 52.5,119.2 48.5,115.8 
				46.2,120.5 45.3,115.4 40.5,117.5 43.1,113 38.1,111.6 43,109.8 40.1,105.5 45,107.3 45.5,102.1 48.1,106.6 51.9,102.9 51,108.1 
							"/>
			<polygon fill="#9269CB" fill-opacity="0.7725" points="55.8,107.8 52,111.1 56,114 51,114 52.3,118.8 48.4,115.6 46.3,120.1 
				45.4,115.2 40.8,117.3 43.3,112.9 38.5,111.6 43.2,109.9 40.4,105.7 45.1,107.4 45.6,102.5 48.1,106.8 51.7,103.3 50.8,108.2 			
				"/>
			<polygon fill="#9974CE" fill-opacity="0.7887" points="55.4,108 51.7,111.1 55.6,113.9 50.9,113.9 52,118.5 48.4,115.4 
				46.3,119.7 45.5,115 41.1,117 43.5,112.9 38.9,111.6 43.4,109.9 40.7,106 45.2,107.6 45.6,102.9 48,107 51.5,103.7 50.6,108.4 
							"/>
			<polygon fill="#A17FD2" fill-opacity="0.805" points="55,108.2 51.5,111.1 55.2,113.7 50.7,113.7 51.8,118.1 48.3,115.2 
				46.3,119.3 45.5,114.9 41.4,116.7 43.7,112.8 39.3,111.6 43.6,110 41,106.2 45.3,107.8 45.7,103.3 48,107.2 51.3,104 50.5,108.5 
							"/>
			<polygon fill="#A989D6" fill-opacity="0.8213" points="54.6,108.3 51.3,111.1 54.8,113.6 50.5,113.6 51.6,117.8 48.3,115 
				46.4,118.9 45.6,114.7 41.7,116.5 43.8,112.7 39.7,111.6 43.7,110.1 41.3,106.5 45.4,108 45.8,103.7 48,107.4 51.1,104.4 
				50.3,108.6 			"/>
			<polygon fill="#B194DA" fill-opacity="0.8375" points="54.2,108.5 51.1,111.1 54.4,113.5 50.3,113.5 51.4,117.5 48.2,114.8 
				46.4,118.5 45.7,114.5 42,116.2 44,112.6 40.1,111.5 43.9,110.1 41.6,106.7 45.5,108.1 45.9,104.1 47.9,107.6 50.9,104.7 
				50.2,108.8 			"/>
			<polygon fill="#B99FDD" fill-opacity="0.8537" points="53.9,108.6 50.9,111.1 54,113.4 50.2,113.4 51.1,117.1 48.2,114.6 
				46.5,118.1 45.8,114.3 42.3,115.9 44.2,112.6 40.5,111.5 44.1,110.2 41.9,107 45.6,108.3 45.9,104.5 47.9,107.8 50.7,105.1 
				50,108.9 			"/>
			<polygon fill="#C1AAE1" fill-opacity="0.87" points="53.5,108.8 50.7,111.1 53.7,113.2 50,113.3 50.9,116.8 48.1,114.5 
				46.5,117.7 45.9,114.2 42.6,115.7 44.4,112.5 40.9,111.5 44.3,110.3 42.2,107.2 45.7,108.5 46,104.9 47.9,108 50.5,105.5 
				49.8,109.1 			"/>
			<polygon fill="#C8B4E5" fill-opacity="0.8863" points="53.1,108.9 50.5,111.1 53.3,113.1 49.8,113.1 50.7,116.4 48.1,114.3 
				46.6,117.3 46,114 42.9,115.4 44.6,112.4 41.3,111.5 44.5,110.3 42.5,107.5 45.8,108.7 46.1,105.3 47.8,108.2 50.3,105.8 
				49.7,109.2 			"/>
			<polygon fill="#D0BFE9" fill-opacity="0.9025" points="52.7,109.1 50.3,111.1 52.9,113 49.7,113 50.5,116.1 48,114.1 46.6,116.9 
				46.1,113.8 43.1,115.1 44.7,112.3 41.7,111.5 44.7,110.4 42.9,107.8 45.9,108.8 46.2,105.7 47.8,108.4 50.1,106.2 49.5,109.3 			
				"/>
			<polygon fill="#D8CAEC" fill-opacity="0.9187" points="52.3,109.2 50,111.2 52.5,112.9 49.5,112.9 50.2,115.8 48,113.9 
				46.7,116.5 46.1,113.6 43.4,114.8 44.9,112.3 42.1,111.5 44.8,110.5 43.2,108 46,109 46.3,106.1 47.7,108.6 49.9,106.5 
				49.4,109.5 			"/>
			<polygon fill="#E0D4F0" fill-opacity="0.935" points="51.9,109.4 49.8,111.2 52.1,112.8 49.3,112.8 50,115.4 47.9,113.7 
				46.7,116.1 46.2,113.4 43.7,114.6 45.1,112.2 42.5,111.5 45,110.5 43.5,108.3 46.1,109.2 46.3,106.5 47.7,108.8 49.7,106.9 
				49.2,109.6 			"/>
			<polygon fill="#E8DFF4" fill-opacity="0.9513" points="51.6,109.6 49.6,111.2 51.7,112.6 49.2,112.7 49.8,115.1 47.8,113.5 
				46.8,115.7 46.3,113.3 44,114.3 45.3,112.1 42.9,111.4 45.2,110.6 43.8,108.5 46.2,109.4 46.4,106.9 47.7,109 49.5,107.3 
				49,109.8 			"/>
			<polygon fill="#EFEAF8" fill-opacity="0.9675" points="51.2,109.7 49.4,111.2 51.3,112.5 49,112.5 49.6,114.7 47.8,113.3 
				46.8,115.3 46.4,113.1 44.3,114 45.5,112 43.2,111.4 45.4,110.6 44.1,108.8 46.3,109.5 46.5,107.3 47.6,109.2 49.3,107.6 
				48.9,109.9 			"/>
			<polygon fill="#F7F4FB" fill-opacity="0.9837" points="50.8,109.9 49.2,111.2 50.9,112.4 48.8,112.4 49.3,114.4 47.7,113.1 
				46.8,114.9 46.5,112.9 44.6,113.8 45.6,112 43.6,111.4 45.6,110.7 44.4,109 46.4,109.7 46.6,107.7 47.6,109.4 49.1,108 48.7,110 
							"/>
			<polygon fill="#FFFFFF" points="50.4,110 49,111.2 50.5,112.3 48.6,112.3 49.1,114.1 47.7,112.9 46.9,114.5 46.6,112.7 
				44.9,113.5 45.8,111.9 44,111.4 45.8,110.8 44.7,109.3 46.5,109.9 46.6,108.1 47.6,109.6 48.9,108.4 48.6,110.2 			"/>
		</g>
		<g clip-path="url(#SVGID_2_)">
			
				<use xlink:href="#Star"  width="4" height="2.4" x="-2" y="-1.2" transform="matrix(0.6428 0 0 -0.6428 51.0343 15.6134)" overflow="visible"/>
			
				<use xlink:href="#Star"  width="4" height="2.4" x="-2" y="-1.2" transform="matrix(0.596 0 0 -0.596 64.3853 -13.4142)" overflow="visible"/>
			
				<use xlink:href="#Star"  width="4" height="2.4" x="-2" y="-1.2" transform="matrix(0.5136 0 0 -0.5136 82.723 -17.3098)" overflow="visible"/>
			
				<use xlink:href="#Star"  width="4" height="2.4" x="-2" y="-1.2" transform="matrix(0.4998 0 0 -0.4998 68.165 46.0514)" overflow="visible" opacity="0.5364"/>
			
				<use xlink:href="#Star"  width="4" height="2.4" x="-2" y="-1.2" transform="matrix(0.4998 0 0 -0.4998 -9.6824 94.7109)" overflow="visible"/>
			
				<use xlink:href="#Star"  width="4" height="2.4" x="-2" y="-1.2" transform="matrix(0.4998 0 0 -0.4998 -6.6554 90.2741)" overflow="visible"/>
			
				<use xlink:href="#Star"  width="4" height="2.4" x="-2" y="-1.2" transform="matrix(0.4998 0 0 -0.4998 139.2856 -22.301)" overflow="visible" opacity="0.5605"/>
			
				<use xlink:href="#Star"  width="4" height="2.4" x="-2" y="-1.2" transform="matrix(0.4998 0 0 -0.4998 152.5206 -27.3384)" overflow="visible" opacity="0.5584"/>
			
				<use xlink:href="#Star"  width="4" height="2.4" x="-2" y="-1.2" transform="matrix(0.4998 0 0 -0.4998 8.4945 113.8193)" overflow="visible"/>
			
				<use xlink:href="#Star"  width="4" height="2.4" x="-2" y="-1.2" transform="matrix(0.4998 0 0 -0.4998 -58.8936 156.7406)" overflow="visible"/>
			
				<use xlink:href="#Star"  width="4" height="2.4" x="-2" y="-1.2" transform="matrix(0.4998 0 0 -0.4998 137.2019 36.379)" overflow="visible" opacity="0.4103"/>
			
				<use xlink:href="#Star"  width="4" height="2.4" x="-2" y="-1.2" transform="matrix(0.4998 0 0 -0.4998 163.148 16.7156)" overflow="visible" opacity="0.1772"/>
			
				<use xlink:href="#Star"  width="4" height="2.4" x="-2" y="-1.2" transform="matrix(0.6128 0 0 -0.6128 61.4526 157.2602)" overflow="visible"/>
			
				<use xlink:href="#Star"  width="4" height="2.4" x="-2" y="-1.2" transform="matrix(0.5236 0 0 -0.5236 21.4985 198.1299)" overflow="visible"/>
			
				<use xlink:href="#Star"  width="4" height="2.4" x="-2" y="-1.2" transform="matrix(0.5189 0 0 -0.5189 194.906 80.2851)" overflow="visible"/>
			
				<use xlink:href="#Star"  width="4" height="2.4" x="-2" y="-1.2" transform="matrix(0.5747 0 0 -0.5747 223.5473 65.1425)" overflow="visible"/>
			
				<use xlink:href="#Star"  width="4" height="2.4" x="-2" y="-1.2" transform="matrix(0.5202 0 0 -0.5202 106.6212 218.0849)" overflow="visible"/>
			
				<use xlink:href="#Star"  width="4" height="2.4" x="-2" y="-1.2" transform="matrix(0.5204 0 0 -0.5204 98.7511 223.3439)" overflow="visible"/>
			
				<use xlink:href="#Star"  width="4" height="2.4" x="-2" y="-1.2" transform="matrix(0.4998 0 0 -0.4998 241.9283 112.6295)" overflow="visible"/>
			
				<use xlink:href="#Star"  width="4" height="2.4" x="-2" y="-1.2" transform="matrix(0.4998 0 0 -0.4998 207.5682 177.9083)" overflow="visible"/>
			
				<use xlink:href="#Star"  width="4" height="2.4" x="-2" y="-1.2" transform="matrix(0.4998 0 0 -0.4998 171.9855 213.698)" overflow="visible"/>
			
				<use xlink:href="#Star"  width="4" height="2.4" x="-2" y="-1.2" transform="matrix(0.4998 0 0 -0.4998 193.2382 134.2001)" overflow="visible"/>
			
				<use xlink:href="#Star"  width="4" height="2.4" x="-2" y="-1.2" transform="matrix(0.6792 0 0 -0.6792 86.7553 175.0168)" overflow="visible"/>
			
				<use xlink:href="#Star"  width="4" height="2.4" x="-2" y="-1.2" transform="matrix(0.4998 0 0 -0.4998 120.9591 80.0876)" overflow="visible" opacity="0.6822"/>
			
				<use xlink:href="#Star"  width="4" height="2.4" x="-2" y="-1.2" transform="matrix(0.4998 0 0 -0.4998 125.3631 81.0202)" overflow="visible" opacity="0.7799"/>
			
				<use xlink:href="#Star"  width="4" height="2.4" x="-2" y="-1.2" transform="matrix(0.4998 0 0 -0.4998 95.7986 117.3449)" overflow="visible" opacity="0.9642"/>
			
				<use xlink:href="#Star"  width="4" height="2.4" x="-2" y="-1.2" transform="matrix(0.4998 0 0 -0.4998 163.5803 51.795)" overflow="visible" opacity="0.6651"/>
			
				<use xlink:href="#Star"  width="4" height="2.4" x="-2" y="-1.2" transform="matrix(0.5896 0 0 -0.5896 57.2509 154.5401)" overflow="visible"/>
			
				<use xlink:href="#Star"  width="4" height="2.4" x="-2" y="-1.2" transform="matrix(0.4998 0 0 -0.4998 78.3915 84.219)" overflow="visible" opacity="0.407"/>
			
				<use xlink:href="#Star"  width="4" height="2.4" x="-2" y="-1.2" transform="matrix(0.4998 0 0 -0.4998 89.0326 78.3767)" overflow="visible" opacity="0.3258"/>
			
				<use xlink:href="#Star"  width="4" height="2.4" x="-2" y="-1.2" transform="matrix(0.5011 0 0 -0.5011 23.9463 150.6288)" overflow="visible"/>
			
				<use xlink:href="#Star"  width="4" height="2.4" x="-2" y="-1.2" transform="matrix(0.4998 0 0 -0.4998 60.8633 46.8238)" overflow="visible" opacity="0.6279"/>
			
				<use xlink:href="#Star"  width="4" height="2.4" x="-2" y="-1.2" transform="matrix(0.4998 0 0 -0.4998 15.8951 75.5503)" overflow="visible"/>
			
				<use xlink:href="#Star"  width="4" height="2.4" x="-2" y="-1.2" transform="matrix(0.5584 0 0 -0.5584 27.2346 35.5441)" overflow="visible"/>
			
				<use xlink:href="#Star"  width="4" height="2.4" x="-2" y="-1.2" transform="matrix(0.5967 0 0 -0.5967 58.4647 -20.8385)" overflow="visible"/>
			
				<use xlink:href="#Star"  width="4" height="2.4" x="-2" y="-1.2" transform="matrix(0.4998 0 0 -0.4998 4.7945 104.5341)" overflow="visible"/>
			
				<use xlink:href="#Star"  width="4" height="2.4" x="-2" y="-1.2" transform="matrix(0.4998 0 0 -0.4998 54.6414 48.8454)" overflow="visible" opacity="0.7091"/>
			
				<use xlink:href="#Star"  width="4" height="2.4" x="-2" y="-1.2" transform="matrix(0.4998 0 0 -0.4998 69.8495 79.8274)" overflow="visible" opacity="0.4363"/>
			
				<use xlink:href="#Star"  width="4" height="2.4" x="-2" y="-1.2" transform="matrix(0.4998 0 0 -0.4998 33.2026 139.4147)" overflow="visible"/>
			
				<use xlink:href="#Star"  width="4" height="2.4" x="-2" y="-1.2" transform="matrix(0.4998 0 0 -0.4998 148.1075 16.4743)" overflow="visible" opacity="0.1939"/>
			
				<use xlink:href="#Star"  width="4" height="2.4" x="-2" y="-1.2" transform="matrix(0.5288 0 0 -0.5288 87.2791 145.7069)" overflow="visible"/>
			
				<use xlink:href="#Star"  width="4" height="2.4" x="-2" y="-1.2" transform="matrix(0.6266 0 0 -0.6266 78.1339 159.9671)" overflow="visible"/>
			
				<use xlink:href="#Star"  width="4" height="2.4" x="-2" y="-1.2" transform="matrix(0.6124 0 0 -0.6124 213.4873 30.0376)" overflow="visible" opacity="0.9956"/>
			
				<use xlink:href="#Star"  width="4" height="2.4" x="-2" y="-1.2" transform="matrix(0.5297 0 0 -0.5297 110.5402 208.9488)" overflow="visible"/>
			
				<use xlink:href="#Star"  width="4" height="2.4" x="-2" y="-1.2" transform="matrix(0.4998 0 0 -0.4998 152.2587 119.6519)" overflow="visible"/>
			
				<use xlink:href="#Star"  width="4" height="2.4" x="-2" y="-1.2" transform="matrix(0.6025 0 0 -0.6025 220.8627 27.6829)" overflow="visible"/>
			
				<use xlink:href="#Star"  width="4" height="2.4" x="-2" y="-1.2" transform="matrix(0.501 0 0 -0.501 132.349 185.211)" overflow="visible"/>
			
				<use xlink:href="#Star"  width="4" height="2.4" x="-2" y="-1.2" transform="matrix(0.4998 0 0 -0.4998 197.0205 103.8768)" overflow="visible"/>
			
				<use xlink:href="#Star"  width="4" height="2.4" x="-2" y="-1.2" transform="matrix(0.4998 0 0 -0.4998 202.567 192.7326)" overflow="visible"/>
			
				<use xlink:href="#Star"  width="4" height="2.4" x="-2" y="-1.2" transform="matrix(0.4998 0 0 -0.4998 202.6109 218.8453)" overflow="visible"/>
			
				<use xlink:href="#Star"  width="4" height="2.4" x="-2" y="-1.2" transform="matrix(0.4998 0 0 -0.4998 124.7642 154.6088)" overflow="visible"/>
			
				<use xlink:href="#Star"  width="4" height="2.4" x="-2" y="-1.2" transform="matrix(0.4998 0 0 -0.4998 52.7809 113.3745)" overflow="visible"/>
			
				<use xlink:href="#Star"  width="4" height="2.4" x="-2" y="-1.2" transform="matrix(0.4998 0 0 -0.4998 47.3794 111.678)" overflow="visible"/>
			
				<use xlink:href="#Star"  width="4" height="2.4" x="-2" y="-1.2" transform="matrix(0.4998 0 0 -0.4998 7.3895 80.9902)" overflow="visible"/>
			
				<use xlink:href="#Star"  width="4" height="2.4" x="-2" y="-1.2" transform="matrix(0.4998 0 0 -0.4998 2.2288 72.973)" overflow="visible"/>
			
				<use xlink:href="#Star"  width="4" height="2.4" x="-2" y="-1.2" transform="matrix(0.4998 0 0 -0.4998 3.206 89.5381)" overflow="visible"/>
			
				<use xlink:href="#Star"  width="4" height="2.4" x="-2" y="-1.2" transform="matrix(0.5198 0 0 -0.5198 18.4608 178.1889)" overflow="visible"/>
			
				<use xlink:href="#Star"  width="4" height="2.4" x="-2" y="-1.2" transform="matrix(0.5553 0 0 -0.5553 27.9109 187.3574)" overflow="visible"/>
			
				<use xlink:href="#Star"  width="4" height="2.4" x="-2" y="-1.2" transform="matrix(0.6408 0 0 -0.6408 64.3181 210.8799)" overflow="visible"/>
			
				<use xlink:href="#Star"  width="4" height="2.4" x="-2" y="-1.2" transform="matrix(0.6143 0 0 -0.6143 70.4803 215.6238)" overflow="visible"/>
			
				<use xlink:href="#Star"  width="4" height="2.4" x="-2" y="-1.2" transform="matrix(0.5424 0 0 -0.5424 109.5743 170.6848)" overflow="visible"/>
			
				<use xlink:href="#Star"  width="4" height="2.4" x="-2" y="-1.2" transform="matrix(0.4998 0 0 -0.4998 111.0246 95.5598)" overflow="visible" opacity="0.7175"/>
			
				<use xlink:href="#Star"  width="4" height="2.4" x="-2" y="-1.2" transform="matrix(0.4998 0 0 -0.4998 96.216 45.6381)" overflow="visible" opacity="0.3831"/>
			
				<use xlink:href="#Star"  width="4" height="2.4" x="-2" y="-1.2" transform="matrix(0.4998 0 0 -0.4998 89.367 33.7429)" overflow="visible" opacity="0.5343"/>
			
				<use xlink:href="#Star"  width="4" height="2.4" x="-2" y="-1.2" transform="matrix(0.4998 0 0 -0.4998 115.1108 8.1305)" overflow="visible" opacity="0.6355"/>
			
				<use xlink:href="#Star"  width="4" height="2.4" x="-2" y="-1.2" transform="matrix(0.4998 0 0 -0.4998 135.1308 9.8049)" overflow="visible" opacity="0.2822"/>
			
				<use xlink:href="#Star"  width="4" height="2.4" x="-2" y="-1.2" transform="matrix(0.4998 0 0 -0.4998 130.6708 52.6457)" overflow="visible" opacity="0.6641"/>
			
				<use xlink:href="#Star"  width="4" height="2.4" x="-2" y="-1.2" transform="matrix(0.5017 0 0 -0.5017 171.137 18.3051)" overflow="visible" opacity="0.2234"/>
			
				<use xlink:href="#Star"  width="4" height="2.4" x="-2" y="-1.2" transform="matrix(0.5409 0 0 -0.5409 191.71 15.3327)" overflow="visible" opacity="0.4936"/>
			
				<use xlink:href="#Star"  width="4" height="2.4" x="-2" y="-1.2" transform="matrix(0.4998 0 0 -0.4998 203.93 100.6079)" overflow="visible"/>
			
				<use xlink:href="#Star"  width="4" height="2.4" x="-2" y="-1.2" transform="matrix(0.4998 0 0 -0.4998 188.9585 146.8546)" overflow="visible"/>
			
				<use xlink:href="#Star"  width="4" height="2.4" x="-2" y="-1.2" transform="matrix(0.4998 0 0 -0.4998 200.0308 144.096)" overflow="visible"/>
			
				<use xlink:href="#Star"  width="4" height="2.4" x="-2" y="-1.2" transform="matrix(0.4998 0 0 -0.4998 158.6482 203.4871)" overflow="visible"/>
			
				<use xlink:href="#Star"  width="4" height="2.4" x="-2" y="-1.2" transform="matrix(0.4998 0 0 -0.4998 152.6661 212.5701)" overflow="visible"/>
			
				<use xlink:href="#Star"  width="4" height="2.4" x="-2" y="-1.2" transform="matrix(0.4998 0 0 -0.4998 171.7899 200.8615)" overflow="visible"/>
			
				<use xlink:href="#Star"  width="4" height="2.4" x="-2" y="-1.2" transform="matrix(0.4998 0 0 -0.4998 163.7721 183.5749)" overflow="visible"/>
			
				<use xlink:href="#Star"  width="4" height="2.4" x="-2" y="-1.2" transform="matrix(0.4998 0 0 -0.4998 157.3694 138.7669)" overflow="visible"/>
			
				<use xlink:href="#Star"  width="4" height="2.4" x="-2" y="-1.2" transform="matrix(0.4998 0 0 -0.4998 157.9785 134.1149)" overflow="visible"/>
			
				<use xlink:href="#Star"  width="4" height="2.4" x="-2" y="-1.2" transform="matrix(0.4998 0 0 -0.4998 143.3697 127.5513)" overflow="visible"/>
			
				<use xlink:href="#Star"  width="4" height="2.4" x="-2" y="-1.2" transform="matrix(0.4998 0 0 -0.4998 112.047 114.3456)" overflow="visible"/>
			
				<use xlink:href="#Star"  width="4" height="2.4" x="-2" y="-1.2" transform="matrix(0.4998 0 0 -0.4998 -2.7965 127.3462)" overflow="visible"/>
			
				<use xlink:href="#Star"  width="4" height="2.4" x="-2" y="-1.2" transform="matrix(0.4998 0 0 -0.4998 -45.8074 140.4148)" overflow="visible"/>
			
				<use xlink:href="#Star"  width="4" height="2.4" x="-2" y="-1.2" transform="matrix(0.4998 0 0 -0.4998 -4.1359 107.9372)" overflow="visible"/>
			
				<use xlink:href="#Star"  width="4" height="2.4" x="-2" y="-1.2" transform="matrix(0.4998 0 0 -0.4998 11.2594 98.0185)" overflow="visible"/>
			
				<use xlink:href="#Star"  width="4" height="2.4" x="-2" y="-1.2" transform="matrix(0.4998 0 0 -0.4998 -63.3094 90.4166)" overflow="visible"/>
			
				<use xlink:href="#Star"  width="4" height="2.4" x="-2" y="-1.2" transform="matrix(0.4998 0 0 -0.4998 -55.8998 67.7286)" overflow="visible"/>
			
				<use xlink:href="#Star"  width="4" height="2.4" x="-2" y="-1.2" transform="matrix(0.4998 0 0 -0.4998 -33.5584 46.6981)" overflow="visible"/>
			
				<use xlink:href="#Star"  width="4" height="2.4" x="-2" y="-1.2" transform="matrix(0.4998 0 0 -0.4998 -29.651 42.5977)" overflow="visible"/>
			
				<use xlink:href="#Star"  width="4" height="2.4" x="-2" y="-1.2" transform="matrix(0.4998 0 0 -0.4998 -36.3525 75.6925)" overflow="visible"/>
			
				<use xlink:href="#Star"  width="4" height="2.4" x="-2" y="-1.2" transform="matrix(0.6692 0 0 -0.6692 25.3259 -2.9556)" overflow="visible"/>
			
				<use xlink:href="#Star"  width="4" height="2.4" x="-2" y="-1.2" transform="matrix(0.6515 0 0 -0.6515 31.8476 -15.339)" overflow="visible"/>
			
				<use xlink:href="#Star"  width="4" height="2.4" x="-2" y="-1.2" transform="matrix(0.5363 0 0 -0.5363 49.9502 40.8624)" overflow="visible" opacity="0.8912"/>
			
				<use xlink:href="#Star"  width="4" height="2.4" x="-2" y="-1.2" transform="matrix(0.4998 0 0 -0.4998 32.3654 110.0773)" overflow="visible"/>
			
				<use xlink:href="#Star"  width="4" height="2.4" x="-2" y="-1.2" transform="matrix(0.4998 0 0 -0.4998 74.7284 91.8277)" overflow="visible" opacity="0.5264"/>
			
				<use xlink:href="#Star"  width="4" height="2.4" x="-2" y="-1.2" transform="matrix(0.5566 0 0 -0.5566 186.5705 36.6223)" overflow="visible" opacity="0.5887"/>
			
				<use xlink:href="#Star"  width="4" height="2.4" x="-2" y="-1.2" transform="matrix(0.5553 0 0 -0.5553 196.3745 66.6153)" overflow="visible" opacity="0.9612"/>
			
				<use xlink:href="#Star"  width="4" height="2.4" x="-2" y="-1.2" transform="matrix(0.4998 0 0 -0.4998 193.8321 112.276)" overflow="visible"/>
			
				<use xlink:href="#Star"  width="4" height="2.4" x="-2" y="-1.2" transform="matrix(0.4998 0 0 -0.4998 225.8433 102.9746)" overflow="visible"/>
			
				<use xlink:href="#Star"  width="4" height="2.4" x="-2" y="-1.2" transform="matrix(0.4998 0 0 -0.4998 226.3959 133.0511)" overflow="visible"/>
			
				<use xlink:href="#Star"  width="4" height="2.4" x="-2" y="-1.2" transform="matrix(0.4998 0 0 -0.4998 103.7038 239.6999)" overflow="visible"/>
			
				<use xlink:href="#Star"  width="4" height="2.4" x="-2" y="-1.2" transform="matrix(0.4998 0 0 -0.4998 60.9582 255.9249)" overflow="visible"/>
			
				<use xlink:href="#Star"  width="4" height="2.4" x="-2" y="-1.2" transform="matrix(0.4998 0 0 -0.4998 50.07 245.9141)" overflow="visible"/>
			
				<use xlink:href="#Star"  width="4" height="2.4" x="-2" y="-1.2" transform="matrix(0.4998 0 0 -0.4998 -0.7797 166.4337)" overflow="visible"/>
			
				<use xlink:href="#Star"  width="4" height="2.4" x="-2" y="-1.2" transform="matrix(0.4998 0 0 -0.4998 -0.1285 163.2116)" overflow="visible"/>
			
				<use xlink:href="#Star"  width="4" height="2.4" x="-2" y="-1.2" transform="matrix(0.4998 0 0 -0.4998 -6.1665 160.7997)" overflow="visible"/>
			
				<use xlink:href="#Star"  width="4" height="2.4" x="-2" y="-1.2" transform="matrix(0.4998 0 0 -0.4998 -63.7618 81.3467)" overflow="visible"/>
			
				<use xlink:href="#Star"  width="4" height="2.4" x="-2" y="-1.2" transform="matrix(0.4998 0 0 -0.4998 -63.9055 77.3641)" overflow="visible"/>
			
				<use xlink:href="#Star"  width="4" height="2.4" x="-2" y="-1.2" transform="matrix(0.4998 0 0 -0.4998 188.2189 93.7059)" overflow="visible"/>
			
				<use xlink:href="#Star"  width="4" height="2.4" x="-2" y="-1.2" transform="matrix(0.4998 0 0 -0.4998 183.2286 91.3866)" overflow="visible"/>
			
				<use xlink:href="#Star"  width="4" height="2.4" x="-2" y="-1.2" transform="matrix(0.4998 0 0 -0.4998 171.9483 88.7954)" overflow="visible" opacity="0.9974"/>
			
				<use xlink:href="#Star"  width="4" height="2.4" x="-2" y="-1.2" transform="matrix(0.4998 0 0 -0.4998 159.9191 78.5677)" overflow="visible" opacity="0.9516"/>
			
				<use xlink:href="#Star"  width="4" height="2.4" x="-2" y="-1.2" transform="matrix(0.4998 0 0 -0.4998 145.6174 59.2718)" overflow="visible" opacity="0.7778"/>
			
				<use xlink:href="#Star"  width="4" height="2.4" x="-2" y="-1.2" transform="matrix(0.4998 0 0 -0.4998 123.7562 34.04)" overflow="visible" opacity="0.5202"/>
			
				<use xlink:href="#Star"  width="4" height="2.4" x="-2" y="-1.2" transform="matrix(0.4998 0 0 -0.4998 112.0259 16.7215)" overflow="visible" opacity="0.649"/>
			
				<use xlink:href="#Star"  width="4" height="2.4" x="-2" y="-1.2" transform="matrix(0.4998 0 0 -0.4998 100.6799 4.3022)" overflow="visible" opacity="0.8382"/>
			
				<use xlink:href="#Star"  width="4" height="2.4" x="-2" y="-1.2" transform="matrix(0.57 0 0 -0.57 72.0749 8.2563)" overflow="visible" opacity="0.9945"/>
			
				<use xlink:href="#Star"  width="4" height="2.4" x="-2" y="-1.2" transform="matrix(0.5289 0 0 -0.5289 11.2246 34.2847)" overflow="visible"/>
			
				<use xlink:href="#Star"  width="4" height="2.4" x="-2" y="-1.2" transform="matrix(0.4998 0 0 -0.4998 -38.1749 68.3789)" overflow="visible"/>
			
				<use xlink:href="#Star"  width="4" height="2.4" x="-2" y="-1.2" transform="matrix(0.4998 0 0 -0.4998 -37.9929 110.0208)" overflow="visible"/>
			
				<use xlink:href="#Star"  width="4" height="2.4" x="-2" y="-1.2" transform="matrix(0.4998 0 0 -0.4998 67.7622 94.5224)" overflow="visible" opacity="0.6179"/>
			
				<use xlink:href="#Star"  width="4" height="2.4" x="-2" y="-1.2" transform="matrix(0.4998 0 0 -0.4998 131.689 30.6819)" overflow="visible" opacity="0.392"/>
			
				<use xlink:href="#Star"  width="4" height="2.4" x="-2" y="-1.2" transform="matrix(0.4998 0 0 -0.4998 149.8609 -21.4538)" overflow="visible" opacity="0.4604"/>
			
				<use xlink:href="#Star"  width="4" height="2.4" x="-2" y="-1.2" transform="matrix(0.4998 0 0 -0.4998 163.2998 -30.7618)" overflow="visible" opacity="0.6258"/>
			
				<use xlink:href="#Star"  width="4" height="2.4" x="-2" y="-1.2" transform="matrix(0.4998 0 0 -0.4998 173.4391 -28.6952)" overflow="visible" opacity="0.6354"/>
			
				<use xlink:href="#Star"  width="4" height="2.4" x="-2" y="-1.2" transform="matrix(0.5023 0 0 -0.5023 194.1224 -3.4648)" overflow="visible" opacity="0.5926"/>
			
				<use xlink:href="#Star"  width="4" height="2.4" x="-2" y="-1.2" transform="matrix(0.5253 0 0 -0.5253 195.3425 5.7316)" overflow="visible" opacity="0.5716"/>
			
				<use xlink:href="#Star"  width="4" height="2.4" x="-2" y="-1.2" transform="matrix(0.4998 0 0 -0.4998 188.1948 -5.7551)" overflow="visible" opacity="0.4936"/>
			
				<use xlink:href="#Star"  width="4" height="2.4" x="-2" y="-1.2" transform="matrix(0.4998 0 0 -0.4998 179.0013 -21.7246)" overflow="visible" opacity="0.5619"/>
			
				<use xlink:href="#Star"  width="4" height="2.4" x="-2" y="-1.2" transform="matrix(0.4998 0 0 -0.4998 175.9092 -20.6977)" overflow="visible" opacity="0.5099"/>
			
				<use xlink:href="#Star"  width="4" height="2.4" x="-2" y="-1.2" transform="matrix(0.4998 0 0 -0.4998 145.1338 9.366)" overflow="visible" opacity="0.1966"/>
			
				<use xlink:href="#Star"  width="4" height="2.4" x="-2" y="-1.2" transform="matrix(0.4998 0 0 -0.4998 131.1389 16.6449)" overflow="visible" opacity="0.3236"/>
			
				<use xlink:href="#Star"  width="4" height="2.4" x="-2" y="-1.2" transform="matrix(0.4998 0 0 -0.4998 109.5184 26.5881)" overflow="visible" opacity="0.6159"/>
			
				<use xlink:href="#Star"  width="4" height="2.4" x="-2" y="-1.2" transform="matrix(0.4998 0 0 -0.4998 104.9361 31.5846)" overflow="visible" opacity="0.5487"/>
			
				<use xlink:href="#Star"  width="4" height="2.4" x="-2" y="-1.2" transform="matrix(0.4998 0 0 -0.4998 149.9206 144.9347)" overflow="visible"/>
			
				<use xlink:href="#Star"  width="4" height="2.4" x="-2" y="-1.2" transform="matrix(0.4998 0 0 -0.4998 163.035 134.3591)" overflow="visible"/>
			
				<use xlink:href="#Star"  width="4" height="2.4" x="-2" y="-1.2" transform="matrix(0.4998 0 0 -0.4998 234.8278 96.5313)" overflow="visible"/>
			
				<use xlink:href="#Star"  width="4" height="2.4" x="-2" y="-1.2" transform="matrix(0.4998 0 0 -0.4998 239.8146 95.054)" overflow="visible"/>
			
				<use xlink:href="#Star"  width="4" height="2.4" x="-2" y="-1.2" transform="matrix(0.4998 0 0 -0.4998 98.0793 61.6922)" overflow="visible" opacity="0.3155"/>
			
				<use xlink:href="#Star"  width="4" height="2.4" x="-2" y="-1.2" transform="matrix(0.4998 0 0 -0.4998 68.866 71.6169)" overflow="visible" opacity="0.4044"/>
			
				<use xlink:href="#Star"  width="4" height="2.4" x="-2" y="-1.2" transform="matrix(0.4998 0 0 -0.4998 24.639 90.3453)" overflow="visible"/>
			
				<use xlink:href="#Star"  width="4" height="2.4" x="-2" y="-1.2" transform="matrix(0.4998 0 0 -0.4998 105.0607 131.6093)" overflow="visible"/>
			
				<use xlink:href="#Star"  width="4" height="2.4" x="-2" y="-1.2" transform="matrix(0.4998 0 0 -0.4998 142.3727 152.8961)" overflow="visible"/>
			
				<use xlink:href="#Star"  width="4" height="2.4" x="-2" y="-1.2" transform="matrix(0.5024 0 0 -0.5024 129.216 199.9478)" overflow="visible"/>
			
				<use xlink:href="#Star"  width="4" height="2.4" x="-2" y="-1.2" transform="matrix(0.5081 0 0 -0.5081 121.6197 208.4573)" overflow="visible"/>
			
				<use xlink:href="#Star"  width="4" height="2.4" x="-2" y="-1.2" transform="matrix(0.6114 0 0 -0.6114 90.9362 208.6577)" overflow="visible"/>
			
				<use xlink:href="#Star"  width="4" height="2.4" x="-2" y="-1.2" transform="matrix(0.6744 0 0 -0.6744 71.5713 206.1728)" overflow="visible"/>
			
				<use xlink:href="#Star"  width="4" height="2.4" x="-2" y="-1.2" transform="matrix(0.6454 0 0 -0.6454 60.5927 209.0417)" overflow="visible"/>
			
				<use xlink:href="#Star"  width="4" height="2.4" x="-2" y="-1.2" transform="matrix(0.5057 0 0 -0.5057 76.2866 51.7875)" overflow="visible" opacity="0.3971"/>
			
				<use xlink:href="#Star"  width="4" height="2.4" x="-2" y="-1.2" transform="matrix(0.4998 0 0 -0.4998 136.5528 53.4883)" overflow="visible" opacity="0.6868"/>
			
				<use xlink:href="#Star"  width="4" height="2.4" x="-2" y="-1.2" transform="matrix(0.4998 0 0 -0.4998 129.039 92.9613)" overflow="visible" opacity="0.9979"/>
			
				<use xlink:href="#Star"  width="4" height="2.4" x="-2" y="-1.2" transform="matrix(0.5815 0 0 -0.5815 48.1654 173.2532)" overflow="visible"/>
			
				<use xlink:href="#Star"  width="4" height="2.4" x="-2" y="-1.2" transform="matrix(0.5509 0 0 -0.5509 44.7901 150.9991)" overflow="visible"/>
			
				<use xlink:href="#Star"  width="4" height="2.4" x="-2" y="-1.2" transform="matrix(0.5278 0 0 -0.5278 37.9751 42.5785)" overflow="visible"/>
			
				<use xlink:href="#Star"  width="4" height="2.4" x="-2" y="-1.2" transform="matrix(0.5759 0 0 -0.5759 38.9216 12.8109)" overflow="visible"/>
			
				<use xlink:href="#Star"  width="4" height="2.4" x="-2" y="-1.2" transform="matrix(0.5856 0 0 -0.5856 40.7866 4.492)" overflow="visible"/>
			
				<use xlink:href="#Star"  width="4" height="2.4" x="-2" y="-1.2" transform="matrix(0.5014 0 0 -0.5014 108.2895 32.3478)" overflow="visible" opacity="0.5426"/>
			
				<use xlink:href="#Star"  width="4" height="2.4" x="-2" y="-1.2" transform="matrix(0.4999 0 0 -0.4999 118.2186 72.2258)" overflow="visible" opacity="0.574"/>
			
				<use xlink:href="#Star"  width="4" height="2.4" x="-2" y="-1.2" transform="matrix(0.5098 0 0 -0.5098 117.2518 137.0021)" overflow="visible"/>
			
				<use xlink:href="#Star"  width="4" height="2.4" x="-2" y="-1.2" transform="matrix(0.5014 0 0 -0.5014 155.4816 170.5541)" overflow="visible"/>
			
				<use xlink:href="#Star"  width="4" height="2.4" x="-2" y="-1.2" transform="matrix(0.5 0 0 -0.5 179.5219 191.5977)" overflow="visible"/>
			
				<use xlink:href="#Star"  width="4" height="2.4" x="-2" y="-1.2" transform="matrix(0.5001 0 0 -0.5001 166.8578 170.7227)" overflow="visible"/>
			
				<use xlink:href="#Star"  width="4" height="2.4" x="-2" y="-1.2" transform="matrix(0.5 0 0 -0.5 163.9478 127.2452)" overflow="visible"/>
			
				<use xlink:href="#Star"  width="4" height="2.4" x="-2" y="-1.2" transform="matrix(0.4999 0 0 -0.4999 125.0335 58.9024)" overflow="visible" opacity="0.6182"/>
			
				<use xlink:href="#Star"  width="4" height="2.4" x="-2" y="-1.2" transform="matrix(0.525 0 0 -0.525 79.7243 16.5035)" overflow="visible" opacity="0.8957"/>
			
				<use xlink:href="#Star"  width="4" height="2.4" x="-2" y="-1.2" transform="matrix(0.6271 0 0 -0.6271 13.5705 -18.3382)" overflow="visible"/>
			
				<use xlink:href="#Star"  width="4" height="2.4" x="-2" y="-1.2" transform="matrix(0.6333 0 0 -0.6333 7.5444 -23.5846)" overflow="visible"/>
			
				<use xlink:href="#Star"  width="4" height="2.4" x="-2" y="-1.2" transform="matrix(0.5727 0 0 -0.5727 54.5059 3.7616)" overflow="visible"/>
			
				<use xlink:href="#Star"  width="4" height="2.4" x="-2" y="-1.2" transform="matrix(0.5 0 0 -0.5 112.7268 68.4998)" overflow="visible" opacity="0.4719"/>
			
				<use xlink:href="#Star"  width="4" height="2.4" x="-2" y="-1.2" transform="matrix(0.4998 0 0 -0.4998 127.841 85.5248)" overflow="visible" opacity="0.8842"/>
			
				<use xlink:href="#Star"  width="4" height="2.4" x="-2" y="-1.2" transform="matrix(0.5001 0 0 -0.5001 153.8382 98.3497)" overflow="visible"/>
			
				<use xlink:href="#Star"  width="4" height="2.4" x="-2" y="-1.2" transform="matrix(0.5041 0 0 -0.5041 179.579 96.0803)" overflow="visible"/>
			
				<use xlink:href="#Star"  width="4" height="2.4" x="-2" y="-1.2" transform="matrix(0.5066 0 0 -0.5066 188.3507 89.2726)" overflow="visible"/>
			
				<use xlink:href="#Star"  width="4" height="2.4" x="-2" y="-1.2" transform="matrix(0.5097 0 0 -0.5097 197.2557 85.6231)" overflow="visible"/>
			
				<use xlink:href="#Star"  width="4" height="2.4" x="-2" y="-1.2" transform="matrix(0.5002 0 0 -0.5002 171.4905 129.1866)" overflow="visible"/>
			
				<use xlink:href="#Star"  width="4" height="2.4" x="-2" y="-1.2" transform="matrix(0.5081 0 0 -0.5081 129.3748 153.5936)" overflow="visible"/>
			
				<use xlink:href="#Star"  width="4" height="2.4" x="-2" y="-1.2" transform="matrix(0.5443 0 0 -0.5443 105.07 166.5773)" overflow="visible"/>
			
				<use xlink:href="#Star"  width="4" height="2.4" x="-2" y="-1.2" transform="matrix(0.5351 0 0 -0.5351 114.3005 170.7111)" overflow="visible"/>
			
				<use xlink:href="#Star"  width="4" height="2.4" x="-2" y="-1.2" transform="matrix(0.5001 0 0 -0.5001 176.6927 175.5257)" overflow="visible"/>
			
				<use xlink:href="#Star"  width="4" height="2.4" x="-2" y="-1.2" transform="matrix(0.5001 0 0 -0.5001 173.6597 196.466)" overflow="visible"/>
			
				<use xlink:href="#Star"  width="4" height="2.4" x="-2" y="-1.2" transform="matrix(0.5032 0 0 -0.5032 148.7982 216.857)" overflow="visible"/>
			
				<use xlink:href="#Star"  width="4" height="2.4" x="-2" y="-1.2" transform="matrix(0.5583 0 0 -0.5583 90.617 159.4747)" overflow="visible"/>
			
				<use xlink:href="#Star"  width="4" height="2.4" x="-2" y="-1.2" transform="matrix(0.5002 0 0 -0.5002 57.1171 102.4943)" overflow="visible" opacity="0.8499"/>
			
				<use xlink:href="#Star"  width="4" height="2.4" x="-2" y="-1.2" transform="matrix(0.511 0 0 -0.511 19.8586 61.6917)" overflow="visible"/>
			
				<use xlink:href="#Star"  width="4" height="2.4" x="-2" y="-1.2" transform="matrix(0.5176 0 0 -0.5176 7.1216 46.8079)" overflow="visible"/>
			
				<use xlink:href="#Star"  width="4" height="2.4" x="-2" y="-1.2" transform="matrix(0.5304 0 0 -0.5304 -0.8297 31.6172)" overflow="visible"/>
			
				<use xlink:href="#Star"  width="4" height="2.4" x="-2" y="-1.2" transform="matrix(0.5311 0 0 -0.5311 2.3447 33.3944)" overflow="visible"/>
			
				<use xlink:href="#Star"  width="4" height="2.4" x="-2" y="-1.2" transform="matrix(0.502 0 0 -0.502 47.433 82.6255)" overflow="visible" opacity="0.7885"/>
			
				<use xlink:href="#Star"  width="4" height="2.4" x="-2" y="-1.2" transform="matrix(0.501 0 0 -0.501 50.8767 88.3063)" overflow="visible" opacity="0.7723"/>
			
				<use xlink:href="#Star"  width="4" height="2.4" x="-2" y="-1.2" transform="matrix(0.5088 0 0 -0.5088 37.5719 64.0118)" overflow="visible" opacity="0.9496"/>
			
				<use xlink:href="#Star"  width="4" height="2.4" x="-2" y="-1.2" transform="matrix(0.5146 0 0 -0.5146 33.7126 56.9952)" overflow="visible"/>
			
				<use xlink:href="#Star"  width="4" height="2.4" x="-2" y="-1.2" transform="matrix(0.5005 0 0 -0.5005 60.4621 103.1735)" overflow="visible" opacity="0.8202"/>
			
				<use xlink:href="#Star"  width="4" height="2.4" x="-2" y="-1.2" transform="matrix(0.5004 0 0 -0.5004 97.6032 55.8504)" overflow="visible" opacity="0.3251"/>
			
				<use xlink:href="#Star"  width="4" height="2.4" x="-2" y="-1.2" transform="matrix(0.5015 0 0 -0.5015 117.2319 17.1291)" overflow="visible" opacity="0.5625"/>
			
				<use xlink:href="#Star"  width="4" height="2.4" x="-2" y="-1.2" transform="matrix(0.5005 0 0 -0.5005 123.6181 7.6389)" overflow="visible" opacity="0.4584"/>
			
				<use xlink:href="#Star"  width="4" height="2.4" x="-2" y="-1.2" transform="matrix(0.5 0 0 -0.5 142.5396 -4.6922)" overflow="visible" opacity="0.2881"/>
			
				<use xlink:href="#Star"  width="4" height="2.4" x="-2" y="-1.2" transform="matrix(0.5016 0 0 -0.5016 156.9769 -9.8467)" overflow="visible" opacity="0.2628"/>
			
				<use xlink:href="#Star"  width="4" height="2.4" x="-2" y="-1.2" transform="matrix(0.5032 0 0 -0.5032 167.3725 -9.4185)" overflow="visible" opacity="0.28"/>
			
				<use xlink:href="#Star"  width="4" height="2.4" x="-2" y="-1.2" transform="matrix(0.5033 0 0 -0.5033 170.369 -11.5463)" overflow="visible" opacity="0.3242"/>
			
				<use xlink:href="#Star"  width="4" height="2.4" x="-2" y="-1.2" transform="matrix(0.5023 0 0 -0.5023 162.9548 -13.1554)" overflow="visible" opacity="0.31"/>
			
				<use xlink:href="#Star"  width="4" height="2.4" x="-2" y="-1.2" transform="matrix(0.5004 0 0 -0.5004 136.4535 -14.6209)" overflow="visible" opacity="0.4676"/>
			
				<use xlink:href="#Star"  width="4" height="2.4" x="-2" y="-1.2" transform="matrix(0.5036 0 0 -0.5036 113.0317 -18.0135)" overflow="visible" opacity="0.9207"/>
			
				<use xlink:href="#Star"  width="4" height="2.4" x="-2" y="-1.2" transform="matrix(0.5114 0 0 -0.5114 103.1514 -20.4171)" overflow="visible" opacity="0.9948"/>
			
				<use xlink:href="#Star"  width="4" height="2.4" x="-2" y="-1.2" transform="matrix(0.5114 0 0 -0.5114 102.5124 -17.6051)" overflow="visible" opacity="0.9838"/>
			
				<use xlink:href="#Star"  width="4" height="2.4" x="-2" y="-1.2" transform="matrix(0.5121 0 0 -0.5121 43.1008 122.2562)" overflow="visible"/>
			
				<use xlink:href="#Star"  width="4" height="2.4" x="-2" y="-1.2" transform="matrix(0.5125 0 0 -0.5125 46.5521 122.7191)" overflow="visible"/>
			
				<use xlink:href="#Star"  width="4" height="2.4" x="-2" y="-1.2" transform="matrix(0.5193 0 0 -0.5193 61.6576 125.8344)" overflow="visible"/>
			
				<use xlink:href="#Star"  width="4" height="2.4" x="-2" y="-1.2" transform="matrix(0.5213 0 0 -0.5213 76.8579 129.0529)" overflow="visible"/>
			
				<use xlink:href="#Star"  width="4" height="2.4" x="-2" y="-1.2" transform="matrix(0.5191 0 0 -0.5191 91.2166 128.4671)" overflow="visible"/>
			
				<use xlink:href="#Star"  width="4" height="2.4" x="-2" y="-1.2" transform="matrix(0.5119 0 0 -0.5119 104.7594 125.2694)" overflow="visible"/>
			
				<use xlink:href="#Star"  width="4" height="2.4" x="-2" y="-1.2" transform="matrix(0.5052 0 0 -0.5052 114.8974 119.719)" overflow="visible"/>
			
				<use xlink:href="#Star"  width="4" height="2.4" x="-2" y="-1.2" transform="matrix(0.5006 0 0 -0.5006 139.4981 97.578)" overflow="visible"/>
			
				<use xlink:href="#Star"  width="4" height="2.4" x="-2" y="-1.2" transform="matrix(0.5242 0 0 -0.5242 196.0363 60.8584)" overflow="visible" opacity="0.9328"/>
			
				<use xlink:href="#Star"  width="4" height="2.4" x="-2" y="-1.2" transform="matrix(0.5172 0 0 -0.5172 188.0427 64.5294)" overflow="visible" opacity="0.908"/>
			
				<use xlink:href="#Star"  width="4" height="2.4" x="-2" y="-1.2" transform="matrix(0.5003 0 0 -0.5003 147.5924 88.93)" overflow="visible"/>
			
				<use xlink:href="#Star"  width="4" height="2.4" x="-2" y="-1.2" transform="matrix(0.5028 0 0 -0.5028 112.5871 106.1657)" overflow="visible" opacity="0.908"/>
			
				<use xlink:href="#Star"  width="4" height="2.4" x="-2" y="-1.2" transform="matrix(0.5077 0 0 -0.5077 90.5721 116.3437)" overflow="visible" opacity="0.9283"/>
			
				<use xlink:href="#Star"  width="4" height="2.4" x="-2" y="-1.2" transform="matrix(0.5149 0 0 -0.5149 78.8752 122.5243)" overflow="visible"/>
			
				<use xlink:href="#Star"  width="4" height="2.4" x="-2" y="-1.2" transform="matrix(0.515 0 0 -0.515 75.5533 122.3113)" overflow="visible"/>
			
				<use xlink:href="#Star"  width="4" height="2.4" x="-2" y="-1.2" transform="matrix(0.5009 0 0 -0.5009 100.1888 80.0614)" overflow="visible" opacity="0.4074"/>
			
				<use xlink:href="#Star"  width="4" height="2.4" x="-2" y="-1.2" transform="matrix(0.5003 0 0 -0.5003 106.6263 72.618)" overflow="visible" opacity="0.417"/>
			
				<use xlink:href="#Star"  width="4" height="2.4" x="-2" y="-1.2" transform="matrix(0.5001 0 0 -0.5001 117.0444 56.9501)" overflow="visible" opacity="0.5044"/>
			
				<use xlink:href="#Star"  width="4" height="2.4" x="-2" y="-1.2" transform="matrix(0.5 0 0 -0.5 135.3844 40.4282)" overflow="visible" opacity="0.4854"/>
			
				<use xlink:href="#Star"  width="4" height="2.4" x="-2" y="-1.2" transform="matrix(0.5008 0 0 -0.5008 144.5238 25.3627)" overflow="visible" opacity="0.2549"/>
			
				<use xlink:href="#Star"  width="4" height="2.4" x="-2" y="-1.2" transform="matrix(0.5008 0 0 -0.5008 145.6397 28.4052)" overflow="visible" opacity="0.2722"/>
			
				<use xlink:href="#Star"  width="4" height="2.4" x="-2" y="-1.2" transform="matrix(0.5027 0 0 -0.5027 100.7564 95.383)" overflow="visible" opacity="0.6044"/>
			
				<use xlink:href="#Star"  width="4" height="2.4" x="-2" y="-1.2" transform="matrix(0.5032 0 0 -0.5032 97.5162 98.871)" overflow="visible" opacity="0.6371"/>
			
				<use xlink:href="#Star"  width="4" height="2.4" x="-2" y="-1.2" transform="matrix(0.5041 0 0 -0.5041 90.5489 102.4618)" overflow="visible" opacity="0.6662"/>
			
				<use xlink:href="#Star"  width="4" height="2.4" x="-2" y="-1.2" transform="matrix(0.5053 0 0 -0.5053 76.2347 106.6895)" overflow="visible" opacity="0.7569"/>
			
				<use xlink:href="#Star"  width="4" height="2.4" x="-2" y="-1.2" transform="matrix(0.5301 0 0 -0.5301 44.6155 142.2484)" overflow="visible"/>
			
				<use xlink:href="#Star"  width="4" height="2.4" x="-2" y="-1.2" transform="matrix(0.514 0 0 -0.514 213.8408 79.7013)" overflow="visible"/>
			
				<use xlink:href="#Star"  width="4" height="2.4" x="-2" y="-1.2" transform="matrix(0.5252 0 0 -0.5252 197.2361 56.7106)" overflow="visible" opacity="0.9179"/>
			
				<use xlink:href="#Star"  width="4" height="2.4" x="-2" y="-1.2" transform="matrix(0.5158 0 0 -0.5158 178.1941 32.8708)" overflow="visible" opacity="0.405"/>
			
				<use xlink:href="#Star"  width="4" height="2.4" x="-2" y="-1.2" transform="matrix(0.5081 0 0 -0.5081 171.8865 21.7922)" overflow="visible" opacity="0.2459"/>
			
				<use xlink:href="#Star"  width="4" height="2.4" x="-2" y="-1.2" transform="matrix(0.5071 0 0 -0.5071 169.6317 15.6202)" overflow="visible" opacity="0.2028"/>
			
				<use xlink:href="#Star"  width="4" height="2.4" x="-2" y="-1.2" transform="matrix(0.5137 0 0 -0.5137 175.2593 40.0154)" overflow="visible" opacity="0.4751"/>
			
				<use xlink:href="#Star"  width="4" height="2.4" x="-2" y="-1.2" transform="matrix(0.5045 0 0 -0.5045 187.4992 104.9766)" overflow="visible"/>
			
				<use xlink:href="#Star"  width="4" height="2.4" x="-2" y="-1.2" transform="matrix(0.4998 0 0 -0.4998 211.4618 161.7847)" overflow="visible"/>
			
				<use xlink:href="#Star"  width="4" height="2.4" x="-2" y="-1.2" transform="matrix(0.4998 0 0 -0.4998 220.6631 186.0728)" overflow="visible"/>
		</g>
	</g>
	<g>
		<g>
			<linearGradient id="SVGID_5_" gradientUnits="userSpaceOnUse" x1="1.9172" y1="0.8801" x2="1722.3312" y2="689.3456">
				<stop  offset="0" style="stop-color:#754E80"/>
				<stop  offset="0.2404" style="stop-color:#8255BE"/>
				<stop  offset="0.6307" style="stop-color:#CCCCCC"/>
				<stop  offset="1" style="stop-color:#482A4D"/>
			</linearGradient>
			<path fill="url(#SVGID_5_)" d="M296.2,70.4l-35.3,92h22.2l5.7-16h39.1l5.6,16h22.2l-35.1-92H296.2z M294.1,129.4l14.2-39.2
				l14.2,39.2H294.1z"/>
			<linearGradient id="SVGID_6_" gradientUnits="userSpaceOnUse" x1="10.3634" y1="-20.5621" x2="1730.7773" y2="667.9035">
				<stop  offset="0" style="stop-color:#754E80"/>
				<stop  offset="0.2404" style="stop-color:#8255BE"/>
				<stop  offset="0.6307" style="stop-color:#CCCCCC"/>
				<stop  offset="1" style="stop-color:#482A4D"/>
			</linearGradient>
			<path fill="url(#SVGID_6_)" d="M376,114.9c0-3.7,4.1-6.6,10.4-6.6c8.1,0,15.6,3.4,19.6,7.7l7-11.9c-6.6-5.2-15.5-9-26.7-9
				c-17.4,0-27.1,9.7-27.1,20.8c0,26,39.2,17.1,39.2,28c0,4.1-3.6,7.1-11.1,7.1c-8.2,0-18.1-4.5-22.8-9l-7.5,12.2
				c7,6.4,18.1,10.3,29.5,10.3c18.3,0,28.6-9.2,28.6-21.2C415.1,116.5,376,124.7,376,114.9z"/>
			<linearGradient id="SVGID_7_" gradientUnits="userSpaceOnUse" x1="22.1448" y1="-47.3271" x2="1739.0547" y2="639.7362">
				<stop  offset="0" style="stop-color:#754E80"/>
				<stop  offset="0.2404" style="stop-color:#8255BE"/>
				<stop  offset="0.6307" style="stop-color:#CCCCCC"/>
				<stop  offset="1" style="stop-color:#482A4D"/>
			</linearGradient>
			<path fill="url(#SVGID_7_)" d="M453.1,148.9c-3.8,0-5.8-3.1-5.8-7.2v-29.2h13v-15h-13v-18h-18v18h-11v15h11v33.9
				c0,11.8,6.6,18.1,18.8,18.1c7.2,0,11.9-1.9,14.5-4.2L459,147C458,148,455.7,148.9,453.1,148.9z"/>
			<linearGradient id="SVGID_8_" gradientUnits="userSpaceOnUse" x1="26.258" y1="-56.0468" x2="1741.4106" y2="630.3134">
				<stop  offset="0" style="stop-color:#754E80"/>
				<stop  offset="0.2404" style="stop-color:#8255BE"/>
				<stop  offset="0.6307" style="stop-color:#CCCCCC"/>
				<stop  offset="1" style="stop-color:#482A4D"/>
			</linearGradient>
			<path fill="url(#SVGID_8_)" d="M487.3,105.7v-8.3h-17v66h17v-44.3c3-4.2,10.5-7.5,16.2-7.5c1.9,0,3.8,0.1,4.8,0.4V95
				C500.3,95,492.3,99.8,487.3,105.7z"/>
			<linearGradient id="SVGID_9_" gradientUnits="userSpaceOnUse" x1="32.6177" y1="-76.1735" x2="1753.0317" y2="612.2921">
				<stop  offset="0" style="stop-color:#754E80"/>
				<stop  offset="0.2404" style="stop-color:#8255BE"/>
				<stop  offset="0.6307" style="stop-color:#CCCCCC"/>
				<stop  offset="1" style="stop-color:#482A4D"/>
			</linearGradient>
			<path fill="url(#SVGID_9_)" d="M547,95c-21.7,0-34.9,15.9-34.9,34.6c0,18.9,13.1,34.7,34.9,34.7c21.9,0,35-15.9,35-34.7
				C582,110.9,568.9,95,547,95z M547,148.9c-10.8,0-16.8-8.9-16.8-19.3c0-10.3,6-19.1,16.8-19.1s17,8.9,17,19.1
				C564,140,557.8,148.9,547,148.9z"/>
			<linearGradient id="SVGID_10_" gradientUnits="userSpaceOnUse" x1="41.9106" y1="-99.0358" x2="1762.3246" y2="589.4297">
				<stop  offset="0" style="stop-color:#754E80"/>
				<stop  offset="0.2404" style="stop-color:#8255BE"/>
				<stop  offset="0.6307" style="stop-color:#CCCCCC"/>
				<stop  offset="1" style="stop-color:#482A4D"/>
			</linearGradient>
			<path fill="url(#SVGID_10_)" d="M629.6,95c-10.8,0-19.3,5.2-23.3,10.3v-7.8h-17v66h17v-45.2c3-4,8.1-7.8,14.9-7.8
				c7.4,0,12.1,3.1,12.1,12.3v40.7h18v-47.4C651.3,103.2,644.1,95,629.6,95z"/>
			<linearGradient id="SVGID_11_" gradientUnits="userSpaceOnUse" x1="52.7247" y1="-126.4191" x2="1773.1387" y2="562.0465">
				<stop  offset="0" style="stop-color:#754E80"/>
				<stop  offset="0.2404" style="stop-color:#8255BE"/>
				<stop  offset="0.6307" style="stop-color:#CCCCCC"/>
				<stop  offset="1" style="stop-color:#482A4D"/>
			</linearGradient>
			<path fill="url(#SVGID_11_)" d="M692.7,95c-21.7,0-34.9,15.9-34.9,34.6c0,18.9,13.1,34.7,34.9,34.7c21.9,0,35-15.9,35-34.7
				C727.7,110.9,714.6,95,692.7,95z M692.7,148.9c-10.8,0-16.8-8.9-16.8-19.3c0-10.3,6-19.1,16.8-19.1s17,8.9,17,19.1
				C709.7,140,703.5,148.9,692.7,148.9z"/>
			<linearGradient id="SVGID_12_" gradientUnits="userSpaceOnUse" x1="64.6521" y1="-155.8648" x2="1785.066" y2="532.6008">
				<stop  offset="0" style="stop-color:#754E80"/>
				<stop  offset="0.2404" style="stop-color:#8255BE"/>
				<stop  offset="0.6307" style="stop-color:#CCCCCC"/>
				<stop  offset="1" style="stop-color:#482A4D"/>
			</linearGradient>
			<path fill="url(#SVGID_12_)" d="M814.7,95c-10.1,0-18.9,6-22.8,12c-2.5-7.5-8.5-12-18.2-12c-10.1,0-19.5,6.3-21.5,10.3v-7.8h-18
				v66h18v-45.2c2-3.7,7.4-7.8,13.4-7.8c7.1,0,9.6,4.4,9.6,10.5v42.4h18v-45.3c2-3.6,7.3-7.7,13.4-7.7c7.1,0,9.6,4.4,9.6,10.5v42.4
				h18V115C834.3,101.5,826.9,95,814.7,95z"/>
			<linearGradient id="SVGID_13_" gradientUnits="userSpaceOnUse" x1="92.2147" y1="-225.1012" x2="1812.6287" y2="463.3644">
				<stop  offset="0" style="stop-color:#754E80"/>
				<stop  offset="0.2404" style="stop-color:#8255BE"/>
				<stop  offset="0.6307" style="stop-color:#CCCCCC"/>
				<stop  offset="1" style="stop-color:#482A4D"/>
			</linearGradient>
			<path fill="url(#SVGID_13_)" d="M852.7,68.9c-5.6,0-10.4,4.5-10.4,10.3c0,5.7,4.8,10.4,10.4,10.4c5.7,0,10.4-4.6,10.4-10.4
				C863.1,73.4,858.4,68.9,852.7,68.9z"/>
			<linearGradient id="SVGID_14_" gradientUnits="userSpaceOnUse" x1="74.6807" y1="-180.9254" x2="1795.0947" y2="507.5402">
				<stop  offset="0" style="stop-color:#754E80"/>
				<stop  offset="0.2404" style="stop-color:#8255BE"/>
				<stop  offset="0.6307" style="stop-color:#CCCCCC"/>
				<stop  offset="1" style="stop-color:#482A4D"/>
			</linearGradient>
			<rect x="844.3" y="97.4" fill="url(#SVGID_14_)" width="17" height="66"/>
			<linearGradient id="SVGID_15_" gradientUnits="userSpaceOnUse" x1="81.9435" y1="-199.4342" x2="1802.3574" y2="489.0313">
				<stop  offset="0" style="stop-color:#754E80"/>
				<stop  offset="0.2404" style="stop-color:#8255BE"/>
				<stop  offset="0.6307" style="stop-color:#CCCCCC"/>
				<stop  offset="1" style="stop-color:#482A4D"/>
			</linearGradient>
			<path fill="url(#SVGID_15_)" d="M905.2,148.9c-10.5,0-17.9-7.8-17.9-19.3s7.4-19.1,17.9-19.1c6,0,10.8,2.5,13.9,7.1l11.4-10.7
				c-4.4-6-12.6-11.9-26.1-11.9c-20.4,0-35,14.4-35,34.6c0,20.4,14.6,34.7,35,34.7c13.5,0,21.7-5.9,26.1-12l-11.4-10.5
				C916.1,146.2,911.3,148.9,905.2,148.9z"/>
		</g>
	</g>
</g>
</svg>
